<svg width="1512" height="28" viewBox="0 0 1512 28" fill="none" xmlns="http://www.w3.org/2000/svg">
<path d="M-48.6797 0.730469C-54.0182 0.730469 -58.1328 1.59635 -61.0234 3.32812C-62.612 4.29167 -63.8164 5.52214 -64.6367 7.01953C-65.5221 8.66016 -65.9648 10.6198 -65.9648 12.8984V14.8125C-65.9648 17.0911 -65.5221 19.0508 -64.6367 20.6914C-63.8164 22.1888 -62.612 23.4193 -61.0234 24.3828C-58.1328 26.1146 -54.0182 26.9805 -48.6797 26.9805C-43.5885 26.9805 -39.6172 26.1927 -36.7656 24.6172C-35.1901 23.7578 -33.9661 22.651 -33.0938 21.2969C-32.2604 20.0078 -31.7331 18.4909 -31.5117 16.7461H-40.8672C-41.3229 17.6706 -41.974 18.3672 -42.8203 18.8359C-43.6667 19.2917 -44.6107 19.5911 -45.6523 19.7344C-46.681 19.8646 -47.6901 19.9297 -48.6797 19.9297C-51.2708 19.9297 -53.1849 19.5846 -54.4219 18.8945C-56.1406 17.957 -57 16.3815 -57 14.168V13.543C-57 11.3294 -56.1406 9.75391 -54.4219 8.81641C-53.1849 8.1263 -51.2708 7.78125 -48.6797 7.78125C-47.6901 7.78125 -46.681 7.85286 -45.6523 7.99609C-44.6107 8.1263 -43.6667 8.42578 -42.8203 8.89453C-41.974 9.35026 -41.3229 10.0469 -40.8672 10.9844H-31.5117C-31.7331 9.22656 -32.2604 7.70312 -33.0938 6.41406C-33.9661 5.0599 -35.1901 3.95312 -36.7656 3.09375C-39.6172 1.51823 -43.5885 0.730469 -48.6797 0.730469ZM-48.6797 0.0859375C-46.3099 0.0859375 -44.0833 0.27474 -42 0.652344C-39.9167 1.02995 -38.0677 1.65495 -36.4531 2.52734C-34.8385 3.39974 -33.543 4.58464 -32.5664 6.08203C-31.5768 7.56641 -30.9909 9.40885 -30.8086 11.6094H-41.2969C-41.6224 10.75 -42.1432 10.0924 -42.8594 9.63672C-43.5625 9.16797 -44.4154 8.84896 -45.418 8.67969C-46.4206 8.4974 -47.5078 8.40625 -48.6797 8.40625C-50.099 8.40625 -51.388 8.54297 -52.5469 8.81641C-53.7057 9.07682 -54.6302 9.57812 -55.3203 10.3203C-56.0104 11.0495 -56.3555 12.1237 -56.3555 13.543V14.168C-56.3555 15.5872 -56.0104 16.668 -55.3203 17.4102C-54.6302 18.1393 -53.7057 18.6406 -52.5469 18.9141C-51.388 19.1745 -50.099 19.3047 -48.6797 19.3047C-47.5078 19.3047 -46.4206 19.2201 -45.418 19.0508C-44.4154 18.8685 -43.5625 18.5495 -42.8594 18.0938C-42.1432 17.625 -41.6224 16.9609 -41.2969 16.1016H-30.8086C-30.9909 18.3021 -31.5768 20.151 -32.5664 21.6484C-33.543 23.1328 -34.8385 24.3112 -36.4531 25.1836C-38.0677 26.056 -39.9167 26.681 -42 27.0586C-44.0833 27.4362 -46.3099 27.625 -48.6797 27.625C-51.1536 27.625 -53.4779 27.4167 -55.6523 27C-57.8138 26.5964 -59.7148 25.9128 -61.3555 24.9492C-62.9961 23.9727 -64.2852 22.6576 -65.2227 21.0039C-66.1471 19.3503 -66.6094 17.2865 -66.6094 14.8125V12.8984C-66.6094 10.4245 -66.1471 8.36719 -65.2227 6.72656C-64.2852 5.07292 -62.9961 3.75781 -61.3555 2.78125C-59.7148 1.80469 -57.8138 1.11458 -55.6523 0.710938C-53.4779 0.294271 -51.1536 0.0859375 -48.6797 0.0859375ZM-2.44922 1.39453H-27.0977V26.3555H-18.1328V20.5938V19.9492H-17.4883H-8.34766H-8.03516L-7.83984 20.2031L-3.09375 26.3555H6.16406L1.26172 20.0469L0.753906 19.4023L1.49609 19.0703C3.13672 18.276 4.43229 17.1237 5.38281 15.6133C6.34635 14.1029 6.82812 12.4557 6.82812 10.6719C6.82812 8.96615 6.41146 7.41016 5.57812 6.00391C4.74479 4.59766 3.625 3.47786 2.21875 2.64453C0.8125 1.8112 -0.74349 1.39453 -2.44922 1.39453ZM-18.1328 13.543V12.918V8.42578V7.78125H-17.4883H-5.00781C-4.21354 7.78125 -3.53646 8.06771 -2.97656 8.64062C-2.41667 9.20052 -2.13672 9.8776 -2.13672 10.6719C-2.13672 11.4661 -2.41667 12.1432 -2.97656 12.7031C-3.53646 13.263 -4.21354 13.543 -5.00781 13.543H-17.4883H-18.1328ZM-2.44922 0.75C-0.626302 0.75 1.03385 1.19922 2.53125 2.09766C4.04167 2.98307 5.23958 4.18099 6.125 5.69141C7.02344 7.1888 7.47266 8.84896 7.47266 10.6719C7.47266 12.6641 6.94531 14.4544 5.89062 16.043C4.84896 17.6315 3.46875 18.8359 1.75 19.6562L7.47266 27H-3.40625L-8.34766 20.5938H-17.4883V27H-27.7422V0.75H-2.44922ZM-17.4883 12.918H-5.00781C-4.39583 12.918 -3.86849 12.6966 -3.42578 12.2539C-2.98307 11.8112 -2.76172 11.2839 -2.76172 10.6719C-2.76172 10.0469 -2.98307 9.51953 -3.42578 9.08984C-3.86849 8.64714 -4.39583 8.42578 -5.00781 8.42578H-17.4883V12.918ZM20.8906 0.75V27H10.6562V0.75H20.8906ZM20.2656 1.39453H11.3008V26.3555H20.2656V1.39453ZM58.7031 0.75V9.07031H46.5352V27H36.3008V9.07031H24.1328V0.75H58.7031ZM58.0586 1.39453H24.7773V8.42578H36.3008H36.9258V9.07031V26.3555H45.8906V9.07031V8.42578H46.5352H58.0586V1.39453ZM72.4141 0.75V27H62.1797V0.75H72.4141ZM71.7891 1.39453H62.8242V26.3555H71.7891V1.39453ZM115.656 0.75L102.043 13.875L115.656 27H102.199L92.5898 18.0352H88.1172V27H77.8828V0.75H88.1172V9.71484H92.5898L102.199 0.75H115.656ZM114.074 1.39453H102.453L93.0195 10.1836L92.8242 10.3594H92.5898H88.1172H87.4922V9.71484V1.39453H78.5273V26.3555H87.4922V18.0352V17.3906H88.1172H92.5898H92.8242L93.0195 17.5664L102.453 26.3555H114.074L101.594 14.3438L101.125 13.875L101.594 13.4062L114.074 1.39453ZM147.902 0.75V7.46875H127.414V10.8281H147.902V16.9219H127.414V20.2812H147.902V27H117.18V0.75H147.902ZM147.258 1.39453H117.824V26.3555H147.258V20.9258H127.414H126.789V20.2812V16.9219V16.2773H127.414H147.258V11.4727H127.414H126.789V10.8281V7.46875V6.82422H127.414H147.258V1.39453ZM188.391 0.75L173.664 18.0352V27H163.43V18.0352L148.703 0.75H160.871L168.547 10.1836L176.223 0.75H188.391ZM187.004 1.39453H176.535L169.035 10.5938L168.547 11.1992L168.059 10.5938L160.559 1.39453H150.09L163.918 17.625L164.074 17.8008V18.0352V26.3555H173.02V18.0352V17.8008L173.176 17.625L187.004 1.39453ZM219.895 0.75V7.46875H199.406V10.8281H219.895V16.9219H199.406V20.2812H219.895V27H189.172V0.75H219.895ZM219.25 1.39453H189.816V26.3555H219.25V20.9258H199.406H198.781V20.2812V16.9219V16.2773H199.406H219.25V11.4727H199.406H198.781V10.8281V7.46875V6.82422H199.406H219.25V1.39453ZM268.996 10.0469V17.7227H238.273V10.0469H268.996ZM268.352 10.6914H238.918V17.0781H268.352V10.6914ZM305.305 0.730469C299.966 0.730469 295.852 1.59635 292.961 3.32812C291.372 4.29167 290.168 5.52214 289.348 7.01953C288.462 8.66016 288.02 10.6198 288.02 12.8984V14.8125C288.02 17.0911 288.462 19.0508 289.348 20.6914C290.168 22.1888 291.372 23.4193 292.961 24.3828C295.852 26.1146 299.966 26.9805 305.305 26.9805C310.396 26.9805 314.367 26.1927 317.219 24.6172C318.794 23.7578 320.018 22.651 320.891 21.2969C321.724 20.0078 322.251 18.4909 322.473 16.7461H313.117C312.661 17.6706 312.01 18.3672 311.164 18.8359C310.318 19.2917 309.374 19.5911 308.332 19.7344C307.303 19.8646 306.294 19.9297 305.305 19.9297C302.714 19.9297 300.799 19.5846 299.562 18.8945C297.844 17.957 296.984 16.3815 296.984 14.168V13.543C296.984 11.3294 297.844 9.75391 299.562 8.81641C300.799 8.1263 302.714 7.78125 305.305 7.78125C306.294 7.78125 307.303 7.85286 308.332 7.99609C309.374 8.1263 310.318 8.42578 311.164 8.89453C312.01 9.35026 312.661 10.0469 313.117 10.9844H322.473C322.251 9.22656 321.724 7.70312 320.891 6.41406C320.018 5.0599 318.794 3.95312 317.219 3.09375C314.367 1.51823 310.396 0.730469 305.305 0.730469ZM305.305 0.0859375C307.674 0.0859375 309.901 0.27474 311.984 0.652344C314.068 1.02995 315.917 1.65495 317.531 2.52734C319.146 3.39974 320.441 4.58464 321.418 6.08203C322.408 7.56641 322.993 9.40885 323.176 11.6094H312.688C312.362 10.75 311.841 10.0924 311.125 9.63672C310.422 9.16797 309.569 8.84896 308.566 8.67969C307.564 8.4974 306.477 8.40625 305.305 8.40625C303.885 8.40625 302.596 8.54297 301.438 8.81641C300.279 9.07682 299.354 9.57812 298.664 10.3203C297.974 11.0495 297.629 12.1237 297.629 13.543V14.168C297.629 15.5872 297.974 16.668 298.664 17.4102C299.354 18.1393 300.279 18.6406 301.438 18.9141C302.596 19.1745 303.885 19.3047 305.305 19.3047C306.477 19.3047 307.564 19.2201 308.566 19.0508C309.569 18.8685 310.422 18.5495 311.125 18.0938C311.841 17.625 312.362 16.9609 312.688 16.1016H323.176C322.993 18.3021 322.408 20.151 321.418 21.6484C320.441 23.1328 319.146 24.3112 317.531 25.1836C315.917 26.056 314.068 26.681 311.984 27.0586C309.901 27.4362 307.674 27.625 305.305 27.625C302.831 27.625 300.507 27.4167 298.332 27C296.171 26.5964 294.27 25.9128 292.629 24.9492C290.988 23.9727 289.699 22.6576 288.762 21.0039C287.837 19.3503 287.375 17.2865 287.375 14.8125V12.8984C287.375 10.4245 287.837 8.36719 288.762 6.72656C289.699 5.07292 290.988 3.75781 292.629 2.78125C294.27 1.80469 296.171 1.11458 298.332 0.710938C300.507 0.294271 302.831 0.0859375 305.305 0.0859375ZM351.535 1.39453H326.887V26.3555H335.852V20.5938V19.9492H336.496H345.637H345.949L346.145 20.2031L350.891 26.3555H360.148L355.246 20.0469L354.738 19.4023L355.48 19.0703C357.121 18.276 358.417 17.1237 359.367 15.6133C360.331 14.1029 360.812 12.4557 360.812 10.6719C360.812 8.96615 360.396 7.41016 359.562 6.00391C358.729 4.59766 357.609 3.47786 356.203 2.64453C354.797 1.8112 353.241 1.39453 351.535 1.39453ZM335.852 13.543V12.918V8.42578V7.78125H336.496H348.977C349.771 7.78125 350.448 8.06771 351.008 8.64062C351.568 9.20052 351.848 9.8776 351.848 10.6719C351.848 11.4661 351.568 12.1432 351.008 12.7031C350.448 13.263 349.771 13.543 348.977 13.543H336.496H335.852ZM351.535 0.75C353.358 0.75 355.018 1.19922 356.516 2.09766C358.026 2.98307 359.224 4.18099 360.109 5.69141C361.008 7.1888 361.457 8.84896 361.457 10.6719C361.457 12.6641 360.93 14.4544 359.875 16.043C358.833 17.6315 357.453 18.8359 355.734 19.6562L361.457 27H350.578L345.637 20.5938H336.496V27H326.242V0.75H351.535ZM336.496 12.918H348.977C349.589 12.918 350.116 12.6966 350.559 12.2539C351.001 11.8112 351.223 11.2839 351.223 10.6719C351.223 10.0469 351.001 9.51953 350.559 9.08984C350.116 8.64714 349.589 8.42578 348.977 8.42578H336.496V12.918ZM374.875 0.75V27H364.641V0.75H374.875ZM374.25 1.39453H365.285V26.3555H374.25V1.39453ZM412.688 0.75V9.07031H400.52V27H390.285V9.07031H378.117V0.75H412.688ZM412.043 1.39453H378.762V8.42578H390.285H390.91V9.07031V26.3555H399.875V9.07031V8.42578H400.52H412.043V1.39453ZM426.398 0.75V27H416.164V0.75H426.398ZM425.773 1.39453H416.809V26.3555H425.773V1.39453ZM469.641 0.75L456.027 13.875L469.641 27H456.184L446.574 18.0352H442.102V27H431.867V0.75H442.102V9.71484H446.574L456.184 0.75H469.641ZM468.059 1.39453H456.438L447.004 10.1836L446.809 10.3594H446.574H442.102H441.477V9.71484V1.39453H432.512V26.3555H441.477V18.0352V17.3906H442.102H446.574H446.809L447.004 17.5664L456.438 26.3555H468.059L455.578 14.3438L455.109 13.875L455.578 13.4062L468.059 1.39453ZM501.887 0.75V7.46875H481.398V10.8281H501.887V16.9219H481.398V20.2812H501.887V27H471.164V0.75H501.887ZM501.242 1.39453H471.809V26.3555H501.242V20.9258H481.398H480.773V20.2812V16.9219V16.2773H481.398H501.242V11.4727H481.398H480.773V10.8281V7.46875V6.82422H481.398H501.242V1.39453ZM542.375 0.75L527.648 18.0352V27H517.414V18.0352L502.688 0.75H514.855L522.531 10.1836L530.207 0.75H542.375ZM540.988 1.39453H530.52L523.02 10.5938L522.531 11.1992L522.043 10.5938L514.543 1.39453H504.074L517.902 17.625L518.059 17.8008V18.0352V26.3555H527.004V18.0352V17.8008L527.16 17.625L540.988 1.39453ZM573.879 0.75V7.46875H553.391V10.8281H573.879V16.9219H553.391V20.2812H573.879V27H543.156V0.75H573.879ZM573.234 1.39453H543.801V26.3555H573.234V20.9258H553.391H552.766V20.2812V16.9219V16.2773H553.391H573.234V11.4727H553.391H552.766V10.8281V7.46875V6.82422H553.391H573.234V1.39453ZM622.98 10.0469V17.7227H592.258V10.0469H622.98ZM622.336 10.6914H592.902V17.0781H622.336V10.6914ZM659.289 0.730469C653.951 0.730469 649.836 1.59635 646.945 3.32812C645.357 4.29167 644.152 5.52214 643.332 7.01953C642.447 8.66016 642.004 10.6198 642.004 12.8984V14.8125C642.004 17.0911 642.447 19.0508 643.332 20.6914C644.152 22.1888 645.357 23.4193 646.945 24.3828C649.836 26.1146 653.951 26.9805 659.289 26.9805C664.38 26.9805 668.352 26.1927 671.203 24.6172C672.779 23.7578 674.003 22.651 674.875 21.2969C675.708 20.0078 676.236 18.4909 676.457 16.7461H667.102C666.646 17.6706 665.995 18.3672 665.148 18.8359C664.302 19.2917 663.358 19.5911 662.316 19.7344C661.288 19.8646 660.279 19.9297 659.289 19.9297C656.698 19.9297 654.784 19.5846 653.547 18.8945C651.828 17.957 650.969 16.3815 650.969 14.168V13.543C650.969 11.3294 651.828 9.75391 653.547 8.81641C654.784 8.1263 656.698 7.78125 659.289 7.78125C660.279 7.78125 661.288 7.85286 662.316 7.99609C663.358 8.1263 664.302 8.42578 665.148 8.89453C665.995 9.35026 666.646 10.0469 667.102 10.9844H676.457C676.236 9.22656 675.708 7.70312 674.875 6.41406C674.003 5.0599 672.779 3.95312 671.203 3.09375C668.352 1.51823 664.38 0.730469 659.289 0.730469ZM659.289 0.0859375C661.659 0.0859375 663.885 0.27474 665.969 0.652344C668.052 1.02995 669.901 1.65495 671.516 2.52734C673.13 3.39974 674.426 4.58464 675.402 6.08203C676.392 7.56641 676.978 9.40885 677.16 11.6094H666.672C666.346 10.75 665.826 10.0924 665.109 9.63672C664.406 9.16797 663.553 8.84896 662.551 8.67969C661.548 8.4974 660.461 8.40625 659.289 8.40625C657.87 8.40625 656.581 8.54297 655.422 8.81641C654.263 9.07682 653.339 9.57812 652.648 10.3203C651.958 11.0495 651.613 12.1237 651.613 13.543V14.168C651.613 15.5872 651.958 16.668 652.648 17.4102C653.339 18.1393 654.263 18.6406 655.422 18.9141C656.581 19.1745 657.87 19.3047 659.289 19.3047C660.461 19.3047 661.548 19.2201 662.551 19.0508C663.553 18.8685 664.406 18.5495 665.109 18.0938C665.826 17.625 666.346 16.9609 666.672 16.1016H677.16C676.978 18.3021 676.392 20.151 675.402 21.6484C674.426 23.1328 673.13 24.3112 671.516 25.1836C669.901 26.056 668.052 26.681 665.969 27.0586C663.885 27.4362 661.659 27.625 659.289 27.625C656.815 27.625 654.491 27.4167 652.316 27C650.155 26.5964 648.254 25.9128 646.613 24.9492C644.973 23.9727 643.684 22.6576 642.746 21.0039C641.822 19.3503 641.359 17.2865 641.359 14.8125V12.8984C641.359 10.4245 641.822 8.36719 642.746 6.72656C643.684 5.07292 644.973 3.75781 646.613 2.78125C648.254 1.80469 650.155 1.11458 652.316 0.710938C654.491 0.294271 656.815 0.0859375 659.289 0.0859375ZM705.52 1.39453H680.871V26.3555H689.836V20.5938V19.9492H690.48H699.621H699.934L700.129 20.2031L704.875 26.3555H714.133L709.23 20.0469L708.723 19.4023L709.465 19.0703C711.105 18.276 712.401 17.1237 713.352 15.6133C714.315 14.1029 714.797 12.4557 714.797 10.6719C714.797 8.96615 714.38 7.41016 713.547 6.00391C712.714 4.59766 711.594 3.47786 710.188 2.64453C708.781 1.8112 707.225 1.39453 705.52 1.39453ZM689.836 13.543V12.918V8.42578V7.78125H690.48H702.961C703.755 7.78125 704.432 8.06771 704.992 8.64062C705.552 9.20052 705.832 9.8776 705.832 10.6719C705.832 11.4661 705.552 12.1432 704.992 12.7031C704.432 13.263 703.755 13.543 702.961 13.543H690.48H689.836ZM705.52 0.75C707.342 0.75 709.003 1.19922 710.5 2.09766C712.01 2.98307 713.208 4.18099 714.094 5.69141C714.992 7.1888 715.441 8.84896 715.441 10.6719C715.441 12.6641 714.914 14.4544 713.859 16.043C712.818 17.6315 711.438 18.8359 709.719 19.6562L715.441 27H704.562L699.621 20.5938H690.48V27H680.227V0.75H705.52ZM690.48 12.918H702.961C703.573 12.918 704.1 12.6966 704.543 12.2539C704.986 11.8112 705.207 11.2839 705.207 10.6719C705.207 10.0469 704.986 9.51953 704.543 9.08984C704.1 8.64714 703.573 8.42578 702.961 8.42578H690.48V12.918ZM728.859 0.75V27H718.625V0.75H728.859ZM728.234 1.39453H719.27V26.3555H728.234V1.39453ZM766.672 0.75V9.07031H754.504V27H744.27V9.07031H732.102V0.75H766.672ZM766.027 1.39453H732.746V8.42578H744.27H744.895V9.07031V26.3555H753.859V9.07031V8.42578H754.504H766.027V1.39453ZM780.383 0.75V27H770.148V0.75H780.383ZM779.758 1.39453H770.793V26.3555H779.758V1.39453ZM823.625 0.75L810.012 13.875L823.625 27H810.168L800.559 18.0352H796.086V27H785.852V0.75H796.086V9.71484H800.559L810.168 0.75H823.625ZM822.043 1.39453H810.422L800.988 10.1836L800.793 10.3594H800.559H796.086H795.461V9.71484V1.39453H786.496V26.3555H795.461V18.0352V17.3906H796.086H800.559H800.793L800.988 17.5664L810.422 26.3555H822.043L809.562 14.3438L809.094 13.875L809.562 13.4062L822.043 1.39453ZM855.871 0.75V7.46875H835.383V10.8281H855.871V16.9219H835.383V20.2812H855.871V27H825.148V0.75H855.871ZM855.227 1.39453H825.793V26.3555H855.227V20.9258H835.383H834.758V20.2812V16.9219V16.2773H835.383H855.227V11.4727H835.383H834.758V10.8281V7.46875V6.82422H835.383H855.227V1.39453ZM896.359 0.75L881.633 18.0352V27H871.398V18.0352L856.672 0.75H868.84L876.516 10.1836L884.191 0.75H896.359ZM894.973 1.39453H884.504L877.004 10.5938L876.516 11.1992L876.027 10.5938L868.527 1.39453H858.059L871.887 17.625L872.043 17.8008V18.0352V26.3555H880.988V18.0352V17.8008L881.145 17.625L894.973 1.39453ZM927.863 0.75V7.46875H907.375V10.8281H927.863V16.9219H907.375V20.2812H927.863V27H897.141V0.75H927.863ZM927.219 1.39453H897.785V26.3555H927.219V20.9258H907.375H906.75V20.2812V16.9219V16.2773H907.375H927.219V11.4727H907.375H906.75V10.8281V7.46875V6.82422H907.375H927.219V1.39453ZM976.965 10.0469V17.7227H946.242V10.0469H976.965ZM976.32 10.6914H946.887V17.0781H976.32V10.6914ZM1013.27 0.730469C1007.93 0.730469 1003.82 1.59635 1000.93 3.32812C999.341 4.29167 998.137 5.52214 997.316 7.01953C996.431 8.66016 995.988 10.6198 995.988 12.8984V14.8125C995.988 17.0911 996.431 19.0508 997.316 20.6914C998.137 22.1888 999.341 23.4193 1000.93 24.3828C1003.82 26.1146 1007.93 26.9805 1013.27 26.9805C1018.36 26.9805 1022.34 26.1927 1025.19 24.6172C1026.76 23.7578 1027.99 22.651 1028.86 21.2969C1029.69 20.0078 1030.22 18.4909 1030.44 16.7461H1021.09C1020.63 17.6706 1019.98 18.3672 1019.13 18.8359C1018.29 19.2917 1017.34 19.5911 1016.3 19.7344C1015.27 19.8646 1014.26 19.9297 1013.27 19.9297C1010.68 19.9297 1008.77 19.5846 1007.53 18.8945C1005.81 17.957 1004.95 16.3815 1004.95 14.168V13.543C1004.95 11.3294 1005.81 9.75391 1007.53 8.81641C1008.77 8.1263 1010.68 7.78125 1013.27 7.78125C1014.26 7.78125 1015.27 7.85286 1016.3 7.99609C1017.34 8.1263 1018.29 8.42578 1019.13 8.89453C1019.98 9.35026 1020.63 10.0469 1021.09 10.9844H1030.44C1030.22 9.22656 1029.69 7.70312 1028.86 6.41406C1027.99 5.0599 1026.76 3.95312 1025.19 3.09375C1022.34 1.51823 1018.36 0.730469 1013.27 0.730469ZM1013.27 0.0859375C1015.64 0.0859375 1017.87 0.27474 1019.95 0.652344C1022.04 1.02995 1023.89 1.65495 1025.5 2.52734C1027.11 3.39974 1028.41 4.58464 1029.39 6.08203C1030.38 7.56641 1030.96 9.40885 1031.14 11.6094H1020.66C1020.33 10.75 1019.81 10.0924 1019.09 9.63672C1018.39 9.16797 1017.54 8.84896 1016.54 8.67969C1015.53 8.4974 1014.45 8.40625 1013.27 8.40625C1011.85 8.40625 1010.57 8.54297 1009.41 8.81641C1008.25 9.07682 1007.32 9.57812 1006.63 10.3203C1005.94 11.0495 1005.6 12.1237 1005.6 13.543V14.168C1005.6 15.5872 1005.94 16.668 1006.63 17.4102C1007.32 18.1393 1008.25 18.6406 1009.41 18.9141C1010.57 19.1745 1011.85 19.3047 1013.27 19.3047C1014.45 19.3047 1015.53 19.2201 1016.54 19.0508C1017.54 18.8685 1018.39 18.5495 1019.09 18.0938C1019.81 17.625 1020.33 16.9609 1020.66 16.1016H1031.14C1030.96 18.3021 1030.38 20.151 1029.39 21.6484C1028.41 23.1328 1027.11 24.3112 1025.5 25.1836C1023.89 26.056 1022.04 26.681 1019.95 27.0586C1017.87 27.4362 1015.64 27.625 1013.27 27.625C1010.8 27.625 1008.48 27.4167 1006.3 27C1004.14 26.5964 1002.24 25.9128 1000.6 24.9492C998.957 23.9727 997.668 22.6576 996.73 21.0039C995.806 19.3503 995.344 17.2865 995.344 14.8125V12.8984C995.344 10.4245 995.806 8.36719 996.73 6.72656C997.668 5.07292 998.957 3.75781 1000.6 2.78125C1002.24 1.80469 1004.14 1.11458 1006.3 0.710938C1008.48 0.294271 1010.8 0.0859375 1013.27 0.0859375ZM1059.5 1.39453H1034.86V26.3555H1043.82V20.5938V19.9492H1044.46H1053.61H1053.92L1054.11 20.2031L1058.86 26.3555H1068.12L1063.21 20.0469L1062.71 19.4023L1063.45 19.0703C1065.09 18.276 1066.39 17.1237 1067.34 15.6133C1068.3 14.1029 1068.78 12.4557 1068.78 10.6719C1068.78 8.96615 1068.36 7.41016 1067.53 6.00391C1066.7 4.59766 1065.58 3.47786 1064.17 2.64453C1062.77 1.8112 1061.21 1.39453 1059.5 1.39453ZM1043.82 13.543V12.918V8.42578V7.78125H1044.46H1056.95C1057.74 7.78125 1058.42 8.06771 1058.98 8.64062C1059.54 9.20052 1059.82 9.8776 1059.82 10.6719C1059.82 11.4661 1059.54 12.1432 1058.98 12.7031C1058.42 13.263 1057.74 13.543 1056.95 13.543H1044.46H1043.82ZM1059.5 0.75C1061.33 0.75 1062.99 1.19922 1064.48 2.09766C1065.99 2.98307 1067.19 4.18099 1068.08 5.69141C1068.98 7.1888 1069.43 8.84896 1069.43 10.6719C1069.43 12.6641 1068.9 14.4544 1067.84 16.043C1066.8 17.6315 1065.42 18.8359 1063.7 19.6562L1069.43 27H1058.55L1053.61 20.5938H1044.46V27H1034.21V0.75H1059.5ZM1044.46 12.918H1056.95C1057.56 12.918 1058.08 12.6966 1058.53 12.2539C1058.97 11.8112 1059.19 11.2839 1059.19 10.6719C1059.19 10.0469 1058.97 9.51953 1058.53 9.08984C1058.08 8.64714 1057.56 8.42578 1056.95 8.42578H1044.46V12.918ZM1082.84 0.75V27H1072.61V0.75H1082.84ZM1082.22 1.39453H1073.25V26.3555H1082.22V1.39453ZM1120.66 0.75V9.07031H1108.49V27H1098.25V9.07031H1086.09V0.75H1120.66ZM1120.01 1.39453H1086.73V8.42578H1098.25H1098.88V9.07031V26.3555H1107.84V9.07031V8.42578H1108.49H1120.01V1.39453ZM1134.37 0.75V27H1124.13V0.75H1134.37ZM1133.74 1.39453H1124.78V26.3555H1133.74V1.39453ZM1177.61 0.75L1164 13.875L1177.61 27H1164.15L1154.54 18.0352H1150.07V27H1139.84V0.75H1150.07V9.71484H1154.54L1164.15 0.75H1177.61ZM1176.03 1.39453H1164.41L1154.97 10.1836L1154.78 10.3594H1154.54H1150.07H1149.45V9.71484V1.39453H1140.48V26.3555H1149.45V18.0352V17.3906H1150.07H1154.54H1154.78L1154.97 17.5664L1164.41 26.3555H1176.03L1163.55 14.3438L1163.08 13.875L1163.55 13.4062L1176.03 1.39453ZM1209.86 0.75V7.46875H1189.37V10.8281H1209.86V16.9219H1189.37V20.2812H1209.86V27H1179.13V0.75H1209.86ZM1209.21 1.39453H1179.78V26.3555H1209.21V20.9258H1189.37H1188.74V20.2812V16.9219V16.2773H1189.37H1209.21V11.4727H1189.37H1188.74V10.8281V7.46875V6.82422H1189.37H1209.21V1.39453ZM1250.34 0.75L1235.62 18.0352V27H1225.38V18.0352L1210.66 0.75H1222.82L1230.5 10.1836L1238.18 0.75H1250.34ZM1248.96 1.39453H1238.49L1230.99 10.5938L1230.5 11.1992L1230.01 10.5938L1222.51 1.39453H1212.04L1225.87 17.625L1226.03 17.8008V18.0352V26.3555H1234.97V18.0352V17.8008L1235.13 17.625L1248.96 1.39453ZM1281.85 0.75V7.46875H1261.36V10.8281H1281.85V16.9219H1261.36V20.2812H1281.85V27H1251.12V0.75H1281.85ZM1281.2 1.39453H1251.77V26.3555H1281.2V20.9258H1261.36H1260.73V20.2812V16.9219V16.2773H1261.36H1281.2V11.4727H1261.36H1260.73V10.8281V7.46875V6.82422H1261.36H1281.2V1.39453ZM1330.95 10.0469V17.7227H1300.23V10.0469H1330.95ZM1330.3 10.6914H1300.87V17.0781H1330.3V10.6914ZM1367.26 0.730469C1361.92 0.730469 1357.8 1.59635 1354.91 3.32812C1353.33 4.29167 1352.12 5.52214 1351.3 7.01953C1350.42 8.66016 1349.97 10.6198 1349.97 12.8984V14.8125C1349.97 17.0911 1350.42 19.0508 1351.3 20.6914C1352.12 22.1888 1353.33 23.4193 1354.91 24.3828C1357.8 26.1146 1361.92 26.9805 1367.26 26.9805C1372.35 26.9805 1376.32 26.1927 1379.17 24.6172C1380.75 23.7578 1381.97 22.651 1382.84 21.2969C1383.68 20.0078 1384.2 18.4909 1384.43 16.7461H1375.07C1374.61 17.6706 1373.96 18.3672 1373.12 18.8359C1372.27 19.2917 1371.33 19.5911 1370.29 19.7344C1369.26 19.8646 1368.25 19.9297 1367.26 19.9297C1364.67 19.9297 1362.75 19.5846 1361.52 18.8945C1359.8 17.957 1358.94 16.3815 1358.94 14.168V13.543C1358.94 11.3294 1359.8 9.75391 1361.52 8.81641C1362.75 8.1263 1364.67 7.78125 1367.26 7.78125C1368.25 7.78125 1369.26 7.85286 1370.29 7.99609C1371.33 8.1263 1372.27 8.42578 1373.12 8.89453C1373.96 9.35026 1374.61 10.0469 1375.07 10.9844H1384.43C1384.2 9.22656 1383.68 7.70312 1382.84 6.41406C1381.97 5.0599 1380.75 3.95312 1379.17 3.09375C1376.32 1.51823 1372.35 0.730469 1367.26 0.730469ZM1367.26 0.0859375C1369.63 0.0859375 1371.85 0.27474 1373.94 0.652344C1376.02 1.02995 1377.87 1.65495 1379.48 2.52734C1381.1 3.39974 1382.39 4.58464 1383.37 6.08203C1384.36 7.56641 1384.95 9.40885 1385.13 11.6094H1374.64C1374.32 10.75 1373.79 10.0924 1373.08 9.63672C1372.38 9.16797 1371.52 8.84896 1370.52 8.67969C1369.52 8.4974 1368.43 8.40625 1367.26 8.40625C1365.84 8.40625 1364.55 8.54297 1363.39 8.81641C1362.23 9.07682 1361.31 9.57812 1360.62 10.3203C1359.93 11.0495 1359.58 12.1237 1359.58 13.543V14.168C1359.58 15.5872 1359.93 16.668 1360.62 17.4102C1361.31 18.1393 1362.23 18.6406 1363.39 18.9141C1364.55 19.1745 1365.84 19.3047 1367.26 19.3047C1368.43 19.3047 1369.52 19.2201 1370.52 19.0508C1371.52 18.8685 1372.38 18.5495 1373.08 18.0938C1373.79 17.625 1374.32 16.9609 1374.64 16.1016H1385.13C1384.95 18.3021 1384.36 20.151 1383.37 21.6484C1382.39 23.1328 1381.1 24.3112 1379.48 25.1836C1377.87 26.056 1376.02 26.681 1373.94 27.0586C1371.85 27.4362 1369.63 27.625 1367.26 27.625C1364.78 27.625 1362.46 27.4167 1360.29 27C1358.12 26.5964 1356.22 25.9128 1354.58 24.9492C1352.94 23.9727 1351.65 22.6576 1350.71 21.0039C1349.79 19.3503 1349.33 17.2865 1349.33 14.8125V12.8984C1349.33 10.4245 1349.79 8.36719 1350.71 6.72656C1351.65 5.07292 1352.94 3.75781 1354.58 2.78125C1356.22 1.80469 1358.12 1.11458 1360.29 0.710938C1362.46 0.294271 1364.78 0.0859375 1367.26 0.0859375ZM1413.49 1.39453H1388.84V26.3555H1397.8V20.5938V19.9492H1398.45H1407.59H1407.9L1408.1 20.2031L1412.84 26.3555H1422.1L1417.2 20.0469L1416.69 19.4023L1417.43 19.0703C1419.07 18.276 1420.37 17.1237 1421.32 15.6133C1422.28 14.1029 1422.77 12.4557 1422.77 10.6719C1422.77 8.96615 1422.35 7.41016 1421.52 6.00391C1420.68 4.59766 1419.56 3.47786 1418.16 2.64453C1416.75 1.8112 1415.19 1.39453 1413.49 1.39453ZM1397.8 13.543V12.918V8.42578V7.78125H1398.45H1410.93C1411.72 7.78125 1412.4 8.06771 1412.96 8.64062C1413.52 9.20052 1413.8 9.8776 1413.8 10.6719C1413.8 11.4661 1413.52 12.1432 1412.96 12.7031C1412.4 13.263 1411.72 13.543 1410.93 13.543H1398.45H1397.8ZM1413.49 0.75C1415.31 0.75 1416.97 1.19922 1418.47 2.09766C1419.98 2.98307 1421.18 4.18099 1422.06 5.69141C1422.96 7.1888 1423.41 8.84896 1423.41 10.6719C1423.41 12.6641 1422.88 14.4544 1421.83 16.043C1420.79 17.6315 1419.41 18.8359 1417.69 19.6562L1423.41 27H1412.53L1407.59 20.5938H1398.45V27H1388.2V0.75H1413.49ZM1398.45 12.918H1410.93C1411.54 12.918 1412.07 12.6966 1412.51 12.2539C1412.95 11.8112 1413.18 11.2839 1413.18 10.6719C1413.18 10.0469 1412.95 9.51953 1412.51 9.08984C1412.07 8.64714 1411.54 8.42578 1410.93 8.42578H1398.45V12.918ZM1436.83 0.75V27H1426.59V0.75H1436.83ZM1436.2 1.39453H1427.24V26.3555H1436.2V1.39453ZM1474.64 0.75V9.07031H1462.47V27H1452.24V9.07031H1440.07V0.75H1474.64ZM1474 1.39453H1440.71V8.42578H1452.24H1452.86V9.07031V26.3555H1461.83V9.07031V8.42578H1462.47H1474V1.39453ZM1488.35 0.75V27H1478.12V0.75H1488.35ZM1487.73 1.39453H1478.76V26.3555H1487.73V1.39453ZM1531.59 0.75L1517.98 13.875L1531.59 27H1518.14L1508.53 18.0352H1504.05V27H1493.82V0.75H1504.05V9.71484H1508.53L1518.14 0.75H1531.59ZM1530.01 1.39453H1518.39L1508.96 10.1836L1508.76 10.3594H1508.53H1504.05H1503.43V9.71484V1.39453H1494.46V26.3555H1503.43V18.0352V17.3906H1504.05H1508.53H1508.76L1508.96 17.5664L1518.39 26.3555H1530.01L1517.53 14.3438L1517.06 13.875L1517.53 13.4062L1530.01 1.39453ZM1563.84 0.75V7.46875H1543.35V10.8281H1563.84V16.9219H1543.35V20.2812H1563.84V27H1533.12V0.75H1563.84ZM1563.2 1.39453H1533.76V26.3555H1563.2V20.9258H1543.35H1542.73V20.2812V16.9219V16.2773H1543.35H1563.2V11.4727H1543.35H1542.73V10.8281V7.46875V6.82422H1543.35H1563.2V1.39453ZM1604.33 0.75L1589.6 18.0352V27H1579.37V18.0352L1564.64 0.75H1576.81L1584.48 10.1836L1592.16 0.75H1604.33ZM1602.94 1.39453H1592.47L1584.97 10.5938L1584.48 11.1992L1584 10.5938L1576.5 1.39453H1566.03L1579.86 17.625L1580.01 17.8008V18.0352V26.3555H1588.96V18.0352V17.8008L1589.11 17.625L1602.94 1.39453ZM1635.83 0.75V7.46875H1615.34V10.8281H1635.83V16.9219H1615.34V20.2812H1635.83V27H1605.11V0.75H1635.83ZM1635.19 1.39453H1605.75V26.3555H1635.19V20.9258H1615.34H1614.72V20.2812V16.9219V16.2773H1615.34H1635.19V11.4727H1615.34H1614.72V10.8281V7.46875V6.82422H1615.34H1635.19V1.39453Z" fill="#00FFC2"/>
</svg>
