<svg width="269" height="89" viewBox="0 0 269 89" fill="none" xmlns="http://www.w3.org/2000/svg">
<path d="M22.3516 26.9092C23.0391 26.9092 23.9609 26.8779 25.1172 26.8154C26.2891 26.7373 27.5078 26.5186 28.7734 26.1592C30.0391 25.7842 31.1953 25.1748 32.2422 24.3311C33.2891 23.4873 34.0547 22.3076 34.5391 20.792H44.3594C43.7812 25.0889 41.6719 28.3467 38.0312 30.5654C34.3906 32.7686 29.1641 33.8701 22.3516 33.8701C14.8984 33.8701 9.33594 32.542 5.66406 29.8857C2.00781 27.2295 0.179688 23.3389 0.179688 18.2139V16.4795C0.179688 11.3545 2.00781 7.46387 5.66406 4.80762C9.33594 2.15137 14.8984 0.823242 22.3516 0.823242C29.1641 0.823242 34.3906 1.93262 38.0312 4.15137C41.6719 6.35449 43.7812 9.59668 44.3594 13.8779H34.5391C34.0547 12.3779 33.2891 11.2061 32.2422 10.3623C31.1953 9.51855 30.0391 8.91699 28.7734 8.55762C27.5078 8.18262 26.2891 7.96387 25.1172 7.90137C23.9609 7.82324 23.0391 7.78418 22.3516 7.78418C21.7266 7.78418 20.8906 7.81543 19.8438 7.87793C18.8125 7.9248 17.7188 8.08887 16.5625 8.37012C15.4062 8.65137 14.3125 9.1123 13.2812 9.75293C12.25 10.3936 11.3984 11.292 10.7266 12.4482C10.0703 13.5889 9.74219 15.0732 9.74219 16.9014V17.7686C9.74219 19.5967 10.0703 21.0889 10.7266 22.2451C11.3984 23.3857 12.25 24.2842 13.2812 24.9404C14.3125 25.5811 15.4062 26.042 16.5625 26.3232C17.7188 26.6045 18.8125 26.7764 19.8438 26.8389C20.8906 26.8857 21.7266 26.9092 22.3516 26.9092ZM91.3984 18.2373C91.3984 23.3467 89.5625 27.2295 85.8906 29.8857C82.2344 32.542 76.6797 33.8701 69.2266 33.8701C61.7578 33.8701 56.1953 32.542 52.5391 29.8857C48.8828 27.2295 47.0547 23.3467 47.0547 18.2373V16.5029C47.0547 11.3779 48.8828 7.4873 52.5391 4.83105C56.1953 2.1748 61.7578 0.84668 69.2266 0.84668C76.6797 0.84668 82.2344 2.1748 85.8906 4.83105C89.5625 7.4873 91.3984 11.3779 91.3984 16.5029V18.2373ZM56.6172 17.792C56.6172 19.6201 56.9453 21.1123 57.6016 22.2686C58.2734 23.4092 59.125 24.3076 60.1562 24.9639C61.1875 25.6045 62.2812 26.0654 63.4375 26.3467C64.5938 26.6279 65.6875 26.7998 66.7188 26.8623C67.7656 26.9092 68.6016 26.9326 69.2266 26.9326C69.8516 26.9326 70.6797 26.9092 71.7109 26.8623C72.7422 26.7998 73.8359 26.6279 74.9922 26.3467C76.1641 26.0654 77.2656 25.6045 78.2969 24.9639C79.3281 24.3076 80.1719 23.4092 80.8281 22.2686C81.5 21.1123 81.8359 19.6201 81.8359 17.792V16.9248C81.8359 15.0967 81.5 13.6123 80.8281 12.4717C80.1719 11.3154 79.3281 10.417 78.2969 9.77637C77.2656 9.13574 76.1641 8.6748 74.9922 8.39355C73.8359 8.1123 72.7422 7.94824 71.7109 7.90137C70.6797 7.83887 69.8516 7.80762 69.2266 7.80762C68.6016 7.80762 67.7656 7.83887 66.7188 7.90137C65.6875 7.94824 64.5938 8.1123 63.4375 8.39355C62.2812 8.6748 61.1875 9.13574 60.1562 9.77637C59.125 10.417 58.2734 11.3154 57.6016 12.4717C56.9453 13.6123 56.6172 15.0967 56.6172 16.9248V17.792ZM139.516 1.62012H153.766V33.1201H144.133V9.47168L126.836 33.1201H122.055L104.758 9.47168V33.1201H95.1484V1.62012H109.398L124.445 20.9326L139.516 1.62012ZM160.82 1.62012H170.43V33.1201H160.82V1.62012ZM220.914 33.1201H208.328L185.898 8.01855V33.1201H176.289V1.62012H192.32L211.281 23.6514V1.62012H220.914V33.1201ZM246.883 16.0342H261.391H268.797V33.0029H263.57L263.008 28.5029C259.539 32.0811 254.258 33.8701 247.164 33.8701C239.695 33.8701 234.133 32.542 230.477 29.8857C226.82 27.2295 224.992 23.3389 224.992 18.2139V16.4795C224.992 11.3545 226.82 7.46387 230.477 4.80762C234.133 2.15137 239.695 0.823242 247.164 0.823242C253.477 0.823242 258.422 1.78418 262 3.70605C265.594 5.6123 267.859 8.41699 268.797 12.1201H258.555C257.867 11.0576 257.008 10.2295 255.977 9.63574C254.961 9.02637 253.891 8.59668 252.766 8.34668C251.641 8.08105 250.578 7.9248 249.578 7.87793C248.578 7.81543 247.773 7.78418 247.164 7.78418C246.539 7.78418 245.703 7.81543 244.656 7.87793C243.625 7.9248 242.531 8.08887 241.375 8.37012C240.219 8.65137 239.125 9.1123 238.094 9.75293C237.062 10.3936 236.211 11.292 235.539 12.4482C234.883 13.6045 234.555 15.0889 234.555 16.9014V17.792C234.555 19.6045 234.883 21.0889 235.539 22.2451C236.211 23.4014 237.062 24.2998 238.094 24.9404C239.125 25.5811 240.219 26.042 241.375 26.3232C242.531 26.6045 243.625 26.7764 244.656 26.8389C245.703 26.8857 246.539 26.9092 247.164 26.9092C247.82 26.9092 248.711 26.8779 249.836 26.8154C250.961 26.7373 252.133 26.5342 253.352 26.2061C254.586 25.8623 255.727 25.2998 256.773 24.5186C257.82 23.7373 258.617 22.6514 259.164 21.2607H246.883V16.0342ZM85.2344 78.4404C85.2344 78.8623 85.1953 79.417 85.1172 80.1045C85.0391 80.7764 84.8047 81.5029 84.4141 82.2842C84.0234 83.0654 83.375 83.8467 82.4688 84.6279C81.5781 85.3936 80.3203 86.0967 78.6953 86.7373C77.0859 87.3779 75.0156 87.8936 72.4844 88.2842C69.9688 88.6748 66.875 88.8701 63.2031 88.8701C60.25 88.8701 57.4531 88.7295 54.8125 88.4482C52.1719 88.167 49.8359 87.6748 47.8047 86.9717C45.7734 86.2686 44.1719 85.2998 43 84.0654C41.8438 82.8154 41.2656 81.2295 41.2656 79.3076H52C52 80.0889 52.2656 80.7295 52.7969 81.2295C53.3281 81.7139 54.0156 82.0967 54.8594 82.3779C55.7188 82.6436 56.6484 82.8389 57.6484 82.9639C58.6484 83.0889 59.6328 83.167 60.6016 83.1982C61.5859 83.2139 62.4531 83.2217 63.2031 83.2217C65.6562 83.2217 67.6484 83.0967 69.1797 82.8467C70.7266 82.5811 71.9219 82.2295 72.7656 81.792C73.625 81.3545 74.2109 80.8467 74.5234 80.2686C74.8516 79.6904 75.0156 79.0811 75.0156 78.4404C75.0156 77.5654 74.5312 76.9092 73.5625 76.4717C72.6094 76.0342 71.2422 75.7217 69.4609 75.5342C67.6797 75.3311 65.5391 75.1748 63.0391 75.0654C62.3672 75.0342 61.7031 75.0029 61.0469 74.9717C58.9062 74.8779 56.8516 74.7607 54.8828 74.6201C52.9141 74.4795 51.1016 74.2529 49.4453 73.9404C47.7891 73.6123 46.3438 73.1436 45.1094 72.5342C43.875 71.9248 42.9141 71.1201 42.2266 70.1201C41.5391 69.1045 41.1953 67.8154 41.1953 66.2529C41.1953 65.8311 41.2344 65.2842 41.3125 64.6123C41.3906 63.9248 41.625 63.1904 42.0156 62.4092C42.4062 61.6279 43.0469 60.8545 43.9375 60.0889C44.8438 59.3076 46.1016 58.5967 47.7109 57.9561C49.3359 57.3154 51.4062 56.7998 53.9219 56.4092C56.4531 56.0186 59.5469 55.8232 63.2031 55.8232C66.1719 55.8232 68.9766 55.9639 71.6172 56.2451C74.2578 56.5264 76.5859 57.0186 78.6016 57.7217C80.6328 58.4248 82.2344 59.4014 83.4062 60.6514C84.5781 61.8857 85.1641 63.4639 85.1641 65.3857H74.4062C74.4062 64.6045 74.1406 63.9717 73.6094 63.4873C73.0938 62.9873 72.4062 62.5967 71.5469 62.3154C70.7031 62.0342 69.7812 61.8389 68.7812 61.7295C67.7812 61.6045 66.7891 61.5342 65.8047 61.5186C64.8203 61.4873 63.9531 61.4717 63.2031 61.4717C60.7656 61.4717 58.7734 61.6045 57.2266 61.8701C55.6953 62.1201 54.5 62.4639 53.6406 62.9014C52.7969 63.3389 52.2109 63.8467 51.8828 64.4248C51.5703 65.0029 51.4141 65.6123 51.4141 66.2529C51.4141 67.1279 51.8906 67.7842 52.8438 68.2217C53.8125 68.6592 55.1875 68.9717 56.9688 69.1592C58.75 69.3467 60.8906 69.4951 63.3906 69.6045C64.0625 69.6514 64.7266 69.6826 65.3828 69.6982C67.5234 69.792 69.5781 69.917 71.5469 70.0732C73.5156 70.2139 75.3281 70.4404 76.9844 70.7529C78.6406 71.0654 80.0859 71.5264 81.3203 72.1357C82.5547 72.7451 83.5156 73.5576 84.2031 74.5732C84.8906 75.5889 85.2344 76.8779 85.2344 78.4404ZM131.805 73.2373C131.805 78.3467 129.969 82.2295 126.297 84.8857C122.641 87.542 117.086 88.8701 109.633 88.8701C102.164 88.8701 96.6016 87.542 92.9453 84.8857C89.2891 82.2295 87.4609 78.3467 87.4609 73.2373V71.5029C87.4609 66.3779 89.2891 62.4873 92.9453 59.8311C96.6016 57.1748 102.164 55.8467 109.633 55.8467C117.086 55.8467 122.641 57.1748 126.297 59.8311C129.969 62.4873 131.805 66.3779 131.805 71.5029V73.2373ZM97.0234 72.792C97.0234 74.6201 97.3516 76.1123 98.0078 77.2686C98.6797 78.4092 99.5312 79.3076 100.562 79.9639C101.594 80.6045 102.688 81.0654 103.844 81.3467C105 81.6279 106.094 81.7998 107.125 81.8623C108.172 81.9092 109.008 81.9326 109.633 81.9326C110.258 81.9326 111.086 81.9092 112.117 81.8623C113.148 81.7998 114.242 81.6279 115.398 81.3467C116.57 81.0654 117.672 80.6045 118.703 79.9639C119.734 79.3076 120.578 78.4092 121.234 77.2686C121.906 76.1123 122.242 74.6201 122.242 72.792V71.9248C122.242 70.0967 121.906 68.6123 121.234 67.4717C120.578 66.3154 119.734 65.417 118.703 64.7764C117.672 64.1357 116.57 63.6748 115.398 63.3936C114.242 63.1123 113.148 62.9482 112.117 62.9014C111.086 62.8389 110.258 62.8076 109.633 62.8076C109.008 62.8076 108.172 62.8389 107.125 62.9014C106.094 62.9482 105 63.1123 103.844 63.3936C102.688 63.6748 101.594 64.1357 100.562 64.7764C99.5312 65.417 98.6797 66.3154 98.0078 67.4717C97.3516 68.6123 97.0234 70.0967 97.0234 71.9248V72.792ZM179.43 73.2373C179.43 78.3467 177.594 82.2295 173.922 84.8857C170.266 87.542 164.711 88.8701 157.258 88.8701C149.789 88.8701 144.227 87.542 140.57 84.8857C136.914 82.2295 135.086 78.3467 135.086 73.2373V71.5029C135.086 66.3779 136.914 62.4873 140.57 59.8311C144.227 57.1748 149.789 55.8467 157.258 55.8467C164.711 55.8467 170.266 57.1748 173.922 59.8311C177.594 62.4873 179.43 66.3779 179.43 71.5029V73.2373ZM144.648 72.792C144.648 74.6201 144.977 76.1123 145.633 77.2686C146.305 78.4092 147.156 79.3076 148.188 79.9639C149.219 80.6045 150.312 81.0654 151.469 81.3467C152.625 81.6279 153.719 81.7998 154.75 81.8623C155.797 81.9092 156.633 81.9326 157.258 81.9326C157.883 81.9326 158.711 81.9092 159.742 81.8623C160.773 81.7998 161.867 81.6279 163.023 81.3467C164.195 81.0654 165.297 80.6045 166.328 79.9639C167.359 79.3076 168.203 78.4092 168.859 77.2686C169.531 76.1123 169.867 74.6201 169.867 72.792V71.9248C169.867 70.0967 169.531 68.6123 168.859 67.4717C168.203 66.3154 167.359 65.417 166.328 64.7764C165.297 64.1357 164.195 63.6748 163.023 63.3936C161.867 63.1123 160.773 62.9482 159.742 62.9014C158.711 62.8389 157.883 62.8076 157.258 62.8076C156.633 62.8076 155.797 62.8389 154.75 62.9014C153.719 62.9482 152.625 63.1123 151.469 63.3936C150.312 63.6748 149.219 64.1357 148.188 64.7764C147.156 65.417 146.305 66.3154 145.633 67.4717C144.977 68.6123 144.648 70.0967 144.648 71.9248V72.792ZM227.805 88.1201H215.219L192.789 63.0186V88.1201H183.18V56.6201H199.211L218.172 78.6514V56.6201H227.805V88.1201Z" fill="white"/>
</svg>
