<svg width="215" height="40" viewBox="0 0 215 40" fill="none" xmlns="http://www.w3.org/2000/svg">
<path d="M13.9893 35.1182C14.4189 35.1182 14.9951 35.0986 15.7178 35.0596C16.4502 35.0107 17.2119 34.874 18.0029 34.6494C18.7939 34.415 19.5166 34.0342 20.1709 33.5068C20.8252 32.9795 21.3037 32.2422 21.6064 31.2949H27.7441C27.3828 33.9805 26.0645 36.0166 23.7891 37.4033C21.5137 38.7803 18.2471 39.4688 13.9893 39.4688C9.33105 39.4688 5.85449 38.6387 3.55957 36.9785C1.27441 35.3184 0.131836 32.8867 0.131836 29.6836V28.5996C0.131836 25.3965 1.27441 22.9648 3.55957 21.3047C5.85449 19.6445 9.33105 18.8145 13.9893 18.8145C18.2471 18.8145 21.5137 19.5078 23.7891 20.8945C26.0645 22.2715 27.3828 24.2979 27.7441 26.9736H21.6064C21.3037 26.0361 20.8252 25.3037 20.1709 24.7764C19.5166 24.249 18.7939 23.873 18.0029 23.6484C17.2119 23.4141 16.4502 23.2773 15.7178 23.2383C14.9951 23.1895 14.4189 23.165 13.9893 23.165C13.5986 23.165 13.0762 23.1846 12.4219 23.2236C11.7773 23.2529 11.0938 23.3555 10.3711 23.5312C9.64844 23.707 8.96484 23.9951 8.32031 24.3955C7.67578 24.7959 7.14355 25.3574 6.72363 26.0801C6.31348 26.793 6.1084 27.7207 6.1084 28.8633V29.4053C6.1084 30.5479 6.31348 31.4805 6.72363 32.2031C7.14355 32.916 7.67578 33.4775 8.32031 33.8877C8.96484 34.2881 9.64844 34.5762 10.3711 34.752C11.0938 34.9277 11.7773 35.0352 12.4219 35.0742C13.0762 35.1035 13.5986 35.1182 13.9893 35.1182ZM57.1436 29.6982C57.1436 32.8916 55.9961 35.3184 53.7012 36.9785C51.416 38.6387 47.9443 39.4688 43.2861 39.4688C38.6182 39.4688 35.1416 38.6387 32.8564 36.9785C30.5713 35.3184 29.4287 32.8916 29.4287 29.6982V28.6143C29.4287 25.4111 30.5713 22.9795 32.8564 21.3193C35.1416 19.6592 38.6182 18.8291 43.2861 18.8291C47.9443 18.8291 51.416 19.6592 53.7012 21.3193C55.9961 22.9795 57.1436 25.4111 57.1436 28.6143V29.6982ZM35.4053 29.4199C35.4053 30.5625 35.6104 31.4951 36.0205 32.2178C36.4404 32.9307 36.9727 33.4922 37.6172 33.9023C38.2617 34.3027 38.9453 34.5908 39.668 34.7666C40.3906 34.9424 41.0742 35.0498 41.7188 35.0889C42.373 35.1182 42.8955 35.1328 43.2861 35.1328C43.6768 35.1328 44.1943 35.1182 44.8389 35.0889C45.4834 35.0498 46.167 34.9424 46.8896 34.7666C47.6221 34.5908 48.3105 34.3027 48.9551 33.9023C49.5996 33.4922 50.127 32.9307 50.5371 32.2178C50.957 31.4951 51.167 30.5625 51.167 29.4199V28.8779C51.167 27.7354 50.957 26.8076 50.5371 26.0947C50.127 25.3721 49.5996 24.8105 48.9551 24.4102C48.3105 24.0098 47.6221 23.7217 46.8896 23.5459C46.167 23.3701 45.4834 23.2676 44.8389 23.2383C44.1943 23.1992 43.6768 23.1797 43.2861 23.1797C42.8955 23.1797 42.373 23.1992 41.7188 23.2383C41.0742 23.2676 40.3906 23.3701 39.668 23.5459C38.9453 23.7217 38.2617 24.0098 37.6172 24.4102C36.9727 24.8105 36.4404 25.3721 36.0205 26.0947C35.6104 26.8076 35.4053 27.7354 35.4053 28.8779V29.4199ZM87.3779 39H79.5117L65.4932 23.3115V39H59.4873V19.3125H69.5068L81.3574 33.082V19.3125H87.3779V39ZM116.426 19.3125V23.6924H106.04V39H100.02V23.6924H89.6338V19.3125H116.426ZM130.664 19.3125L141.226 39H134.546L132.48 34.8984H120.088L118.022 39H111.343L121.904 19.3125H130.664ZM130.474 30.8994L126.284 22.5205L122.08 30.8994H130.474ZM153.706 35.1182C154.136 35.1182 154.712 35.0986 155.435 35.0596C156.167 35.0107 156.929 34.874 157.72 34.6494C158.511 34.415 159.233 34.0342 159.888 33.5068C160.542 32.9795 161.021 32.2422 161.323 31.2949H167.461C167.1 33.9805 165.781 36.0166 163.506 37.4033C161.23 38.7803 157.964 39.4688 153.706 39.4688C149.048 39.4688 145.571 38.6387 143.276 36.9785C140.991 35.3184 139.849 32.8867 139.849 29.6836V28.5996C139.849 25.3965 140.991 22.9648 143.276 21.3047C145.571 19.6445 149.048 18.8145 153.706 18.8145C157.964 18.8145 161.23 19.5078 163.506 20.8945C165.781 22.2715 167.1 24.2979 167.461 26.9736H161.323C161.021 26.0361 160.542 25.3037 159.888 24.7764C159.233 24.249 158.511 23.873 157.72 23.6484C156.929 23.4141 156.167 23.2773 155.435 23.2383C154.712 23.1895 154.136 23.165 153.706 23.165C153.315 23.165 152.793 23.1846 152.139 23.2236C151.494 23.2529 150.811 23.3555 150.088 23.5312C149.365 23.707 148.682 23.9951 148.037 24.3955C147.393 24.7959 146.86 25.3574 146.44 26.0801C146.03 26.793 145.825 27.7207 145.825 28.8633V29.4053C145.825 30.5479 146.03 31.4805 146.44 32.2031C146.86 32.916 147.393 33.4775 148.037 33.8877C148.682 34.2881 149.365 34.5762 150.088 34.752C150.811 34.9277 151.494 35.0352 152.139 35.0742C152.793 35.1035 153.315 35.1182 153.706 35.1182ZM194.854 19.3125V23.6924H184.468V39H178.447V23.6924H168.062V19.3125H194.854Z" fill="white"/>
<path d="M213.559 8.60328L207.929 6.5619L205.881 0.92592C205.78 0.654147 205.599 0.419757 205.361 0.254238C205.123 0.0887189 204.84 0 204.55 0C204.26 0 203.977 0.0887189 203.739 0.254238C203.501 0.419757 203.319 0.654147 203.219 0.92592L201.177 6.55569L195.541 8.60328C195.269 8.70416 195.035 8.88579 194.869 9.12379C194.704 9.36178 194.615 9.64472 194.615 9.93462C194.615 10.2245 194.704 10.5075 194.869 10.7454C195.035 10.9834 195.269 11.1651 195.541 11.2659L201.171 13.3073L203.219 18.9433C203.319 19.2151 203.501 19.4495 203.739 19.615C203.977 19.7805 204.26 19.8692 204.55 19.8692C204.84 19.8692 205.123 19.7805 205.361 19.615C205.599 19.4495 205.78 19.2151 205.881 18.9433L207.929 13.3127L213.559 11.2659C213.83 11.1651 214.065 10.9834 214.23 10.7454C214.396 10.5075 214.484 10.2245 214.484 9.93462C214.484 9.64472 214.396 9.36178 214.23 9.12379C214.065 8.88579 213.83 8.70416 213.559 8.60328ZM207.441 11.976C207.246 12.047 207.07 12.1595 206.924 12.3057C206.777 12.452 206.665 12.6284 206.594 12.8227L204.55 18.4463L202.508 12.8254C202.438 12.6303 202.325 12.4532 202.178 12.3065C202.031 12.1597 201.854 12.0469 201.659 11.976L196.038 9.93462L201.659 7.89324C201.854 7.82232 202.031 7.70952 202.178 7.56277C202.325 7.41602 202.438 7.23889 202.508 7.04384L204.55 1.42295L206.591 7.04384C206.662 7.23813 206.775 7.41457 206.921 7.56082C207.067 7.70707 207.244 7.81962 207.438 7.89057L213.059 9.93195L207.441 11.976Z" fill="#00FFC2"/>
</svg>
