<svg width="381" height="28" viewBox="0 0 381 28" fill="none" xmlns="http://www.w3.org/2000/svg">
<path d="M18.1421 1.50732C12.937 1.50732 8.92529 2.35156 6.10693 4.04004C4.55811 4.97949 3.38379 6.1792 2.58398 7.63916C1.7207 9.23877 1.28906 11.1494 1.28906 13.3711V15.2373C1.28906 17.459 1.7207 19.3696 2.58398 20.9692C3.38379 22.4292 4.55811 23.6289 6.10693 24.5684C8.92529 26.2568 12.937 27.1011 18.1421 27.1011C23.106 27.1011 26.978 26.333 29.7583 24.7969C31.2944 23.959 32.4878 22.8799 33.3384 21.5596C34.1509 20.3027 34.665 18.8237 34.8809 17.1226H25.7593C25.3149 18.0239 24.6802 18.7031 23.855 19.1602C23.0298 19.6045 22.1094 19.8965 21.0938 20.0361C20.0908 20.1631 19.1069 20.2266 18.1421 20.2266C15.6157 20.2266 13.7495 19.8901 12.5435 19.2173C10.8677 18.3032 10.0298 16.7671 10.0298 14.6089V13.9995C10.0298 11.8413 10.8677 10.3052 12.5435 9.39111C13.7495 8.71826 15.6157 8.38184 18.1421 8.38184C19.1069 8.38184 20.0908 8.45166 21.0938 8.59131C22.1094 8.71826 23.0298 9.01025 23.855 9.46729C24.6802 9.91162 25.3149 10.5908 25.7593 11.5049H34.8809C34.665 9.79102 34.1509 8.30566 33.3384 7.04883C32.4878 5.72852 31.2944 4.64941 29.7583 3.81152C26.978 2.27539 23.106 1.50732 18.1421 1.50732ZM18.1421 0.878906C20.4526 0.878906 22.6235 1.06299 24.6548 1.43115C26.686 1.79932 28.4888 2.40869 30.063 3.25928C31.6372 4.10986 32.9004 5.26514 33.8525 6.7251C34.8174 8.17236 35.3887 9.96875 35.5664 12.1143H25.3403C25.0229 11.2764 24.5151 10.6353 23.8169 10.1909C23.1313 9.73389 22.2998 9.42285 21.3223 9.25781C20.3447 9.08008 19.2847 8.99121 18.1421 8.99121C16.7583 8.99121 15.5015 9.12451 14.3716 9.39111C13.2417 9.64502 12.3403 10.1338 11.6675 10.8574C10.9946 11.5684 10.6582 12.6157 10.6582 13.9995V14.6089C10.6582 15.9927 10.9946 17.0464 11.6675 17.77C12.3403 18.481 13.2417 18.9697 14.3716 19.2363C15.5015 19.4902 16.7583 19.6172 18.1421 19.6172C19.2847 19.6172 20.3447 19.5347 21.3223 19.3696C22.2998 19.1919 23.1313 18.8809 23.8169 18.4365C24.5151 17.9795 25.0229 17.332 25.3403 16.4941H35.5664C35.3887 18.6396 34.8174 20.4424 33.8525 21.9023C32.9004 23.3496 31.6372 24.4985 30.063 25.3491C28.4888 26.1997 26.686 26.8091 24.6548 27.1772C22.6235 27.5454 20.4526 27.7295 18.1421 27.7295C15.73 27.7295 13.4639 27.5264 11.3438 27.1201C9.23633 26.7266 7.38281 26.0601 5.7832 25.1206C4.18359 24.1685 2.92676 22.8862 2.0127 21.2739C1.11133 19.6616 0.660645 17.6494 0.660645 15.2373V13.3711C0.660645 10.959 1.11133 8.95312 2.0127 7.35352C2.92676 5.74121 4.18359 4.45898 5.7832 3.50684C7.38281 2.55469 9.23633 1.88184 11.3438 1.48828C13.4639 1.08203 15.73 0.878906 18.1421 0.878906ZM55.5425 1.50732C50.3247 1.50732 46.313 2.35156 43.5073 4.04004C41.9585 4.97949 40.7842 6.1792 39.9844 7.63916C39.1084 9.23877 38.6704 11.1494 38.6704 13.3711V15.2373C38.6704 17.459 39.1084 19.3696 39.9844 20.9692C40.7842 22.4292 41.9585 23.6289 43.5073 24.5684C46.313 26.2568 50.3247 27.1011 55.5425 27.1011C60.7476 27.1011 64.7593 26.2568 67.5776 24.5684C69.1138 23.6289 70.2881 22.4292 71.1006 20.9692C71.9639 19.3696 72.3955 17.459 72.3955 15.2373V13.3711C72.3955 11.1494 71.9639 9.23877 71.1006 7.63916C70.2881 6.1792 69.1138 4.97949 67.5776 4.04004C64.7593 2.35156 60.7476 1.50732 55.5425 1.50732ZM55.5425 20.2266C53.0161 20.2266 51.1499 19.8901 49.9438 19.2173C48.2554 18.3032 47.4111 16.7671 47.4111 14.6089V13.9995C47.4111 11.8413 48.2554 10.3052 49.9438 9.39111C51.1499 8.71826 53.0161 8.38184 55.5425 8.38184C58.0688 8.38184 59.9287 8.71826 61.1221 9.39111C62.8105 10.3052 63.6548 11.8413 63.6548 13.9995V14.6089C63.6548 16.7671 62.8105 18.3032 61.1221 19.2173C59.9287 19.8901 58.0688 20.2266 55.5425 20.2266ZM55.5425 0.878906C57.9546 0.878906 60.2144 1.08203 62.3218 1.48828C64.4419 1.88184 66.2954 2.55469 67.8823 3.50684C69.4819 4.45898 70.7324 5.74121 71.6338 7.35352C72.5479 8.95312 73.0049 10.959 73.0049 13.3711V15.2373C73.0049 17.6494 72.5479 19.6616 71.6338 21.2739C70.7324 22.8862 69.4819 24.1685 67.8823 25.1206C66.2954 26.0601 64.4419 26.7266 62.3218 27.1201C60.2144 27.5264 57.9546 27.7295 55.5425 27.7295C53.1177 27.7295 50.8452 27.5264 48.7251 27.1201C46.6177 26.7266 44.7642 26.0601 43.1646 25.1206C41.5776 24.1685 40.3271 22.8862 39.4131 21.2739C38.5117 19.6616 38.061 17.6494 38.061 15.2373V13.3711C38.061 10.959 38.5117 8.95312 39.4131 7.35352C40.3271 5.74121 41.5776 4.45898 43.1646 3.50684C44.7642 2.55469 46.6177 1.88184 48.7251 1.48828C50.8452 1.08203 53.1177 0.878906 55.5425 0.878906ZM55.5425 19.6172C56.9136 19.6172 58.1641 19.4902 59.2939 19.2363C60.4365 18.9697 61.3442 18.481 62.0171 17.77C62.6899 17.0464 63.0264 15.9927 63.0264 14.6089V13.9995C63.0264 12.6157 62.6899 11.5684 62.0171 10.8574C61.3442 10.1338 60.4365 9.64502 59.2939 9.39111C58.1641 9.12451 56.9136 8.99121 55.5425 8.99121C54.1587 8.99121 52.8955 9.12451 51.7529 9.39111C50.623 9.64502 49.7217 10.1338 49.0488 10.8574C48.376 11.5684 48.0396 12.6157 48.0396 13.9995V14.6089C48.0396 15.9927 48.376 17.0464 49.0488 17.77C49.7217 18.481 50.623 18.9697 51.7529 19.2363C52.8955 19.4902 54.1587 19.6172 55.5425 19.6172ZM120.936 1.52637V27.1201H110.958V13.4663L100.96 27.1201H95.9707L85.9731 13.4663V27.1201H75.9946V1.52637H88.4678L98.4653 14.3232L108.444 1.52637H120.936ZM120.308 2.15479H108.749L98.9604 14.7041L98.4653 15.3325L97.9702 14.7041L88.1631 2.15479H76.623V26.4917H85.3638V13.4663V11.562L86.4873 13.1045L96.2754 26.4917H100.636L110.443 13.1045L111.567 11.562V13.4663V26.4917H120.308V2.15479ZM136.742 1.52637V27.1201H126.763V1.52637H136.742ZM136.132 2.15479H127.392V26.4917H136.132V2.15479ZM177.037 1.52637V27.1201H165.782L152.052 11.4858V27.1201H142.074V1.52637H155.804L167.039 15.085V1.52637H177.037ZM176.408 2.15479H167.667V15.085V16.7988L166.563 15.4658L155.518 2.15479H142.702V26.4917H151.443V11.4858V9.8291L152.528 11.0669L166.068 26.4917H176.408V2.15479ZM198.041 1.50732C192.836 1.50732 188.824 2.35156 186.006 4.04004C184.47 4.97949 183.302 6.1792 182.502 7.63916C181.626 9.23877 181.188 11.1494 181.188 13.3711V15.2373C181.188 17.459 181.626 19.3696 182.502 20.9692C183.302 22.4292 184.47 23.6289 186.006 24.5684C188.824 26.2568 192.836 27.1011 198.041 27.1011C200.339 27.1011 202.427 26.8154 204.306 26.2441C206.414 25.584 208.121 24.6001 209.429 23.2925L210.324 22.3784L210.495 23.6543L210.933 27.1011H214.761V17.4272V13.6758H208.515H198.593V16.7988H206.001H207.258L206.515 17.8081C205.944 18.5444 205.239 19.0903 204.401 19.4458C203.563 19.7886 202.605 20.0044 201.526 20.0933C200.459 20.1821 199.298 20.2266 198.041 20.2266C195.527 20.2266 193.667 19.8901 192.461 19.2173C190.773 18.3032 189.929 16.7671 189.929 14.6089V13.9995C189.929 11.8413 190.773 10.3052 192.461 9.39111C193.667 8.71826 195.527 8.38184 198.041 8.38184C198.866 8.38184 199.717 8.43262 200.593 8.53418C201.481 8.62305 202.313 8.82617 203.087 9.14355C203.862 9.44824 204.522 9.91797 205.068 10.5527H214.627C214.323 9.04199 213.764 7.72803 212.952 6.61084C212.05 5.40479 210.844 4.4082 209.333 3.62109C206.579 2.21191 202.814 1.50732 198.041 1.50732ZM198.041 0.878906C200.263 0.878906 202.357 1.05029 204.325 1.39307C206.306 1.72314 208.07 2.28174 209.619 3.06885C211.181 3.85596 212.457 4.91602 213.447 6.24902C214.437 7.56934 215.078 9.21338 215.37 11.1812H204.763C204.128 10.3306 203.214 9.75293 202.021 9.44824C200.84 9.14355 199.514 8.99121 198.041 8.99121C196.67 8.99121 195.413 9.12451 194.271 9.39111C193.141 9.64502 192.239 10.1338 191.566 10.8574C190.894 11.5684 190.557 12.6157 190.557 13.9995V14.6089C190.557 15.9927 190.894 17.0464 191.566 17.77C192.239 18.481 193.141 18.9697 194.271 19.2363C195.413 19.4902 196.67 19.6172 198.041 19.6172C199.349 19.6172 200.51 19.5728 201.526 19.4839C202.542 19.3823 203.417 19.1792 204.154 18.8745C204.903 18.5571 205.519 18.0747 206.001 17.4272H197.965V13.0474H208.515H215.37V17.4272V27.7295H210.381L209.867 23.7305C208.889 24.708 207.759 25.4888 206.477 26.0728C205.195 26.6567 203.83 27.0757 202.383 27.3296C200.948 27.5962 199.501 27.7295 198.041 27.7295C195.629 27.7295 193.363 27.5264 191.243 27.1201C189.135 26.7266 187.282 26.0601 185.682 25.1206C184.095 24.1685 182.845 22.8862 181.931 21.2739C181.029 19.6616 180.579 17.6494 180.579 15.2373V13.3711C180.579 10.959 181.029 8.95312 181.931 7.35352C182.845 5.74121 184.095 4.45898 185.682 3.50684C187.282 2.55469 189.135 1.88184 191.243 1.48828C193.363 1.08203 195.629 0.878906 198.041 0.878906ZM250.657 1.50732C245.49 1.50732 241.554 2.08496 238.85 3.24023C235.562 4.58594 233.918 6.82031 233.918 9.94336C233.918 11.2764 234.407 12.3809 235.384 13.2568C236.286 14.082 237.612 14.7422 239.364 15.2373C241.065 15.6943 242.9 16.0181 244.868 16.2085C246.835 16.3862 248.708 16.5132 250.485 16.5894C252.098 16.6528 253.475 16.7417 254.618 16.856C255.773 16.9575 256.655 17.1479 257.265 17.4272C257.887 17.6938 258.198 18.1128 258.198 18.6841C258.198 19.3315 257.969 19.8584 257.512 20.2646C257.055 20.6709 256.458 20.9883 255.722 21.2168C254.986 21.4326 254.173 21.585 253.285 21.6738C252.396 21.7627 251.52 21.8071 250.657 21.8071C249.793 21.8071 248.892 21.75 247.953 21.6357C247.026 21.5215 246.163 21.2866 245.363 20.9312C244.563 20.5757 243.909 20.0361 243.401 19.3125H234.032C234.299 20.7852 234.838 22.0356 235.651 23.064C236.501 24.1431 237.688 24.9937 239.212 25.6157C240.291 26.0474 241.472 26.3711 242.754 26.5869C244.036 26.8027 245.35 26.9424 246.696 27.0059C248.054 27.0693 249.375 27.1011 250.657 27.1011C255.824 27.1011 259.766 26.5234 262.482 25.3682C265.758 24.0225 267.396 21.7944 267.396 18.6841C267.396 17.3384 266.907 16.2275 265.929 15.3516C265.028 14.5391 263.708 13.8789 261.968 13.3711C260.267 12.9141 258.433 12.5967 256.465 12.4189C254.497 12.2412 252.625 12.1143 250.847 12.0381C249.235 11.9746 247.851 11.8857 246.696 11.7715C245.553 11.6572 244.671 11.4668 244.049 11.2002C243.427 10.9336 243.116 10.5146 243.116 9.94336C243.116 9.2959 243.344 8.76904 243.801 8.36279C244.258 7.95654 244.855 7.63916 245.591 7.41064C246.34 7.18213 247.159 7.02979 248.048 6.95361C248.937 6.86475 249.806 6.82031 250.657 6.82031C251.533 6.82031 252.434 6.87744 253.361 6.9917C254.3 7.09326 255.164 7.32813 255.951 7.69629C256.75 8.05176 257.411 8.59131 257.931 9.31494H267.3C267.034 7.82959 266.494 6.5791 265.682 5.56348C264.831 4.48437 263.644 3.63379 262.121 3.01172C261.029 2.58008 259.842 2.25635 258.56 2.04053C257.29 1.82471 255.976 1.68506 254.618 1.62158C253.272 1.54541 251.952 1.50732 250.657 1.50732ZM250.657 0.897949C252.904 0.897949 255.024 0.999512 257.017 1.20264C259.01 1.40576 260.788 1.81836 262.349 2.44043C263.911 3.0625 265.18 3.97656 266.158 5.18262C267.148 6.38867 267.77 7.97559 268.024 9.94336H257.588C257.195 9.2832 256.655 8.76904 255.97 8.40088C255.284 8.03271 254.484 7.78516 253.57 7.6582C252.669 7.51855 251.698 7.44873 250.657 7.44873C249.882 7.44873 249.089 7.48682 248.276 7.56299C247.464 7.62646 246.715 7.75342 246.029 7.94385C245.356 8.12158 244.804 8.37549 244.373 8.70557C243.954 9.02295 243.744 9.43555 243.744 9.94336C243.744 10.3115 244.062 10.5908 244.696 10.7812C245.331 10.9717 246.182 11.1113 247.248 11.2002C248.314 11.2891 249.521 11.3589 250.866 11.4097C252.326 11.4731 253.843 11.5684 255.417 11.6953C256.992 11.8096 258.521 12.0063 260.007 12.2856C261.505 12.5522 262.851 12.9458 264.044 13.4663C265.25 13.9741 266.215 14.6533 266.938 15.5039C267.662 16.3418 268.024 17.4019 268.024 18.6841C268.024 20.144 267.713 21.3945 267.091 22.4355C266.469 23.4766 265.605 24.3398 264.501 25.0254C263.396 25.7109 262.114 26.2568 260.654 26.6631C259.194 27.0566 257.614 27.3296 255.913 27.4819C254.211 27.647 252.459 27.7295 250.657 27.7295C248.41 27.7295 246.29 27.6279 244.296 27.4248C242.316 27.2217 240.545 26.8091 238.983 26.187C237.422 25.5649 236.146 24.6509 235.156 23.4448C234.178 22.2388 233.556 20.6519 233.29 18.6841H243.744C244.125 19.3442 244.658 19.8584 245.344 20.2266C246.029 20.582 246.829 20.8296 247.743 20.9692C248.657 21.1089 249.628 21.1787 250.657 21.1787C251.444 21.1787 252.244 21.1406 253.056 21.0645C253.869 20.9883 254.611 20.8613 255.284 20.6836C255.97 20.4932 256.522 20.2393 256.941 19.9219C257.373 19.5918 257.588 19.1792 257.588 18.6841C257.588 18.3032 257.271 18.0239 256.636 17.8462C256.001 17.6558 255.145 17.5161 254.065 17.4272C252.999 17.3384 251.793 17.2622 250.447 17.1987C249 17.1353 247.489 17.0464 245.915 16.9321C244.341 16.8052 242.805 16.6084 241.307 16.3418C239.821 16.0625 238.476 15.6689 237.27 15.1611C236.063 14.6533 235.099 13.9805 234.375 13.1426C233.651 12.292 233.29 11.2256 233.29 9.94336C233.29 8.4707 233.601 7.22021 234.223 6.19189C234.857 5.15088 235.721 4.2876 236.812 3.60205C237.917 2.90381 239.199 2.35791 240.659 1.96436C242.132 1.5708 243.719 1.29785 245.42 1.14551C247.121 0.980469 248.867 0.897949 250.657 0.897949ZM287.295 1.50732C282.078 1.50732 278.066 2.35156 275.26 4.04004C273.711 4.97949 272.537 6.1792 271.737 7.63916C270.861 9.23877 270.423 11.1494 270.423 13.3711V15.2373C270.423 17.459 270.861 19.3696 271.737 20.9692C272.537 22.4292 273.711 23.6289 275.26 24.5684C278.066 26.2568 282.078 27.1011 287.295 27.1011C292.5 27.1011 296.512 26.2568 299.331 24.5684C300.867 23.6289 302.041 22.4292 302.854 20.9692C303.717 19.3696 304.148 17.459 304.148 15.2373V13.3711C304.148 11.1494 303.717 9.23877 302.854 7.63916C302.041 6.1792 300.867 4.97949 299.331 4.04004C296.512 2.35156 292.5 1.50732 287.295 1.50732ZM287.295 20.2266C284.769 20.2266 282.903 19.8901 281.697 19.2173C280.008 18.3032 279.164 16.7671 279.164 14.6089V13.9995C279.164 11.8413 280.008 10.3052 281.697 9.39111C282.903 8.71826 284.769 8.38184 287.295 8.38184C289.822 8.38184 291.682 8.71826 292.875 9.39111C294.563 10.3052 295.408 11.8413 295.408 13.9995V14.6089C295.408 16.7671 294.563 18.3032 292.875 19.2173C291.682 19.8901 289.822 20.2266 287.295 20.2266ZM287.295 0.878906C289.708 0.878906 291.967 1.08203 294.075 1.48828C296.195 1.88184 298.048 2.55469 299.635 3.50684C301.235 4.45898 302.485 5.74121 303.387 7.35352C304.301 8.95312 304.758 10.959 304.758 13.3711V15.2373C304.758 17.6494 304.301 19.6616 303.387 21.2739C302.485 22.8862 301.235 24.1685 299.635 25.1206C298.048 26.0601 296.195 26.7266 294.075 27.1201C291.967 27.5264 289.708 27.7295 287.295 27.7295C284.871 27.7295 282.598 27.5264 280.478 27.1201C278.371 26.7266 276.517 26.0601 274.917 25.1206C273.331 24.1685 272.08 22.8862 271.166 21.2739C270.265 19.6616 269.814 17.6494 269.814 15.2373V13.3711C269.814 10.959 270.265 8.95312 271.166 7.35352C272.08 5.74121 273.331 4.45898 274.917 3.50684C276.517 2.55469 278.371 1.88184 280.478 1.48828C282.598 1.08203 284.871 0.878906 287.295 0.878906ZM287.295 19.6172C288.667 19.6172 289.917 19.4902 291.047 19.2363C292.189 18.9697 293.097 18.481 293.77 17.77C294.443 17.0464 294.779 15.9927 294.779 14.6089V13.9995C294.779 12.6157 294.443 11.5684 293.77 10.8574C293.097 10.1338 292.189 9.64502 291.047 9.39111C289.917 9.12451 288.667 8.99121 287.295 8.99121C285.912 8.99121 284.648 9.12451 283.506 9.39111C282.376 9.64502 281.475 10.1338 280.802 10.8574C280.129 11.5684 279.792 12.6157 279.792 13.9995V14.6089C279.792 15.9927 280.129 17.0464 280.802 17.77C281.475 18.481 282.376 18.9697 283.506 19.2363C284.648 19.4902 285.912 19.6172 287.295 19.6172ZM324.924 1.50732C319.707 1.50732 315.695 2.35156 312.889 4.04004C311.34 4.97949 310.166 6.1792 309.366 7.63916C308.49 9.23877 308.052 11.1494 308.052 13.3711V15.2373C308.052 17.459 308.49 19.3696 309.366 20.9692C310.166 22.4292 311.34 23.6289 312.889 24.5684C315.695 26.2568 319.707 27.1011 324.924 27.1011C330.129 27.1011 334.141 26.2568 336.959 24.5684C338.496 23.6289 339.67 22.4292 340.482 20.9692C341.346 19.3696 341.777 17.459 341.777 15.2373V13.3711C341.777 11.1494 341.346 9.23877 340.482 7.63916C339.67 6.1792 338.496 4.97949 336.959 4.04004C334.141 2.35156 330.129 1.50732 324.924 1.50732ZM324.924 20.2266C322.398 20.2266 320.532 19.8901 319.326 19.2173C317.637 18.3032 316.793 16.7671 316.793 14.6089V13.9995C316.793 11.8413 317.637 10.3052 319.326 9.39111C320.532 8.71826 322.398 8.38184 324.924 8.38184C327.451 8.38184 329.311 8.71826 330.504 9.39111C332.192 10.3052 333.037 11.8413 333.037 13.9995V14.6089C333.037 16.7671 332.192 18.3032 330.504 19.2173C329.311 19.8901 327.451 20.2266 324.924 20.2266ZM324.924 0.878906C327.336 0.878906 329.596 1.08203 331.704 1.48828C333.824 1.88184 335.677 2.55469 337.264 3.50684C338.864 4.45898 340.114 5.74121 341.016 7.35352C341.93 8.95312 342.387 10.959 342.387 13.3711V15.2373C342.387 17.6494 341.93 19.6616 341.016 21.2739C340.114 22.8862 338.864 24.1685 337.264 25.1206C335.677 26.0601 333.824 26.7266 331.704 27.1201C329.596 27.5264 327.336 27.7295 324.924 27.7295C322.5 27.7295 320.227 27.5264 318.107 27.1201C316 26.7266 314.146 26.0601 312.546 25.1206C310.959 24.1685 309.709 22.8862 308.795 21.2739C307.894 19.6616 307.443 17.6494 307.443 15.2373V13.3711C307.443 10.959 307.894 8.95312 308.795 7.35352C309.709 5.74121 310.959 4.45898 312.546 3.50684C314.146 2.55469 316 1.88184 318.107 1.48828C320.227 1.08203 322.5 0.878906 324.924 0.878906ZM324.924 19.6172C326.295 19.6172 327.546 19.4902 328.676 19.2363C329.818 18.9697 330.726 18.481 331.399 17.77C332.072 17.0464 332.408 15.9927 332.408 14.6089V13.9995C332.408 12.6157 332.072 11.5684 331.399 10.8574C330.726 10.1338 329.818 9.64502 328.676 9.39111C327.546 9.12451 326.295 8.99121 324.924 8.99121C323.541 8.99121 322.277 9.12451 321.135 9.39111C320.005 9.64502 319.104 10.1338 318.431 10.8574C317.758 11.5684 317.421 12.6157 317.421 13.9995V14.6089C317.421 15.9927 317.758 17.0464 318.431 17.77C319.104 18.481 320.005 18.9697 321.135 19.2363C322.277 19.4902 323.541 19.6172 324.924 19.6172ZM380.339 1.52637V27.1201H369.085L355.355 11.4858V27.1201H345.376V1.52637H359.106L370.342 15.085V1.52637H380.339ZM379.711 2.15479H370.97V15.085V16.7988L369.866 15.4658L358.821 2.15479H346.005V26.4917H354.746V11.4858V9.8291L355.831 11.0669L369.371 26.4917H379.711V2.15479Z" fill="#00FFC2"/>
</svg>
