<svg width="119" height="39" viewBox="0 0 119 39" fill="none" xmlns="http://www.w3.org/2000/svg">
<rect width="119" height="39" rx="19.5" fill="#00FFC2"/>
<path d="M30.8838 17.1763H22.9429V18.9155H30.8838V20.5469H22.9429V22.2861H30.8838V24H20.3403V15.4688H30.8838V17.1763ZM44.563 24H41.1543L35.0796 17.2017V24H32.4771V15.4688H36.8188L41.9541 21.4355V15.4688H44.563V24ZM54.4272 15.4688H57.3345L52.9673 24H49.1904L44.8169 15.4688H47.7305L51.0757 22.5337L54.4272 15.4688ZM68.811 19.9692C68.811 21.353 68.3138 22.4046 67.3193 23.124C66.3291 23.8434 64.8247 24.2031 62.8062 24.2031C60.7834 24.2031 59.2769 23.8434 58.2866 23.124C57.2964 22.4046 56.8013 21.353 56.8013 19.9692V19.4995C56.8013 18.1115 57.2964 17.0578 58.2866 16.3384C59.2769 15.619 60.7834 15.2593 62.8062 15.2593C64.8247 15.2593 66.3291 15.619 67.3193 16.3384C68.3138 17.0578 68.811 18.1115 68.811 19.4995V19.9692ZM59.3911 19.8486C59.3911 20.3438 59.48 20.7479 59.6577 21.061C59.8397 21.37 60.0703 21.6133 60.3496 21.791C60.6289 21.9645 60.9251 22.0894 61.2383 22.1655C61.5514 22.2417 61.8477 22.2882 62.127 22.3052C62.4105 22.3179 62.6369 22.3242 62.8062 22.3242C62.9754 22.3242 63.1997 22.3179 63.479 22.3052C63.7583 22.2882 64.0545 22.2417 64.3677 22.1655C64.6851 22.0894 64.9834 21.9645 65.2627 21.791C65.542 21.6133 65.7705 21.37 65.9482 21.061C66.1302 20.7479 66.2212 20.3438 66.2212 19.8486V19.6138C66.2212 19.1187 66.1302 18.7166 65.9482 18.4077C65.7705 18.0946 65.542 17.8512 65.2627 17.6777C64.9834 17.5042 64.6851 17.3794 64.3677 17.3032C64.0545 17.2271 63.7583 17.1826 63.479 17.1699C63.1997 17.153 62.9754 17.1445 62.8062 17.1445C62.6369 17.1445 62.4105 17.153 62.127 17.1699C61.8477 17.1826 61.5514 17.2271 61.2383 17.3032C60.9251 17.3794 60.6289 17.5042 60.3496 17.6777C60.0703 17.8512 59.8397 18.0946 59.6577 18.4077C59.48 18.7166 59.3911 19.1187 59.3911 19.6138V19.8486ZM76.8281 15.4688H79.7671L75.0063 21.061V24H72.4038V21.061L67.6431 15.4688H70.582L73.7051 19.3091L76.8281 15.4688ZM90.5645 17.1763H82.6235V18.9155H90.5645V20.5469H82.6235V22.2861H90.5645V24H80.021V15.4688H90.5645V17.1763ZM103.653 18.5474C103.653 19.2075 103.467 19.7957 103.095 20.312C102.727 20.8283 102.246 21.2007 101.654 21.4292L103.653 24H100.905L99.1909 21.626H94.7666V24H92.1577V15.4688H92.2783H94.7666H100.575C101.142 15.4688 101.658 15.6084 102.124 15.8877C102.589 16.1628 102.959 16.533 103.234 16.9985C103.514 17.464 103.653 17.9803 103.653 18.5474ZM94.7666 17.3604V19.7344H99.8638C100.19 19.7344 100.467 19.618 100.695 19.3853C100.928 19.1525 101.044 18.8732 101.044 18.5474C101.044 18.2215 100.928 17.9422 100.695 17.7095C100.467 17.4767 100.19 17.3604 99.8638 17.3604H94.7666Z" fill="black"/>
</svg>
