<svg width="102" height="54" viewBox="0 0 102 54" fill="none" xmlns="http://www.w3.org/2000/svg">
<path d="M7.64962 4.8737C6.60132 5.68665 5.08052 7.45687 4.85606 7.93591C3.06239 8.60166 2.28096 10.056 2.11446 10.7C1.46235 13.0456 3.03647 14.4 3.90505 14.784C5.21985 18.9819 9.13844 20.5042 10.9334 20.7407C16.0075 21.11 18.8928 17.2402 19.7011 15.2591C16.771 17.8537 13.3186 17.131 11.9587 16.4453C10.9609 17.0983 9.50771 16.6618 8.90584 16.3619C10.2785 15.9152 10.1827 14.6386 9.96324 14.0562C7.98777 11.6733 8.98827 9.12974 9.73545 8.1558C11.5792 5.65831 15.3914 5.79808 17.0671 6.18015C18.1073 6.50834 17.8724 6.06767 17.6249 5.8063C14.445 2.77949 10.3321 3.52273 8.90584 4.2091L7.64962 2.21902C7.96112 1.78944 7.85644 1.33118 7.76516 1.15574C7.19225 0.183181 6.32625 0.371824 5.96486 0.587717C5.67819 0.944753 5.60383 1.15574 5.60383 1.5283C5.60383 2.54717 6.14259 2.62329 6.59703 2.76667L7.64962 4.8737Z" fill="#00FFC2"/>
<path d="M4.44609 35.3584L6.5019 27.5605H6.06238C4.21924 27.5605 3.93568 27.5605 4.5028 25.4338H11.7336L11.1665 27.5605H8.62861L6.57279 35.3584H4.44609ZM11.9949 35.3584C10.4778 35.3584 9.00333 34.5503 9.72641 31.8139C10.4778 28.9358 12.3493 28.2694 13.8664 28.2694H16.9005L14.632 32.5228H12.5762L13.7104 30.3961H13.2993C12.6613 30.3961 12.1792 30.5662 11.8531 31.8139C11.5696 32.9198 11.924 33.2317 12.562 33.2317H13.6821C15.8088 33.2317 15.7379 33.5153 15.2417 35.3584H11.9949ZM18.8624 35.3584C17.3453 35.3584 15.8708 34.5503 16.5939 31.8139C17.3453 28.9358 19.2168 28.2694 20.7339 28.2694H23.2717C22.7897 30.07 22.7046 30.3819 20.7197 30.3961H20.1668C19.5287 30.3961 19.0467 30.5662 18.7206 31.8139C18.437 32.9198 18.7915 33.2317 19.4295 33.2317H22.1091L21.542 35.3584H18.8624ZM27.417 31.8139C27.7431 30.5804 27.3462 30.3961 26.7081 30.3961H25.8716L24.5673 35.3584H22.4406L24.468 27.6314L24.4822 27.5605C25.0493 25.4338 25.3329 25.4338 27.176 25.4338L26.5522 27.7732L26.4246 28.2694H27.2611C28.7781 28.2694 30.2952 28.9641 29.5437 31.8139L28.608 35.3584H26.4813L27.417 31.8139ZM29.4603 35.3584L31.3177 28.2694H33.4444L33.0332 29.829H34.1533C35.3584 29.829 35.883 29.5171 36.0957 28.6947C36.3509 27.7306 35.9539 27.5605 34.7487 27.5605H33.4869C31.6438 27.5605 31.3602 27.5605 31.9273 25.4338H35.3159C37.4 25.4338 38.9171 26.1001 38.2224 28.6947C37.8821 29.9991 37.1874 30.8498 36.28 31.346L36.6344 35.3584C34.7913 35.3584 34.3943 35.3584 34.21 33.2317L34.0966 31.9415C33.9264 31.9557 33.7705 31.9557 33.6003 31.9557H32.4803L31.587 35.3584H29.4603ZM40.1983 35.3584C38.6813 35.3584 37.2067 34.5503 37.9298 31.8139C38.6813 28.9358 40.5528 28.2694 42.0698 28.2694H45.033L43.8421 32.8064L43.1615 35.3584C41.3184 35.3584 41.049 35.3442 41.6019 33.2317L41.6728 32.9481L42.3392 30.3961H41.5027C40.8647 30.3961 40.3826 30.5662 40.0565 31.8139C39.773 32.9198 40.1274 33.2317 40.7654 33.2317H40.893L40.3259 35.3584H40.1983ZM46.191 35.3584C44.603 35.3442 44.3762 35.2308 44.9008 33.2317L45.0142 32.8064L46.3895 27.5605H48.5162L48.3319 28.2694H50.6003L50.0474 30.3961H47.7789L47.07 33.1041L47.0275 33.2317H47.4528C49.5795 33.2317 49.5086 33.5153 49.0266 35.3584H46.191ZM53.1721 35.3584C51.655 35.3584 50.1805 34.5503 50.9036 31.8139C51.655 28.9358 53.5265 28.2694 55.0436 28.2694H58.0777L55.8092 32.5228H53.7534L54.8876 30.3961H54.4765C53.8385 30.3961 53.3564 30.5662 53.0303 31.8139C52.7468 32.9198 53.1012 33.2317 53.7392 33.2317H54.8593C56.986 33.2317 56.9151 33.5153 56.4189 35.3584H53.1721Z" fill="#00FFC2"/>
<path fill-rule="evenodd" clip-rule="evenodd" d="M51.7068 9.48257L12.9993 9.81107L12.9951 9.81361C12.3821 9.86361 11.8955 10.612 11.8955 11.5278C11.8955 12.4409 12.3793 13.1876 12.9897 13.2415L12.9993 13.2447L50.1262 18.4307C51.1219 18.5698 52.1636 18.6267 53.0855 18.2256C54.9268 17.4246 55.6689 15.8051 55.9909 14.0686C56.4429 11.6307 54.1862 9.46153 51.7068 9.48257ZM12.9897 13.2415C13.0131 13.2436 13.0367 13.2446 13.0605 13.2446C13.7039 13.2446 14.2255 12.476 14.2255 11.5278C14.2255 10.5796 13.7039 9.81095 13.0605 9.81095C13.0386 9.81095 13.0167 9.81184 12.9951 9.81361C11.4761 10.7431 11.8941 12.8649 12.9897 13.2415ZM17.8432 13.2446C18.4867 13.2446 19.0082 12.4759 19.0082 11.5277C19.0082 10.5796 18.4867 9.8109 17.8432 9.8109C17.1998 9.8109 16.6782 10.5796 16.6782 11.5277C16.6782 12.4759 17.1998 13.2446 17.8432 13.2446ZM49.4573 12.3922L49.4569 12.393L49.3778 12.5348C49.291 12.6905 49.2476 12.7684 49.1801 12.8197C49.1124 12.8711 49.0282 12.8901 48.8597 12.9282L48.7064 12.9629C48.1134 13.097 47.8169 13.1642 47.7463 13.3911C47.6759 13.6179 47.8779 13.8544 48.2821 14.3269L48.3868 14.4494L48.387 14.4497C48.5016 14.5835 48.5592 14.6507 48.5847 14.7338C48.6107 14.8168 48.602 14.9065 48.5847 15.0858L48.5688 15.2488L48.5686 15.25C48.5077 15.8801 48.4773 16.1951 48.6621 16.3353C48.8465 16.4751 49.1242 16.3473 49.6794 16.0918L49.8228 16.0258C49.9807 15.9529 50.0595 15.9168 50.1432 15.9168C50.2268 15.9168 50.3057 15.9529 50.4633 16.0258L50.6072 16.0918L50.6082 16.0922C51.1625 16.3475 51.44 16.4753 51.6245 16.335C51.8091 16.1951 51.7786 15.8801 51.7177 15.2501L51.7176 15.2488L51.7017 15.0856C51.6843 14.9065 51.6756 14.8168 51.7014 14.7336C51.7271 14.6509 51.7845 14.5838 51.8986 14.4503L51.8996 14.4491L52.0042 14.3269C52.4085 13.8542 52.6105 13.6177 52.5401 13.3911C52.4695 13.1643 52.1734 13.0972 51.5807 12.9631L51.5802 12.9629L51.4269 12.9282C51.2581 12.8901 51.1737 12.8711 51.1062 12.8197C51.0387 12.7684 50.9953 12.6905 50.9086 12.5348L50.8295 12.393L50.829 12.3922C50.5239 11.845 50.3713 11.5715 50.1432 11.5715C49.915 11.5715 49.7625 11.845 49.4573 12.3922Z" fill="#00FFC2"/>
</svg>
