<svg width="237" height="43" viewBox="0 0 237 43" fill="none" xmlns="http://www.w3.org/2000/svg">
<rect x="1" y="1" width="179.198" height="40.0459" rx="20.0229" stroke="#00FFC2" stroke-width="2"/>
<path d="M235.258 21.0229C235.258 32.1041 226.495 41.0459 215.735 41.0459C204.976 41.0459 196.213 32.1041 196.213 21.0229C196.213 9.94172 204.976 1 215.735 1C226.495 1 235.258 9.94172 235.258 21.0229Z" stroke="#00FFC2" stroke-width="2"/>
<path d="M48.2749 17.1406C48.7983 17.1406 49.2749 17.2695 49.7046 17.5273C50.1343 17.7812 50.4761 18.123 50.73 18.5527C50.9878 18.9824 51.1167 19.459 51.1167 19.9824C51.1167 20.5059 50.9878 20.9844 50.73 21.418C50.4761 21.8477 50.1343 22.1895 49.7046 22.4434C49.2749 22.6973 48.7983 22.8242 48.2749 22.8242H42.9136V25.0156H40.5112V17.1406H40.6167H42.9136H48.2749ZM47.6186 21.0781C47.9194 21.0781 48.1772 20.9707 48.3921 20.7559C48.6069 20.541 48.7143 20.2832 48.7143 19.9824C48.7143 19.6816 48.6069 19.4238 48.3921 19.209C48.1772 18.9941 47.9194 18.8867 47.6186 18.8867H42.9136V21.0781H47.6186ZM57.3921 17.1406L61.6167 25.0156H58.9448L58.1186 23.375H53.1616L52.3354 25.0156H49.6636L53.8882 17.1406H57.3921ZM57.3159 21.7754L55.6401 18.4238L53.9585 21.7754H57.3159ZM72.4624 19.9824C72.4624 20.5918 72.2905 21.1348 71.9468 21.6113C71.6069 22.0879 71.1636 22.4316 70.6167 22.6426L72.4624 25.0156H69.9253L68.3433 22.8242H64.2593V25.0156H61.8511V17.1406H61.9624H64.2593H69.6206C70.144 17.1406 70.6206 17.2695 71.0503 17.5273C71.48 17.7812 71.8218 18.123 72.0757 18.5527C72.3335 18.9824 72.4624 19.459 72.4624 19.9824ZM64.2593 18.8867V21.0781H68.9643C69.2651 21.0781 69.521 20.9707 69.7319 20.7559C69.9468 20.541 70.0542 20.2832 70.0542 19.9824C70.0542 19.6816 69.9468 19.4238 69.7319 19.209C69.521 18.9941 69.2651 18.8867 68.9643 18.8867H64.2593ZM83.4311 17.1406V18.8926H79.2768V25.0156H76.8686V18.8926H72.7143V17.1406H83.4311ZM84.3511 17.1406H86.7534V25.0156H84.3511V17.1406ZM93.0229 23.4629C93.1948 23.4629 93.4253 23.4551 93.7143 23.4395C94.0073 23.4199 94.312 23.3652 94.6284 23.2754C94.9448 23.1816 95.2339 23.0293 95.4956 22.8184C95.7573 22.6074 95.9487 22.3125 96.0698 21.9336H98.5249C98.3804 23.0078 97.853 23.8223 96.9429 24.377C96.0327 24.9277 94.7261 25.2031 93.0229 25.2031C91.1597 25.2031 89.769 24.8711 88.8511 24.207C87.937 23.543 87.48 22.5703 87.48 21.2891V20.8555C87.48 19.5742 87.937 18.6016 88.8511 17.9375C89.769 17.2734 91.1597 16.9414 93.0229 16.9414C94.7261 16.9414 96.0327 17.2188 96.9429 17.7734C97.853 18.3242 98.3804 19.1348 98.5249 20.2051H96.0698C95.9487 19.8301 95.7573 19.5371 95.4956 19.3262C95.2339 19.1152 94.9448 18.9648 94.6284 18.875C94.312 18.7812 94.0073 18.7266 93.7143 18.7109C93.4253 18.6914 93.1948 18.6816 93.0229 18.6816C92.8667 18.6816 92.6577 18.6895 92.396 18.7051C92.1382 18.7168 91.8647 18.7578 91.5757 18.8281C91.2866 18.8984 91.0132 19.0137 90.7554 19.1738C90.4976 19.334 90.2847 19.5586 90.1167 19.8477C89.9526 20.1328 89.8706 20.5039 89.8706 20.9609V21.1777C89.8706 21.6348 89.9526 22.0078 90.1167 22.2969C90.2847 22.582 90.4976 22.8066 90.7554 22.9707C91.0132 23.1309 91.2866 23.2461 91.5757 23.3164C91.8647 23.3867 92.1382 23.4297 92.396 23.4453C92.6577 23.457 92.8667 23.4629 93.0229 23.4629ZM99.3862 17.1406H101.789V25.0156H99.3862V17.1406ZM111.017 17.1406C111.541 17.1406 112.017 17.2695 112.447 17.5273C112.876 17.7812 113.218 18.123 113.472 18.5527C113.73 18.9824 113.859 19.459 113.859 19.9824C113.859 20.5059 113.73 20.9844 113.472 21.418C113.218 21.8477 112.876 22.1895 112.447 22.4434C112.017 22.6973 111.541 22.8242 111.017 22.8242H105.656V25.0156H103.253V17.1406H103.359H105.656H111.017ZM110.361 21.0781C110.662 21.0781 110.919 20.9707 111.134 20.7559C111.349 20.541 111.457 20.2832 111.457 19.9824C111.457 19.6816 111.349 19.4238 111.134 19.209C110.919 18.9941 110.662 18.8867 110.361 18.8867H105.656V21.0781H110.361ZM124.412 18.7168H117.082V20.3223H124.412V21.8281H117.082V23.4336H124.412V25.0156H114.679V17.1406H124.412V18.7168ZM125.566 23.041L132.814 18.8926H125.566V17.1406H136.066V19.1094L128.636 23.2695H136.066V25.0156H125.566V23.041ZM142.16 16.3672H144.691V21.793H142.16V16.3672ZM142.16 23.3223H144.691V25.0098H142.16V23.3223Z" fill="#00FFC2"/>
<g clip-path="url(#clip0_435_83)">
<path d="M211.325 15.5991C211.325 15.2411 211.467 14.8978 211.72 14.6447C211.973 14.3916 212.316 14.2494 212.674 14.2493L221.266 14.2493C221.624 14.2494 221.967 14.3916 222.22 14.6447C222.473 14.8978 222.616 15.2411 222.616 15.5991V24.1905C222.609 24.5444 222.465 24.8818 222.212 25.1299C221.96 25.378 221.62 25.517 221.266 25.517C220.912 25.517 220.572 25.378 220.32 25.1299C220.067 24.8818 219.922 24.5444 219.916 24.1905L219.834 18.9402L210.765 28.0089C210.512 28.262 210.169 28.4043 209.811 28.4043C209.453 28.4043 209.109 28.262 208.856 28.0089C208.603 27.7557 208.461 27.4123 208.461 27.0543C208.461 26.6962 208.603 26.3529 208.856 26.0997L217.925 17.031L212.674 16.9489C212.316 16.9489 211.973 16.8066 211.72 16.5535C211.467 16.3004 211.325 15.9571 211.325 15.5991Z" fill="#00FFC2"/>
</g>
<defs>
<clipPath id="clip0_435_83">
<rect width="20.2501" height="20.2501" fill="white" transform="translate(201.219 21.3271) rotate(-45)"/>
</clipPath>
</defs>
</svg>
