<svg width="237" height="43" viewBox="0 0 237 43" fill="none" xmlns="http://www.w3.org/2000/svg">
<rect x="1.58728" y="1.93555" width="179.198" height="40.0459" rx="20.0229" stroke="#00FFC2" stroke-width="2"/>
<path d="M235.845 21.9585C235.845 33.0397 227.082 41.9814 216.323 41.9814C205.563 41.9814 196.8 33.0397 196.8 21.9585C196.8 10.8773 205.563 1.93555 216.323 1.93555C227.082 1.93555 235.845 10.8773 235.845 21.9585Z" stroke="#00FFC2" stroke-width="2"/>
<path d="M33.4109 18.0757C33.9344 18.0757 34.4109 18.2046 34.8406 18.4624C35.2703 18.7163 35.6121 19.0581 35.866 19.4878C36.1238 19.9175 36.2527 20.394 36.2527 20.9175C36.2527 21.4409 36.1238 21.9194 35.866 22.353C35.6121 22.7827 35.2703 23.1245 34.8406 23.3784C34.4109 23.6323 33.9344 23.7593 33.4109 23.7593H28.0496V25.9507H25.6472V18.0757H25.7527H28.0496H33.4109ZM32.7547 22.0132C33.0555 22.0132 33.3133 21.9058 33.5281 21.6909C33.743 21.4761 33.8504 21.2183 33.8504 20.9175C33.8504 20.6167 33.743 20.3589 33.5281 20.144C33.3133 19.9292 33.0555 19.8218 32.7547 19.8218H28.0496V22.0132H32.7547ZM47.6844 20.9175C47.6844 21.5269 47.5125 22.0698 47.1687 22.5464C46.8289 23.0229 46.3855 23.3667 45.8387 23.5776L47.6844 25.9507H45.1472L43.5652 23.7593H39.4812V25.9507H37.073V18.0757H37.1844H39.4812H44.8426C45.366 18.0757 45.8426 18.2046 46.2722 18.4624C46.7019 18.7163 47.0437 19.0581 47.2976 19.4878C47.5555 19.9175 47.6844 20.394 47.6844 20.9175ZM39.4812 19.8218V22.0132H44.1863C44.4871 22.0132 44.743 21.9058 44.9539 21.6909C45.1687 21.4761 45.2762 21.2183 45.2762 20.9175C45.2762 20.6167 45.1687 20.3589 44.9539 20.144C44.743 19.9292 44.4871 19.8218 44.1863 19.8218H39.4812ZM58.3719 19.6519H51.0418V21.2573H58.3719V22.7632H51.0418V24.3687H58.3719V25.9507H48.6394V18.0757H58.3719V19.6519ZM52.1492 16.2651L56.1805 14.0327V15.7378L52.1492 17.2964V16.2651ZM67.4832 18.0757H70.1668L66.1355 25.9507H62.6492L58.6121 18.0757H61.3015L64.3894 24.5972L67.4832 18.0757ZM80.1336 19.6519H72.8035V21.2573H80.1336V22.7632H72.8035V24.3687H80.1336V25.9507H70.4012V18.0757H80.1336V19.6519ZM92.7605 25.9507H89.614L84.0066 19.6753V25.9507H81.6043V18.0757H85.6121L90.3523 23.5835V18.0757H92.7605V25.9507ZM104.251 19.6519H96.9207V21.2573H104.251V22.7632H96.9207V24.3687H104.251V25.9507H94.5183V18.0757H104.251V19.6519ZM105.405 23.9761L112.653 19.8276H105.405V18.0757H115.905V20.0444L108.475 24.2046H115.905V25.9507H105.405V23.9761ZM133.091 18.0757H136.653V25.9507H134.245V20.1323L129.921 25.9507H128.725L124.401 20.1323V25.9507H121.999V18.0757H125.555L129.323 22.9038L133.091 18.0757ZM148.764 22.23C148.764 23.5073 148.305 24.478 147.387 25.1421C146.473 25.8062 145.085 26.1382 143.221 26.1382C141.354 26.1382 139.964 25.8062 139.05 25.1421C138.136 24.478 137.678 23.5073 137.678 22.23V21.7964C137.678 20.5151 138.136 19.5425 139.05 18.8784C139.964 18.2144 141.354 17.8823 143.221 17.8823C145.085 17.8823 146.473 18.2144 147.387 18.8784C148.305 19.5425 148.764 20.5151 148.764 21.7964V22.23ZM140.069 22.1187C140.069 22.5757 140.151 22.9487 140.315 23.2378C140.483 23.5229 140.696 23.7476 140.954 23.9116C141.212 24.0718 141.485 24.187 141.774 24.2573C142.063 24.3276 142.337 24.3706 142.595 24.3862C142.856 24.3979 143.065 24.4038 143.221 24.4038C143.378 24.4038 143.585 24.3979 143.843 24.3862C144.1 24.3706 144.374 24.3276 144.663 24.2573C144.956 24.187 145.231 24.0718 145.489 23.9116C145.747 23.7476 145.958 23.5229 146.122 23.2378C146.29 22.9487 146.374 22.5757 146.374 22.1187V21.9019C146.374 21.4448 146.29 21.0737 146.122 20.7886C145.958 20.4995 145.747 20.2749 145.489 20.1147C145.231 19.9546 144.956 19.8394 144.663 19.769C144.374 19.6987 144.1 19.6577 143.843 19.646C143.585 19.6304 143.378 19.6226 143.221 19.6226C143.065 19.6226 142.856 19.6304 142.595 19.646C142.337 19.6577 142.063 19.6987 141.774 19.769C141.485 19.8394 141.212 19.9546 140.954 20.1147C140.696 20.2749 140.483 20.4995 140.315 20.7886C140.151 21.0737 140.069 21.4448 140.069 21.9019V22.1187ZM149.702 18.0757H152.104V25.9507H149.702V18.0757ZM158.198 17.3022H160.729V22.728H158.198V17.3022ZM158.198 24.2573H160.729V25.9448H158.198V24.2573Z" fill="#00FFC2"/>
<g clip-path="url(#clip0_202_61)">
<path d="M211.912 16.5347C211.912 16.1767 212.054 15.8334 212.307 15.5803C212.561 15.3271 212.904 15.1849 213.262 15.1849L221.853 15.1849C222.211 15.1849 222.555 15.3271 222.808 15.5803C223.061 15.8334 223.203 16.1767 223.203 16.5347V25.126C223.197 25.48 223.052 25.8173 222.8 26.0654C222.547 26.3135 222.207 26.4526 221.853 26.4526C221.499 26.4526 221.159 26.3135 220.907 26.0654C220.655 25.8173 220.51 25.48 220.503 25.126L220.421 19.8757L211.353 28.9444C211.1 29.1976 210.756 29.3398 210.398 29.3398C210.04 29.3398 209.697 29.1976 209.443 28.9444C209.19 28.6912 209.048 28.3479 209.048 27.9898C209.048 27.6318 209.19 27.2884 209.443 27.0352L218.512 17.9665L213.262 17.8845C212.904 17.8844 212.561 17.7422 212.307 17.489C212.054 17.2359 211.912 16.8926 211.912 16.5347Z" fill="#00FFC2"/>
</g>
<defs>
<clipPath id="clip0_202_61">
<rect width="20.2501" height="20.2501" fill="white" transform="translate(201.807 22.2622) rotate(-45)"/>
</clipPath>
</defs>
</svg>
