<svg width="393" height="14" viewBox="0 0 393 14" fill="none" xmlns="http://www.w3.org/2000/svg">
<path d="M-73.8403 0.866666V4.7125H-79.4646V13H-84.1951V4.7125H-89.8194V0.866666H-73.8403ZM-74.1382 1.16458H-89.5215V4.41458H-84.1951H-83.9062V4.7125V12.7021H-79.7625V4.7125V4.41458H-79.4646H-74.1382V1.16458ZM-58.0326 0.866666V3.97222H-67.5028V5.525H-58.0326V8.34167H-67.5028V9.89444H-58.0326V13H-72.2333V0.866666H-58.0326ZM-58.3306 1.16458H-71.9354V12.7021H-58.3306V10.1924H-67.5028H-67.7917V9.89444V8.34167V8.04375H-67.5028H-58.3306V5.82292H-67.5028H-67.7917V5.525V3.97222V3.67431H-67.5028H-58.3306V1.16458ZM-48.3458 0.857638C-50.8134 0.857638 -52.7153 1.25787 -54.0514 2.05833C-54.7856 2.5037 -55.3424 3.07245 -55.7215 3.76458C-56.1308 4.52292 -56.3354 5.4287 -56.3354 6.48194V7.36667C-56.3354 8.41991 -56.1308 9.32569 -55.7215 10.084C-55.3424 10.7762 -54.7856 11.3449 -54.0514 11.7903C-52.7153 12.5907 -50.8134 12.991 -48.3458 12.991C-45.9926 12.991 -44.1569 12.6269 -42.8389 11.8986C-42.1106 11.5014 -41.5449 10.9898 -41.1417 10.3639C-40.7565 9.76806 -40.5127 9.0669 -40.4104 8.26042H-44.7347C-44.9454 8.68773 -45.2463 9.00972 -45.6375 9.22639C-46.0287 9.43704 -46.465 9.57546 -46.9465 9.64167C-47.422 9.70185 -47.8884 9.73194 -48.3458 9.73194C-49.5435 9.73194 -50.4282 9.57245 -51 9.25347C-51.7944 8.82014 -52.1917 8.0919 -52.1917 7.06875V6.77986C-52.1917 5.75671 -51.7944 5.02847 -51 4.59514C-50.4282 4.27616 -49.5435 4.11667 -48.3458 4.11667C-47.8884 4.11667 -47.422 4.14977 -46.9465 4.21597C-46.465 4.27616 -46.0287 4.41458 -45.6375 4.63125C-45.2463 4.8419 -44.9454 5.16389 -44.7347 5.59722H-40.4104C-40.5127 4.78472 -40.7565 4.08056 -41.1417 3.48472C-41.5449 2.8588 -42.1106 2.34722 -42.8389 1.95C-44.1569 1.22176 -45.9926 0.857638 -48.3458 0.857638ZM-48.3458 0.559722C-47.2505 0.559722 -46.2213 0.64699 -45.2583 0.821527C-44.2954 0.996064 -43.4407 1.28495 -42.6944 1.68819C-41.9481 2.09143 -41.3493 2.63912 -40.8979 3.33125C-40.4405 4.01736 -40.1697 4.86898 -40.0854 5.88611H-44.9333C-45.0838 5.48889 -45.3245 5.18495 -45.6556 4.97431C-45.9806 4.75764 -46.3748 4.61018 -46.8382 4.53194C-47.3016 4.44768 -47.8042 4.40556 -48.3458 4.40556C-49.0019 4.40556 -49.5977 4.46875 -50.1333 4.59514C-50.669 4.71551 -51.0963 4.94722 -51.4153 5.29028C-51.7343 5.62731 -51.8937 6.12384 -51.8937 6.77986V7.06875C-51.8937 7.72477 -51.7343 8.22431 -51.4153 8.56736C-51.0963 8.9044 -50.669 9.13611 -50.1333 9.2625C-49.5977 9.38287 -49.0019 9.44306 -48.3458 9.44306C-47.8042 9.44306 -47.3016 9.40394 -46.8382 9.32569C-46.3748 9.24144 -45.9806 9.09398 -45.6556 8.88333C-45.3245 8.66667 -45.0838 8.35972 -44.9333 7.9625H-40.0854C-40.1697 8.97963 -40.4405 9.83426 -40.8979 10.5264C-41.3493 11.2125 -41.9481 11.7572 -42.6944 12.1604C-43.4407 12.5637 -44.2954 12.8525 -45.2583 13.0271C-46.2213 13.2016 -47.2505 13.2889 -48.3458 13.2889C-49.4894 13.2889 -50.5637 13.1926 -51.5687 13C-52.5678 12.8134 -53.4465 12.4975 -54.2049 12.0521C-54.9632 11.6007 -55.559 10.9928 -55.9924 10.2285C-56.4197 9.46412 -56.6333 8.51018 -56.6333 7.36667V6.48194C-56.6333 5.33843 -56.4197 4.3875 -55.9924 3.62917C-55.559 2.86481 -54.9632 2.25694 -54.2049 1.80556C-53.4465 1.35417 -52.5678 1.03518 -51.5687 0.848611C-50.5637 0.656018 -49.4894 0.559722 -48.3458 0.559722ZM-22.0931 0.866666V13H-26.8326V8.85625H-33.9375V13H-38.6681V0.866666H-33.9375V5.01042H-26.8326V0.866666H-22.0931ZM-22.391 1.16458H-26.5347V5.01042V5.30833H-26.8326H-33.9375H-34.2264V5.01042V1.16458H-38.3701V12.7021H-34.2264V8.85625V8.55833H-33.9375H-26.8326H-26.5347V8.85625V12.7021H-22.391V1.16458ZM-1.91597 1.16458H-13.309V12.7021H-9.16528V10.0389V9.74097H-8.86736H-4.64236H-4.49791L-4.40764 9.85833L-2.21389 12.7021H2.06528L-0.200692 9.78611L-0.435415 9.48819L-0.092359 9.33472C0.665974 8.96759 1.26482 8.43495 1.70417 7.73681C2.14954 7.03866 2.37222 6.27731 2.37222 5.45278C2.37222 4.66435 2.17963 3.94514 1.79445 3.29514C1.40926 2.64514 0.891669 2.12755 0.241669 1.74236C-0.408331 1.35718 -1.12754 1.16458 -1.91597 1.16458ZM-9.16528 6.77986V6.49097V4.41458V4.11667H-8.86736H-3.09861C-2.73148 4.11667 -2.41852 4.24907 -2.15972 4.51389C-1.90092 4.77268 -1.77153 5.08565 -1.77153 5.45278C-1.77153 5.81991 -1.90092 6.13287 -2.15972 6.39167C-2.41852 6.65046 -2.73148 6.77986 -3.09861 6.77986H-8.86736H-9.16528ZM-1.91597 0.866666C-1.07338 0.866666 -0.306016 1.07431 0.386113 1.48958C1.08426 1.89884 1.63797 2.45255 2.04722 3.15069C2.4625 3.84282 2.67014 4.61018 2.67014 5.45278C2.67014 6.37361 2.42639 7.20116 1.93889 7.93542C1.45741 8.66968 0.819447 9.22639 0.0250021 9.60556L2.67014 13H-2.35833L-4.64236 10.0389H-8.86736V13H-13.6069V0.866666H-1.91597ZM-8.86736 6.49097H-3.09861C-2.81574 6.49097 -2.57199 6.38866 -2.36736 6.18403C-2.16273 5.9794 -2.06041 5.73565 -2.06041 5.45278C-2.06041 5.16389 -2.16273 4.92014 -2.36736 4.72153C-2.57199 4.5169 -2.81574 4.41458 -3.09861 4.41458H-8.86736V6.49097ZM10.6958 7.97153H14.0271L12.3569 4.37847L10.6958 7.97153ZM15.1736 0.866666L21.6826 13H16.3563L15.3993 10.9326H9.32362L8.36667 13H3.04028L9.54931 0.866666H15.1736ZM10.2354 8.26944L10.425 7.84514L12.0951 4.25208L12.3569 3.67431L12.6278 4.25208L14.2889 7.84514L14.4875 8.26944H14.0271H10.6958H10.2354ZM14.9931 1.16458H9.72987L3.53681 12.7021H8.17709L9.05278 10.8062L9.13403 10.6347H9.32362H15.3993H15.5889L15.6611 10.8062L16.5458 12.7021H21.1861L14.9931 1.16458ZM34.5292 0.866666V4.7125H28.9049V13H24.1743V4.7125H18.55V0.866666H34.5292ZM34.2313 1.16458H18.8479V4.41458H24.1743H24.4632V4.7125V12.7021H28.6069V4.7125V4.41458H28.9049H34.2313V1.16458ZM50.3368 0.866666V3.97222H40.8667V5.525H50.3368V8.34167H40.8667V9.89444H50.3368V13H36.1361V0.866666H50.3368ZM50.0389 1.16458H36.434V12.7021H50.0389V10.1924H40.8667H40.5778V9.89444V8.34167V8.04375H40.8667H50.0389V5.82292H40.8667H40.5778V5.525V3.97222V3.67431H40.8667H50.0389V1.16458ZM73.0326 5.16389V8.71181H58.832V5.16389H73.0326ZM72.7347 5.46181H59.1299V8.41389H72.7347V5.46181ZM97.507 0.866666V4.7125H91.8826V13H87.1521V4.7125H81.5278V0.866666H97.507ZM97.209 1.16458H81.8257V4.41458H87.1521H87.441V4.7125V12.7021H91.5847V4.7125V4.41458H91.8826H97.209V1.16458ZM113.315 0.866666V3.97222H103.844V5.525H113.315V8.34167H103.844V9.89444H113.315V13H99.1139V0.866666H113.315ZM113.017 1.16458H99.4118V12.7021H113.017V10.1924H103.844H103.556V9.89444V8.34167V8.04375H103.844H113.017V5.82292H103.844H103.556V5.525V3.97222V3.67431H103.844H113.017V1.16458ZM123.001 0.857638C120.534 0.857638 118.632 1.25787 117.296 2.05833C116.562 2.5037 116.005 3.07245 115.626 3.76458C115.216 4.52292 115.012 5.4287 115.012 6.48194V7.36667C115.012 8.41991 115.216 9.32569 115.626 10.084C116.005 10.7762 116.562 11.3449 117.296 11.7903C118.632 12.5907 120.534 12.991 123.001 12.991C125.355 12.991 127.19 12.6269 128.508 11.8986C129.237 11.5014 129.802 10.9898 130.206 10.3639C130.591 9.76806 130.834 9.0669 130.937 8.26042H126.613C126.402 8.68773 126.101 9.00972 125.71 9.22639C125.319 9.43704 124.882 9.57546 124.401 9.64167C123.925 9.70185 123.459 9.73194 123.001 9.73194C121.804 9.73194 120.919 9.57245 120.347 9.25347C119.553 8.82014 119.156 8.0919 119.156 7.06875V6.77986C119.156 5.75671 119.553 5.02847 120.347 4.59514C120.919 4.27616 121.804 4.11667 123.001 4.11667C123.459 4.11667 123.925 4.14977 124.401 4.21597C124.882 4.27616 125.319 4.41458 125.71 4.63125C126.101 4.8419 126.402 5.16389 126.613 5.59722H130.937C130.834 4.78472 130.591 4.08056 130.206 3.48472C129.802 2.8588 129.237 2.34722 128.508 1.95C127.19 1.22176 125.355 0.857638 123.001 0.857638ZM123.001 0.559722C124.097 0.559722 125.126 0.64699 126.089 0.821527C127.052 0.996064 127.906 1.28495 128.653 1.68819C129.399 2.09143 129.998 2.63912 130.449 3.33125C130.907 4.01736 131.178 4.86898 131.262 5.88611H126.414C126.263 5.48889 126.023 5.18495 125.692 4.97431C125.367 4.75764 124.972 4.61018 124.509 4.53194C124.046 4.44768 123.543 4.40556 123.001 4.40556C122.345 4.40556 121.75 4.46875 121.214 4.59514C120.678 4.71551 120.251 4.94722 119.932 5.29028C119.613 5.62731 119.453 6.12384 119.453 6.77986V7.06875C119.453 7.72477 119.613 8.22431 119.932 8.56736C120.251 8.9044 120.678 9.13611 121.214 9.2625C121.75 9.38287 122.345 9.44306 123.001 9.44306C123.543 9.44306 124.046 9.40394 124.509 9.32569C124.972 9.24144 125.367 9.09398 125.692 8.88333C126.023 8.66667 126.263 8.35972 126.414 7.9625H131.262C131.178 8.97963 130.907 9.83426 130.449 10.5264C129.998 11.2125 129.399 11.7572 128.653 12.1604C127.906 12.5637 127.052 12.8525 126.089 13.0271C125.126 13.2016 124.097 13.2889 123.001 13.2889C121.858 13.2889 120.784 13.1926 119.778 13C118.779 12.8134 117.901 12.4975 117.142 12.0521C116.384 11.6007 115.788 10.9928 115.355 10.2285C114.928 9.46412 114.714 8.51018 114.714 7.36667V6.48194C114.714 5.33843 114.928 4.3875 115.355 3.62917C115.788 2.86481 116.384 2.25694 117.142 1.80556C117.901 1.35417 118.779 1.03518 119.778 0.848611C120.784 0.656018 121.858 0.559722 123.001 0.559722ZM149.254 0.866666V13H144.515V8.85625H137.41V13H132.679V0.866666H137.41V5.01042H144.515V0.866666H149.254ZM148.956 1.16458H144.813V5.01042V5.30833H144.515H137.41H137.121V5.01042V1.16458H132.977V12.7021H137.121V8.85625V8.55833H137.41H144.515H144.813V8.85625V12.7021H148.956V1.16458ZM169.431 1.16458H158.038V12.7021H162.182V10.0389V9.74097H162.48H166.705H166.849L166.94 9.85833L169.133 12.7021H173.413L171.147 9.78611L170.912 9.48819L171.255 9.33472C172.013 8.96759 172.612 8.43495 173.051 7.73681C173.497 7.03866 173.719 6.27731 173.719 5.45278C173.719 4.66435 173.527 3.94514 173.142 3.29514C172.756 2.64514 172.239 2.12755 171.589 1.74236C170.939 1.35718 170.22 1.16458 169.431 1.16458ZM162.182 6.77986V6.49097V4.41458V4.11667H162.48H168.249C168.616 4.11667 168.929 4.24907 169.188 4.51389C169.446 4.77268 169.576 5.08565 169.576 5.45278C169.576 5.81991 169.446 6.13287 169.188 6.39167C168.929 6.65046 168.616 6.77986 168.249 6.77986H162.48H162.182ZM169.431 0.866666C170.274 0.866666 171.041 1.07431 171.733 1.48958C172.431 1.89884 172.985 2.45255 173.394 3.15069C173.81 3.84282 174.017 4.61018 174.017 5.45278C174.017 6.37361 173.774 7.20116 173.286 7.93542C172.805 8.66968 172.167 9.22639 171.372 9.60556L174.017 13H168.989L166.705 10.0389H162.48V13H157.74V0.866666H169.431ZM162.48 6.49097H168.249C168.531 6.49097 168.775 6.38866 168.98 6.18403C169.184 5.9794 169.287 5.73565 169.287 5.45278C169.287 5.16389 169.184 4.92014 168.98 4.72153C168.775 4.5169 168.531 4.41458 168.249 4.41458H162.48V6.49097ZM182.043 7.97153H185.374L183.704 4.37847L182.043 7.97153ZM186.521 0.866666L193.03 13H187.703L186.747 10.9326H180.671L179.714 13H174.387L180.897 0.866666H186.521ZM181.583 8.26944L181.772 7.84514L183.442 4.25208L183.704 3.67431L183.975 4.25208L185.636 7.84514L185.835 8.26944H185.374H182.043H181.583ZM186.34 1.16458H181.077L174.884 12.7021H179.524L180.4 10.8062L180.481 10.6347H180.671H186.747H186.936L187.008 10.8062L187.893 12.7021H192.533L186.34 1.16458ZM205.876 0.866666V4.7125H200.252V13H195.522V4.7125H189.897V0.866666H205.876ZM205.578 1.16458H190.195V4.41458H195.522H195.81V4.7125V12.7021H199.954V4.7125V4.41458H200.252H205.578V1.16458ZM221.684 0.866666V3.97222H212.214V5.525H221.684V8.34167H212.214V9.89444H221.684V13H207.483V0.866666H221.684ZM221.386 1.16458H207.781V12.7021H221.386V10.1924H212.214H211.925V9.89444V8.34167V8.04375H212.214H221.386V5.82292H212.214H211.925V5.525V3.97222V3.67431H212.214H221.386V1.16458ZM244.38 5.16389V8.71181H230.179V5.16389H244.38ZM244.082 5.46181H230.477V8.41389H244.082V5.46181ZM268.854 0.866666V4.7125H263.23V13H258.499V4.7125H252.875V0.866666H268.854ZM268.556 1.16458H253.173V4.41458H258.499H258.788V4.7125V12.7021H262.932V4.7125V4.41458H263.23H268.556V1.16458ZM284.662 0.866666V3.97222H275.192V5.525H284.662V8.34167H275.192V9.89444H284.662V13H270.461V0.866666H284.662ZM284.364 1.16458H270.759V12.7021H284.364V10.1924H275.192H274.903V9.89444V8.34167V8.04375H275.192H284.364V5.82292H275.192H274.903V5.525V3.97222V3.67431H275.192H284.364V1.16458ZM294.349 0.857638C291.881 0.857638 289.979 1.25787 288.643 2.05833C287.909 2.5037 287.352 3.07245 286.973 3.76458C286.564 4.52292 286.359 5.4287 286.359 6.48194V7.36667C286.359 8.41991 286.564 9.32569 286.973 10.084C287.352 10.7762 287.909 11.3449 288.643 11.7903C289.979 12.5907 291.881 12.991 294.349 12.991C296.702 12.991 298.537 12.6269 299.856 11.8986C300.584 11.5014 301.15 10.9898 301.553 10.3639C301.938 9.76806 302.182 9.0669 302.284 8.26042H297.96C297.749 8.68773 297.448 9.00972 297.057 9.22639C296.666 9.43704 296.229 9.57546 295.748 9.64167C295.272 9.70185 294.806 9.73194 294.349 9.73194C293.151 9.73194 292.266 9.57245 291.694 9.25347C290.9 8.82014 290.503 8.0919 290.503 7.06875V6.77986C290.503 5.75671 290.9 5.02847 291.694 4.59514C292.266 4.27616 293.151 4.11667 294.349 4.11667C294.806 4.11667 295.272 4.14977 295.748 4.21597C296.229 4.27616 296.666 4.41458 297.057 4.63125C297.448 4.8419 297.749 5.16389 297.96 5.59722H302.284C302.182 4.78472 301.938 4.08056 301.553 3.48472C301.15 2.8588 300.584 2.34722 299.856 1.95C298.537 1.22176 296.702 0.857638 294.349 0.857638ZM294.349 0.559722C295.444 0.559722 296.473 0.64699 297.436 0.821527C298.399 0.996064 299.254 1.28495 300 1.68819C300.746 2.09143 301.345 2.63912 301.797 3.33125C302.254 4.01736 302.525 4.86898 302.609 5.88611H297.761C297.611 5.48889 297.37 5.18495 297.039 4.97431C296.714 4.75764 296.32 4.61018 295.856 4.53194C295.393 4.44768 294.89 4.40556 294.349 4.40556C293.693 4.40556 293.097 4.46875 292.561 4.59514C292.025 4.71551 291.598 4.94722 291.279 5.29028C290.96 5.62731 290.801 6.12384 290.801 6.77986V7.06875C290.801 7.72477 290.96 8.22431 291.279 8.56736C291.598 8.9044 292.025 9.13611 292.561 9.2625C293.097 9.38287 293.693 9.44306 294.349 9.44306C294.89 9.44306 295.393 9.40394 295.856 9.32569C296.32 9.24144 296.714 9.09398 297.039 8.88333C297.37 8.66667 297.611 8.35972 297.761 7.9625H302.609C302.525 8.97963 302.254 9.83426 301.797 10.5264C301.345 11.2125 300.746 11.7572 300 12.1604C299.254 12.5637 298.399 12.8525 297.436 13.0271C296.473 13.2016 295.444 13.2889 294.349 13.2889C293.205 13.2889 292.131 13.1926 291.126 13C290.127 12.8134 289.248 12.4975 288.49 12.0521C287.731 11.6007 287.135 10.9928 286.702 10.2285C286.275 9.46412 286.061 8.51018 286.061 7.36667V6.48194C286.061 5.33843 286.275 4.3875 286.702 3.62917C287.135 2.86481 287.731 2.25694 288.49 1.80556C289.248 1.35417 290.127 1.03518 291.126 0.848611C292.131 0.656018 293.205 0.559722 294.349 0.559722ZM320.601 0.866666V13H315.862V8.85625H308.757V13H304.026V0.866666H308.757V5.01042H315.862V0.866666H320.601ZM320.303 1.16458H316.16V5.01042V5.30833H315.862H308.757H308.468V5.01042V1.16458H304.324V12.7021H308.468V8.85625V8.55833H308.757H315.862H316.16V8.85625V12.7021H320.303V1.16458ZM340.778 1.16458H329.385V12.7021H333.529V10.0389V9.74097H333.827H338.052H338.197L338.287 9.85833L340.481 12.7021H344.76L342.494 9.78611L342.259 9.48819L342.602 9.33472C343.36 8.96759 343.959 8.43495 344.399 7.73681C344.844 7.03866 345.067 6.27731 345.067 5.45278C345.067 4.66435 344.874 3.94514 344.489 3.29514C344.104 2.64514 343.586 2.12755 342.936 1.74236C342.286 1.35718 341.567 1.16458 340.778 1.16458ZM333.529 6.77986V6.49097V4.41458V4.11667H333.827H339.596C339.963 4.11667 340.276 4.24907 340.535 4.51389C340.794 4.77268 340.923 5.08565 340.923 5.45278C340.923 5.81991 340.794 6.13287 340.535 6.39167C340.276 6.65046 339.963 6.77986 339.596 6.77986H333.827H333.529ZM340.778 0.866666C341.621 0.866666 342.388 1.07431 343.081 1.48958C343.779 1.89884 344.332 2.45255 344.742 3.15069C345.157 3.84282 345.365 4.61018 345.365 5.45278C345.365 6.37361 345.121 7.20116 344.633 7.93542C344.152 8.66968 343.514 9.22639 342.719 9.60556L345.365 13H340.336L338.052 10.0389H333.827V13H329.088V0.866666H340.778ZM333.827 6.49097H339.596C339.879 6.49097 340.122 6.38866 340.327 6.18403C340.532 5.9794 340.634 5.73565 340.634 5.45278C340.634 5.16389 340.532 4.92014 340.327 4.72153C340.122 4.5169 339.879 4.41458 339.596 4.41458H333.827V6.49097ZM353.39 7.97153H356.722L355.051 4.37847L353.39 7.97153ZM357.868 0.866666L364.377 13H359.051L358.094 10.9326H352.018L351.061 13H345.735L352.244 0.866666H357.868ZM352.93 8.26944L353.119 7.84514L354.79 4.25208L355.051 3.67431L355.322 4.25208L356.983 7.84514L357.182 8.26944H356.722H353.39H352.93ZM357.688 1.16458H352.424L346.231 12.7021H350.872L351.747 10.8062L351.828 10.6347H352.018H358.094H358.283L358.356 10.8062L359.24 12.7021H363.881L357.688 1.16458ZM377.224 0.866666V4.7125H371.599V13H366.869V4.7125H361.244V0.866666H377.224ZM376.926 1.16458H361.542V4.41458H366.869H367.158V4.7125V12.7021H371.301V4.7125V4.41458H371.599H376.926V1.16458ZM393.031 0.866666V3.97222H383.561V5.525H393.031V8.34167H383.561V9.89444H393.031V13H378.831V0.866666H393.031ZM392.733 1.16458H379.128V12.7021H392.733V10.1924H383.561H383.272V9.89444V8.34167V8.04375H383.561H392.733V5.82292H383.561H383.272V5.525V3.97222V3.67431H383.561H392.733V1.16458Z" fill="#00FFC2"/>
</svg>
