<svg width="329" height="37" viewBox="0 0 329 37" fill="none" xmlns="http://www.w3.org/2000/svg">
<path d="M28.6239 35.6533H20.7577L6.73918 19.9648V35.6533H0.733322V15.9658H10.7529L22.6034 29.7354V15.9658H28.6239V35.6533ZM58.8876 26.3516C58.8876 29.5449 57.7402 31.9717 55.4452 33.6318C53.1601 35.292 49.6884 36.1221 45.0302 36.1221C40.3622 36.1221 36.8857 35.292 34.6005 33.6318C32.3154 31.9717 31.1728 29.5449 31.1728 26.3516V25.2676C31.1728 22.0645 32.3154 19.6328 34.6005 17.9727C36.8857 16.3125 40.3622 15.4824 45.0302 15.4824C49.6884 15.4824 53.1601 16.3125 55.4452 17.9727C57.7402 19.6328 58.8876 22.0645 58.8876 25.2676V26.3516ZM37.1493 26.0732C37.1493 27.2158 37.3544 28.1484 37.7646 28.8711C38.1845 29.584 38.7167 30.1455 39.3613 30.5557C40.0058 30.9561 40.6894 31.2441 41.412 31.4199C42.1347 31.5957 42.8183 31.7031 43.4628 31.7422C44.1171 31.7715 44.6396 31.7861 45.0302 31.7861C45.4208 31.7861 45.9384 31.7715 46.5829 31.7422C47.2275 31.7031 47.9111 31.5957 48.6337 31.4199C49.3661 31.2441 50.0546 30.9561 50.6991 30.5557C51.3437 30.1455 51.871 29.584 52.2812 28.8711C52.7011 28.1484 52.9111 27.2158 52.9111 26.0732V25.5312C52.9111 24.3887 52.7011 23.4609 52.2812 22.748C51.871 22.0254 51.3437 21.4639 50.6991 21.0635C50.0546 20.6631 49.3661 20.375 48.6337 20.1992C47.9111 20.0234 47.2275 19.9209 46.5829 19.8916C45.9384 19.8525 45.4208 19.833 45.0302 19.833C44.6396 19.833 44.1171 19.8525 43.4628 19.8916C42.8183 19.9209 42.1347 20.0234 41.412 20.1992C40.6894 20.375 40.0058 20.6631 39.3613 21.0635C38.7167 21.4639 38.1845 22.0254 37.7646 22.748C37.3544 23.4609 37.1493 24.3887 37.1493 25.5312V26.0732ZM87.8769 29.6035C87.8769 29.8672 87.8525 30.2139 87.8036 30.6436C87.7548 31.0635 87.6083 31.5176 87.3642 32.0059C87.12 32.4941 86.7148 32.9824 86.1484 33.4707C85.5917 33.9492 84.8056 34.3887 83.79 34.7891C82.7841 35.1895 81.4902 35.5117 79.9081 35.7559C78.3359 36 76.4023 36.1221 74.1073 36.1221C72.2616 36.1221 70.5136 36.0342 68.8632 35.8584C67.2128 35.6826 65.7529 35.375 64.4833 34.9355C63.2138 34.4961 62.2128 33.8906 61.4804 33.1191C60.7577 32.3379 60.3964 31.3467 60.3964 30.1455H67.1054C67.1054 30.6338 67.2714 31.0342 67.6034 31.3467C67.9355 31.6494 68.3652 31.8887 68.8925 32.0645C69.4296 32.2305 70.0107 32.3525 70.6357 32.4307C71.2607 32.5088 71.8759 32.5576 72.4814 32.5771C73.0966 32.5869 73.6386 32.5918 74.1073 32.5918C75.6405 32.5918 76.8857 32.5137 77.8427 32.3574C78.8095 32.1914 79.5566 31.9717 80.0839 31.6982C80.621 31.4248 80.9872 31.1074 81.1825 30.7461C81.3876 30.3848 81.4902 30.0039 81.4902 29.6035C81.4902 29.0566 81.1874 28.6465 80.582 28.373C79.9863 28.0996 79.1318 27.9043 78.0185 27.7871C76.9052 27.6602 75.5673 27.5625 74.0048 27.4941C73.5849 27.4746 73.1698 27.4551 72.7597 27.4355C71.4218 27.377 70.1376 27.3037 68.9072 27.2158C67.6767 27.1279 66.5439 26.9863 65.5087 26.791C64.4736 26.5859 63.5702 26.293 62.7988 25.9121C62.0273 25.5312 61.4267 25.0283 60.997 24.4033C60.5673 23.7686 60.3525 22.9629 60.3525 21.9863C60.3525 21.7227 60.3769 21.3809 60.4257 20.9609C60.4745 20.5312 60.621 20.0723 60.8652 19.584C61.1093 19.0957 61.5097 18.6123 62.0663 18.1338C62.6327 17.6455 63.4189 17.2012 64.4247 16.8008C65.4404 16.4004 66.7343 16.0781 68.3066 15.834C69.8886 15.5898 71.8222 15.4678 74.1073 15.4678C75.9628 15.4678 77.7157 15.5557 79.3661 15.7314C81.0165 15.9072 82.4716 16.2148 83.7314 16.6543C85.0009 17.0938 86.0019 17.7041 86.7343 18.4854C87.4667 19.2568 87.8329 20.2432 87.8329 21.4443H81.1093C81.1093 20.9561 80.9433 20.5605 80.6113 20.2578C80.289 19.9453 79.8593 19.7012 79.3222 19.5254C78.7948 19.3496 78.2187 19.2275 77.5937 19.1592C76.9687 19.0811 76.3486 19.0371 75.7333 19.0273C75.1181 19.0078 74.5761 18.998 74.1073 18.998C72.5839 18.998 71.3388 19.0811 70.372 19.2471C69.415 19.4033 68.6679 19.6182 68.1308 19.8916C67.6034 20.165 67.2372 20.4824 67.0322 20.8438C66.8368 21.2051 66.7392 21.5859 66.7392 21.9863C66.7392 22.5332 67.037 22.9434 67.6327 23.2168C68.2382 23.4902 69.0976 23.6855 70.2109 23.8027C71.3241 23.9199 72.662 24.0127 74.2245 24.0811C74.6445 24.1104 75.0595 24.1299 75.4697 24.1396C76.8075 24.1982 78.0917 24.2764 79.3222 24.374C80.5527 24.4619 81.6855 24.6035 82.7206 24.7988C83.7558 24.9941 84.6591 25.2822 85.4306 25.6631C86.2021 26.0439 86.8027 26.5518 87.2323 27.1865C87.662 27.8213 87.8769 28.627 87.8769 29.6035ZM130.65 29.6035C130.65 29.8672 130.626 30.2139 130.577 30.6436C130.528 31.0635 130.382 31.5176 130.138 32.0059C129.893 32.4941 129.488 32.9824 128.922 33.4707C128.365 33.9492 127.579 34.3887 126.563 34.7891C125.558 35.1895 124.264 35.5117 122.682 35.7559C121.109 36 119.176 36.1221 116.881 36.1221C115.035 36.1221 113.287 36.0342 111.637 35.8584C109.986 35.6826 108.526 35.375 107.257 34.9355C105.987 34.4961 104.986 33.8906 104.254 33.1191C103.531 32.3379 103.17 31.3467 103.17 30.1455H109.879C109.879 30.6338 110.045 31.0342 110.377 31.3467C110.709 31.6494 111.139 31.8887 111.666 32.0645C112.203 32.2305 112.784 32.3525 113.409 32.4307C114.034 32.5088 114.649 32.5576 115.255 32.5771C115.87 32.5869 116.412 32.5918 116.881 32.5918C118.414 32.5918 119.659 32.5137 120.616 32.3574C121.583 32.1914 122.33 31.9717 122.857 31.6982C123.394 31.4248 123.761 31.1074 123.956 30.7461C124.161 30.3848 124.264 30.0039 124.264 29.6035C124.264 29.0566 123.961 28.6465 123.355 28.373C122.76 28.0996 121.905 27.9043 120.792 27.7871C119.679 27.6602 118.341 27.5625 116.778 27.4941C116.358 27.4746 115.943 27.4551 115.533 27.4355C114.195 27.377 112.911 27.3037 111.681 27.2158C110.45 27.1279 109.317 26.9863 108.282 26.791C107.247 26.5859 106.344 26.293 105.572 25.9121C104.801 25.5312 104.2 25.0283 103.77 24.4033C103.341 23.7686 103.126 22.9629 103.126 21.9863C103.126 21.7227 103.15 21.3809 103.199 20.9609C103.248 20.5312 103.394 20.0723 103.639 19.584C103.883 19.0957 104.283 18.6123 104.84 18.1338C105.406 17.6455 106.192 17.2012 107.198 16.8008C108.214 16.4004 109.508 16.0781 111.08 15.834C112.662 15.5898 114.596 15.4678 116.881 15.4678C118.736 15.4678 120.489 15.5557 122.14 15.7314C123.79 15.9072 125.245 16.2148 126.505 16.6543C127.774 17.0938 128.775 17.7041 129.508 18.4854C130.24 19.2568 130.606 20.2432 130.606 21.4443H123.883C123.883 20.9561 123.717 20.5605 123.385 20.2578C123.062 19.9453 122.633 19.7012 122.096 19.5254C121.568 19.3496 120.992 19.2275 120.367 19.1592C119.742 19.0811 119.122 19.0371 118.507 19.0273C117.892 19.0078 117.35 18.998 116.881 18.998C115.357 18.998 114.112 19.0811 113.145 19.2471C112.188 19.4033 111.441 19.6182 110.904 19.8916C110.377 20.165 110.011 20.4824 109.806 20.8438C109.61 21.2051 109.513 21.5859 109.513 21.9863C109.513 22.5332 109.81 22.9434 110.406 23.2168C111.012 23.4902 111.871 23.6855 112.984 23.8027C114.098 23.9199 115.435 24.0127 116.998 24.0811C117.418 24.1104 117.833 24.1299 118.243 24.1396C119.581 24.1982 120.865 24.2764 122.096 24.374C123.326 24.4619 124.459 24.6035 125.494 24.7988C126.529 24.9941 127.433 25.2822 128.204 25.6631C128.976 26.0439 129.576 26.5518 130.006 27.1865C130.435 27.8213 130.65 28.627 130.65 29.6035ZM157.076 19.9062H138.751V23.9199H157.076V27.6846H138.751V31.6982H157.076V35.6533H132.745V15.9658H157.076V19.9062ZM187.281 23.0703C187.281 24.5938 186.852 25.9512 185.992 27.1426C185.143 28.334 184.034 29.1934 182.667 29.7207L187.281 35.6533H180.938L176.983 30.1748H166.773V35.6533H160.753V15.9658H161.031H166.773H180.177C181.485 15.9658 182.677 16.2881 183.751 16.9326C184.825 17.5674 185.68 18.4219 186.314 19.4961C186.959 20.5703 187.281 21.7617 187.281 23.0703ZM166.773 20.3311V25.8096H178.536C179.288 25.8096 179.928 25.541 180.455 25.0039C180.992 24.4668 181.261 23.8223 181.261 23.0703C181.261 22.3184 180.992 21.6738 180.455 21.1367C179.928 20.5996 179.288 20.3311 178.536 20.3311H166.773ZM208.829 15.9658H215.538L205.46 35.6533H196.744L186.651 15.9658H193.375L201.095 32.2695L208.829 15.9658ZM216.124 15.9658H222.13V35.6533H216.124V15.9658ZM237.804 31.7715C238.233 31.7715 238.81 31.752 239.532 31.7129C240.265 31.6641 241.026 31.5273 241.817 31.3027C242.608 31.0684 243.331 30.6875 243.985 30.1602C244.64 29.6328 245.118 28.8955 245.421 27.9482H251.559C251.197 30.6338 249.879 32.6699 247.603 34.0566C245.328 35.4336 242.061 36.1221 237.804 36.1221C233.145 36.1221 229.669 35.292 227.374 33.6318C225.089 31.9717 223.946 29.54 223.946 26.3369V25.2529C223.946 22.0498 225.089 19.6182 227.374 17.958C229.669 16.2979 233.145 15.4678 237.804 15.4678C242.061 15.4678 245.328 16.1611 247.603 17.5479C249.879 18.9248 251.197 20.9512 251.559 23.627H245.421C245.118 22.6895 244.64 21.957 243.985 21.4297C243.331 20.9023 242.608 20.5264 241.817 20.3018C241.026 20.0674 240.265 19.9307 239.532 19.8916C238.81 19.8428 238.233 19.8184 237.804 19.8184C237.413 19.8184 236.891 19.8379 236.236 19.877C235.592 19.9062 234.908 20.0088 234.185 20.1846C233.463 20.3604 232.779 20.6484 232.135 21.0488C231.49 21.4492 230.958 22.0107 230.538 22.7334C230.128 23.4463 229.923 24.374 229.923 25.5166V26.0586C229.923 27.2012 230.128 28.1338 230.538 28.8564C230.958 29.5693 231.49 30.1309 232.135 30.541C232.779 30.9414 233.463 31.2295 234.185 31.4053C234.908 31.5811 235.592 31.6885 236.236 31.7275C236.891 31.7568 237.413 31.7715 237.804 31.7715ZM278.043 19.9062H259.718V23.9199H278.043V27.6846H259.718V31.6982H278.043V35.6533H253.712V15.9658H278.043V19.9062ZM307.252 29.6035C307.252 29.8672 307.227 30.2139 307.179 30.6436C307.13 31.0635 306.983 31.5176 306.739 32.0059C306.495 32.4941 306.09 32.9824 305.523 33.4707C304.967 33.9492 304.181 34.3887 303.165 34.7891C302.159 35.1895 300.865 35.5117 299.283 35.7559C297.711 36 295.777 36.1221 293.482 36.1221C291.637 36.1221 289.889 36.0342 288.238 35.8584C286.588 35.6826 285.128 35.375 283.858 34.9355C282.589 34.4961 281.588 33.8906 280.855 33.1191C280.133 32.3379 279.771 31.3467 279.771 30.1455H286.48C286.48 30.6338 286.646 31.0342 286.978 31.3467C287.31 31.6494 287.74 31.8887 288.268 32.0645C288.805 32.2305 289.386 32.3525 290.011 32.4307C290.636 32.5088 291.251 32.5576 291.856 32.5771C292.472 32.5869 293.014 32.5918 293.482 32.5918C295.016 32.5918 296.261 32.5137 297.218 32.3574C298.185 32.1914 298.932 31.9717 299.459 31.6982C299.996 31.4248 300.362 31.1074 300.558 30.7461C300.763 30.3848 300.865 30.0039 300.865 29.6035C300.865 29.0566 300.562 28.6465 299.957 28.373C299.361 28.0996 298.507 27.9043 297.393 27.7871C296.28 27.6602 294.942 27.5625 293.38 27.4941C292.96 27.4746 292.545 27.4551 292.135 27.4355C290.797 27.377 289.513 27.3037 288.282 27.2158C287.052 27.1279 285.919 26.9863 284.884 26.791C283.849 26.5859 282.945 26.293 282.174 25.9121C281.402 25.5312 280.802 25.0283 280.372 24.4033C279.942 23.7686 279.727 22.9629 279.727 21.9863C279.727 21.7227 279.752 21.3809 279.801 20.9609C279.85 20.5312 279.996 20.0723 280.24 19.584C280.484 19.0957 280.885 18.6123 281.441 18.1338C282.008 17.6455 282.794 17.2012 283.8 16.8008C284.815 16.4004 286.109 16.0781 287.682 15.834C289.264 15.5898 291.197 15.4678 293.482 15.4678C295.338 15.4678 297.091 15.5557 298.741 15.7314C300.392 15.9072 301.847 16.2148 303.106 16.6543C304.376 17.0938 305.377 17.7041 306.109 18.4854C306.842 19.2568 307.208 20.2432 307.208 21.4443H300.484C300.484 20.9561 300.318 20.5605 299.986 20.2578C299.664 19.9453 299.234 19.7012 298.697 19.5254C298.17 19.3496 297.594 19.2275 296.969 19.1592C296.344 19.0811 295.724 19.0371 295.108 19.0273C294.493 19.0078 293.951 18.998 293.482 18.998C291.959 18.998 290.714 19.0811 289.747 19.2471C288.79 19.4033 288.043 19.6182 287.506 19.8916C286.978 20.165 286.612 20.4824 286.407 20.8438C286.212 21.2051 286.114 21.5859 286.114 21.9863C286.114 22.5332 286.412 22.9434 287.008 23.2168C287.613 23.4902 288.473 23.6855 289.586 23.8027C290.699 23.9199 292.037 24.0127 293.6 24.0811C294.019 24.1104 294.435 24.1299 294.845 24.1396C296.183 24.1982 297.467 24.2764 298.697 24.374C299.928 24.4619 301.06 24.6035 302.096 24.7988C303.131 24.9941 304.034 25.2822 304.806 25.6631C305.577 26.0439 306.178 26.5518 306.607 27.1865C307.037 27.8213 307.252 28.627 307.252 29.6035Z" fill="white"/>
<path d="M327.098 8.74317L321.376 6.6686L319.295 0.940975C319.193 0.664783 319.008 0.426582 318.766 0.258372C318.524 0.0901615 318.237 0 317.942 0C317.648 0 317.36 0.0901615 317.118 0.258372C316.876 0.426582 316.692 0.664783 316.589 0.940975L314.515 6.66228L308.787 8.74317C308.511 8.84569 308.273 9.03028 308.105 9.27214C307.936 9.514 307.846 9.80155 307.846 10.0962C307.846 10.3908 307.936 10.6783 308.105 10.9202C308.273 11.162 308.511 11.3466 308.787 11.4491L314.508 13.5237L316.589 19.2513C316.692 19.5275 316.876 19.7657 317.118 19.9339C317.36 20.1021 317.648 20.1923 317.942 20.1923C318.237 20.1923 318.524 20.1021 318.766 19.9339C319.008 19.7657 319.193 19.5275 319.295 19.2513L321.376 13.5291L327.098 11.4491C327.374 11.3466 327.612 11.162 327.78 10.9202C327.948 10.6783 328.038 10.3908 328.038 10.0962C328.038 9.80155 327.948 9.514 327.78 9.27214C327.612 9.03028 327.374 8.84569 327.098 8.74317ZM320.88 12.1707C320.683 12.2428 320.503 12.3572 320.355 12.5058C320.206 12.6545 320.092 12.8338 320.02 13.0312L317.942 18.7462L315.868 13.0339C315.796 12.8357 315.681 12.6557 315.532 12.5066C315.383 12.3574 315.203 12.2428 315.005 12.1707L309.292 10.0962L315.005 8.02158C315.203 7.94951 315.383 7.83488 315.532 7.68574C315.681 7.5366 315.796 7.35659 315.868 7.15838L317.942 1.44609L320.017 7.15838C320.089 7.35582 320.203 7.53512 320.352 7.68376C320.501 7.83239 320.68 7.94676 320.877 8.01887L326.59 10.0934L320.88 12.1707Z" fill="#00FFC2"/>
</svg>
