<svg width="275" height="44" viewBox="0 0 275 44" fill="none" xmlns="http://www.w3.org/2000/svg">
<path d="M19.1113 13.9189C19.1113 16.0479 18.3464 17.6657 16.8164 18.7725C15.293 19.8792 12.9785 20.4326 9.87305 20.4326C6.76107 20.4326 4.44336 19.8792 2.91992 18.7725C1.39648 17.6657 0.634766 16.0479 0.634766 13.9189V13.1963C0.634766 11.0609 1.39648 9.43978 2.91992 8.33301C4.44336 7.22624 6.76107 6.67285 9.87305 6.67285C12.9785 6.67285 15.293 7.22624 16.8164 8.33301C18.3464 9.43978 19.1113 11.0609 19.1113 13.1963V13.9189ZM4.61914 13.7334C4.61914 14.4951 4.75586 15.1169 5.0293 15.5986C5.30924 16.0739 5.66406 16.4482 6.09375 16.7217C6.52344 16.9886 6.97917 17.1807 7.46094 17.2979C7.94271 17.415 8.39844 17.4867 8.82812 17.5127C9.26432 17.5322 9.61263 17.542 9.87305 17.542C10.1335 17.542 10.4785 17.5322 10.9082 17.5127C11.3379 17.4867 11.7936 17.415 12.2754 17.2979C12.7637 17.1807 13.2227 16.9886 13.6523 16.7217C14.082 16.4482 14.4336 16.0739 14.707 15.5986C14.987 15.1169 15.127 14.4951 15.127 13.7334V13.3721C15.127 12.6104 14.987 11.9919 14.707 11.5166C14.4336 11.0348 14.082 10.6605 13.6523 10.3936C13.2227 10.1266 12.7637 9.93457 12.2754 9.81738C11.7936 9.7002 11.3379 9.63184 10.9082 9.6123C10.4785 9.58626 10.1335 9.57324 9.87305 9.57324C9.61263 9.57324 9.26432 9.58626 8.82812 9.6123C8.39844 9.63184 7.94271 9.7002 7.46094 9.81738C6.97917 9.93457 6.52344 10.1266 6.09375 10.3936C5.66406 10.6605 5.30924 11.0348 5.0293 11.5166C4.75586 11.9919 4.61914 12.6104 4.61914 13.3721V13.7334ZM39.2676 20.1201H34.0234L24.6777 9.66113V20.1201H20.6738V6.99512H27.3535L35.2539 16.1748V6.99512H39.2676V20.1201ZM67.1094 11.7314C67.1094 12.7471 66.8229 13.652 66.25 14.4463C65.6836 15.2406 64.9447 15.8135 64.0332 16.165L67.1094 20.1201H62.8809L60.2441 16.4678H53.4375V20.1201H49.4238V6.99512H49.6094H53.4375H62.373C63.2454 6.99512 64.0397 7.20996 64.7559 7.63965C65.472 8.06283 66.0417 8.63249 66.4648 9.34863C66.8945 10.0648 67.1094 10.859 67.1094 11.7314ZM53.4375 9.90527V13.5576H61.2793C61.7806 13.5576 62.207 13.3786 62.5586 13.0205C62.9167 12.6624 63.0957 12.2327 63.0957 11.7314C63.0957 11.2301 62.9167 10.8005 62.5586 10.4424C62.207 10.0843 61.7806 9.90527 61.2793 9.90527H53.4375ZM84.9219 9.62207H72.7051V12.2979H84.9219V14.8076H72.7051V17.4834H84.9219V20.1201H68.7012V6.99512H84.9219V9.62207ZM74.5508 3.97754L81.2695 0.256836V3.09863L74.5508 5.69629V3.97754ZM105.859 6.99512H111.797V20.1201H107.783V10.4229L100.576 20.1201H98.584L91.377 10.4229V20.1201H87.373V6.99512H93.3008L99.5801 15.042L105.859 6.99512ZM123.418 20.4326C120.299 20.4326 117.975 19.9085 116.445 18.8604C114.915 17.8122 114.15 16.2171 114.15 14.0752V6.99512H118.145V13.5283C118.145 14.2965 118.285 14.9215 118.564 15.4033C118.844 15.8786 119.199 16.2529 119.629 16.5264C120.059 16.7933 120.514 16.9854 120.996 17.1025C121.484 17.2197 121.943 17.2913 122.373 17.3174C122.809 17.3369 123.158 17.3467 123.418 17.3467C123.678 17.3467 124.023 17.3369 124.453 17.3174C124.889 17.2913 125.348 17.2197 125.83 17.1025C126.318 16.9854 126.777 16.7933 127.207 16.5264C127.637 16.2529 127.992 15.8786 128.271 15.4033C128.551 14.9215 128.691 14.2965 128.691 13.5283V6.99512H132.686V14.0752C132.686 16.2171 131.921 17.8122 130.391 18.8604C128.861 19.9085 126.536 20.4326 123.418 20.4326ZM153.623 20.1201H148.379L139.033 9.66113V20.1201H135.029V6.99512H141.709L149.609 16.1748V6.99512H153.623V20.1201ZM172.773 9.62207H160.557V12.2979H172.773V14.8076H160.557V17.4834H172.773V20.1201H156.553V6.99512H172.773V9.62207ZM166.875 3.97754V5.69629L160.156 3.09863V0.256836L166.875 3.97754ZM192.91 11.7314C192.91 12.7471 192.624 13.652 192.051 14.4463C191.484 15.2406 190.745 15.8135 189.834 16.165L192.91 20.1201H188.682L186.045 16.4678H179.238V20.1201H175.225V6.99512H175.41H179.238H188.174C189.046 6.99512 189.84 7.20996 190.557 7.63965C191.273 8.06283 191.842 8.63249 192.266 9.34863C192.695 10.0648 192.91 10.859 192.91 11.7314ZM179.238 9.90527V13.5576H187.08C187.581 13.5576 188.008 13.3786 188.359 13.0205C188.717 12.6624 188.896 12.2327 188.896 11.7314C188.896 11.2301 188.717 10.8005 188.359 10.4424C188.008 10.0843 187.581 9.90527 187.08 9.90527H179.238ZM210.723 9.62207H198.506V12.2979H210.723V14.8076H198.506V17.4834H210.723V20.1201H194.502V6.99512H210.723V9.62207ZM220.889 6.99512H224.893V17.21H237.207V20.1201H220.889V6.99512ZM254.883 9.62207H242.666V12.2979H254.883V14.8076H242.666V17.4834H254.883V20.1201H238.662V6.99512H254.883V9.62207ZM274.355 16.0869C274.355 16.2627 274.339 16.4938 274.307 16.7803C274.274 17.0602 274.176 17.363 274.014 17.6885C273.851 18.014 273.581 18.3395 273.203 18.665C272.832 18.984 272.308 19.277 271.631 19.5439C270.96 19.8109 270.098 20.0257 269.043 20.1885C267.995 20.3512 266.706 20.4326 265.176 20.4326C263.945 20.4326 262.78 20.374 261.68 20.2568C260.579 20.1396 259.606 19.9346 258.76 19.6416C257.913 19.3486 257.246 18.945 256.758 18.4307C256.276 17.9098 256.035 17.249 256.035 16.4482H260.508C260.508 16.7738 260.618 17.0407 260.84 17.249C261.061 17.4508 261.348 17.6104 261.699 17.7275C262.057 17.8382 262.445 17.9196 262.861 17.9717C263.278 18.0238 263.688 18.0563 264.092 18.0693C264.502 18.0758 264.863 18.0791 265.176 18.0791C266.198 18.0791 267.028 18.027 267.666 17.9229C268.311 17.8122 268.809 17.6657 269.16 17.4834C269.518 17.3011 269.762 17.0895 269.893 16.8486C270.029 16.6077 270.098 16.3538 270.098 16.0869C270.098 15.7223 269.896 15.4489 269.492 15.2666C269.095 15.0843 268.525 14.9541 267.783 14.876C267.041 14.7913 266.149 14.7262 265.107 14.6807C264.827 14.6676 264.551 14.6546 264.277 14.6416C263.385 14.6025 262.529 14.5537 261.709 14.4951C260.889 14.4365 260.133 14.3421 259.443 14.2119C258.753 14.0752 258.151 13.8799 257.637 13.626C257.122 13.3721 256.722 13.0368 256.436 12.6201C256.149 12.1969 256.006 11.6598 256.006 11.0088C256.006 10.833 256.022 10.6051 256.055 10.3252C256.087 10.0387 256.185 9.73275 256.348 9.40723C256.51 9.08171 256.777 8.75944 257.148 8.44043C257.526 8.11491 258.05 7.81868 258.721 7.55176C259.398 7.28483 260.26 7.06999 261.309 6.90723C262.363 6.74447 263.652 6.66309 265.176 6.66309C266.413 6.66309 267.581 6.72168 268.682 6.83887C269.782 6.95605 270.752 7.16113 271.592 7.4541C272.438 7.74707 273.105 8.15397 273.594 8.6748C274.082 9.18913 274.326 9.84668 274.326 10.6475H269.844C269.844 10.3219 269.733 10.0583 269.512 9.85645C269.297 9.64811 269.01 9.48535 268.652 9.36816C268.301 9.25098 267.917 9.1696 267.5 9.12402C267.083 9.07194 266.67 9.04264 266.26 9.03613C265.85 9.02311 265.488 9.0166 265.176 9.0166C264.16 9.0166 263.33 9.07194 262.686 9.18262C262.048 9.28678 261.549 9.43001 261.191 9.6123C260.84 9.7946 260.596 10.0062 260.459 10.2471C260.329 10.488 260.264 10.7419 260.264 11.0088C260.264 11.3734 260.462 11.6468 260.859 11.8291C261.263 12.0114 261.836 12.1416 262.578 12.2197C263.32 12.2979 264.212 12.3597 265.254 12.4053C265.534 12.4248 265.811 12.4378 266.084 12.4443C266.976 12.4834 267.832 12.5355 268.652 12.6006C269.473 12.6592 270.228 12.7536 270.918 12.8838C271.608 13.014 272.21 13.2061 272.725 13.46C273.239 13.7139 273.639 14.0524 273.926 14.4756C274.212 14.8988 274.355 15.4359 274.355 16.0869ZM18.4961 40.5322C18.7826 40.5322 19.1667 40.5192 19.6484 40.4932C20.1367 40.4606 20.6445 40.3695 21.1719 40.2197C21.6992 40.0635 22.181 39.8096 22.6172 39.458C23.0534 39.1064 23.3724 38.6149 23.5742 37.9834H27.666C27.4251 39.7738 26.5462 41.1312 25.0293 42.0557C23.5124 42.9736 21.3346 43.4326 18.4961 43.4326C15.3906 43.4326 13.0729 42.8792 11.543 41.7725C10.0195 40.6657 9.25781 39.0446 9.25781 36.9092V36.1865C9.25781 34.0511 10.0195 32.43 11.543 31.3232C13.0729 30.2165 15.3906 29.6631 18.4961 29.6631C21.3346 29.6631 23.5124 30.1253 25.0293 31.0498C26.5462 31.9678 27.4251 33.3187 27.666 35.1025H23.5742C23.3724 34.4775 23.0534 33.9893 22.6172 33.6377C22.181 33.2861 21.6992 33.0355 21.1719 32.8857C20.6445 32.7295 20.1367 32.6383 19.6484 32.6123C19.1667 32.5798 18.7826 32.5635 18.4961 32.5635C18.2357 32.5635 17.8874 32.5765 17.4512 32.6025C17.0215 32.6221 16.5658 32.6904 16.084 32.8076C15.6022 32.9248 15.1465 33.1169 14.7168 33.3838C14.2871 33.6507 13.9323 34.0251 13.6523 34.5068C13.3789 34.9821 13.2422 35.6006 13.2422 36.3623V36.7236C13.2422 37.4854 13.3789 38.1071 13.6523 38.5889C13.9323 39.0641 14.2871 39.4385 14.7168 39.7119C15.1465 39.9788 15.6022 40.1709 16.084 40.2881C16.5658 40.4053 17.0215 40.4769 17.4512 40.5029C17.8874 40.5225 18.2357 40.5322 18.4961 40.5322ZM46.7871 34.7314C46.7871 35.7471 46.5007 36.652 45.9277 37.4463C45.3613 38.2406 44.6224 38.8135 43.7109 39.165L46.7871 43.1201H42.5586L39.9219 39.4678H33.1152V43.1201H29.1016V29.9951H29.2871H33.1152H42.0508C42.9232 29.9951 43.7174 30.21 44.4336 30.6396C45.1497 31.0628 45.7194 31.6325 46.1426 32.3486C46.5723 33.0648 46.7871 33.859 46.7871 34.7314ZM33.1152 32.9053V36.5576H40.957C41.4583 36.5576 41.8848 36.3786 42.2363 36.0205C42.5944 35.6624 42.7734 35.2327 42.7734 34.7314C42.7734 34.2301 42.5944 33.8005 42.2363 33.4424C41.8848 33.0843 41.4583 32.9053 40.957 32.9053H33.1152ZM60.0684 29.9951L67.1094 43.1201H62.6562L61.2793 40.3857H53.0176L51.6406 43.1201H47.1875L54.2285 29.9951H60.0684ZM59.9414 37.7197L57.1484 32.1338L54.3457 37.7197H59.9414ZM85.1855 39.0869C85.1855 39.2627 85.1693 39.4938 85.1367 39.7803C85.1042 40.0602 85.0065 40.363 84.8438 40.6885C84.681 41.014 84.4108 41.3395 84.0332 41.665C83.6621 41.984 83.138 42.277 82.4609 42.5439C81.7904 42.8109 80.9277 43.0257 79.873 43.1885C78.8249 43.3512 77.5358 43.4326 76.0059 43.4326C74.7754 43.4326 73.61 43.374 72.5098 43.2568C71.4095 43.1396 70.4362 42.9346 69.5898 42.6416C68.7435 42.3486 68.0762 41.945 67.5879 41.4307C67.1061 40.9098 66.8652 40.249 66.8652 39.4482H71.3379C71.3379 39.7738 71.4486 40.0407 71.6699 40.249C71.8913 40.4508 72.1777 40.6104 72.5293 40.7275C72.8874 40.8382 73.2747 40.9196 73.6914 40.9717C74.1081 41.0238 74.5182 41.0563 74.9219 41.0693C75.332 41.0758 75.6934 41.0791 76.0059 41.0791C77.028 41.0791 77.8581 41.027 78.4961 40.9229C79.1406 40.8122 79.6387 40.6657 79.9902 40.4834C80.3483 40.3011 80.5924 40.0895 80.7227 39.8486C80.8594 39.6077 80.9277 39.3538 80.9277 39.0869C80.9277 38.7223 80.7259 38.4489 80.3223 38.2666C79.9251 38.0843 79.3555 37.9541 78.6133 37.876C77.8711 37.7913 76.9792 37.7262 75.9375 37.6807C75.6576 37.6676 75.3809 37.6546 75.1074 37.6416C74.2155 37.6025 73.3594 37.5537 72.5391 37.4951C71.7188 37.4365 70.9635 37.3421 70.2734 37.2119C69.5833 37.0752 68.9811 36.8799 68.4668 36.626C67.9525 36.3721 67.5521 36.0368 67.2656 35.6201C66.9792 35.1969 66.8359 34.6598 66.8359 34.0088C66.8359 33.833 66.8522 33.6051 66.8848 33.3252C66.9173 33.0387 67.015 32.7327 67.1777 32.4072C67.3405 32.0817 67.6074 31.7594 67.9785 31.4404C68.3561 31.1149 68.8802 30.8187 69.5508 30.5518C70.2279 30.2848 71.0905 30.07 72.1387 29.9072C73.1934 29.7445 74.4824 29.6631 76.0059 29.6631C77.2428 29.6631 78.4115 29.7217 79.5117 29.8389C80.612 29.9561 81.582 30.1611 82.4219 30.4541C83.2682 30.7471 83.9355 31.154 84.4238 31.6748C84.9121 32.1891 85.1562 32.8467 85.1562 33.6475H80.6738C80.6738 33.3219 80.5632 33.0583 80.3418 32.8564C80.127 32.6481 79.8405 32.4854 79.4824 32.3682C79.1309 32.251 78.7467 32.1696 78.3301 32.124C77.9134 32.0719 77.5 32.0426 77.0898 32.0361C76.6797 32.0231 76.3184 32.0166 76.0059 32.0166C74.9902 32.0166 74.1602 32.0719 73.5156 32.1826C72.8776 32.2868 72.3796 32.43 72.0215 32.6123C71.6699 32.7946 71.4258 33.0062 71.2891 33.2471C71.1589 33.488 71.0938 33.7419 71.0938 34.0088C71.0938 34.3734 71.2923 34.6468 71.6895 34.8291C72.0931 35.0114 72.666 35.1416 73.4082 35.2197C74.1504 35.2979 75.0423 35.3597 76.084 35.4053C76.3639 35.4248 76.6406 35.4378 76.9141 35.4443C77.806 35.4834 78.6621 35.5355 79.4824 35.6006C80.3027 35.6592 81.0579 35.7536 81.748 35.8838C82.4382 36.014 83.0404 36.2061 83.5547 36.46C84.069 36.7139 84.4694 37.0524 84.7559 37.4756C85.0423 37.8988 85.1855 38.4359 85.1855 39.0869ZM105.176 43.1201H101.162V38.0225H90.5859V43.1201H86.582V29.9951H90.5859V35.1025H101.162V29.9951H105.176V43.1201ZM133.193 29.9951V32.915H126.27V43.1201H122.256V32.915H115.332V29.9951H133.193ZM150.947 32.6221H138.73V35.2979H150.947V37.8076H138.73V40.4834H150.947V43.1201H134.727V29.9951H150.947V32.6221ZM170.42 39.0869C170.42 39.2627 170.404 39.4938 170.371 39.7803C170.339 40.0602 170.241 40.363 170.078 40.6885C169.915 41.014 169.645 41.3395 169.268 41.665C168.896 41.984 168.372 42.277 167.695 42.5439C167.025 42.8109 166.162 43.0257 165.107 43.1885C164.059 43.3512 162.77 43.4326 161.24 43.4326C160.01 43.4326 158.844 43.374 157.744 43.2568C156.644 43.1396 155.671 42.9346 154.824 42.6416C153.978 42.3486 153.311 41.945 152.822 41.4307C152.34 40.9098 152.1 40.249 152.1 39.4482H156.572C156.572 39.7738 156.683 40.0407 156.904 40.249C157.126 40.4508 157.412 40.6104 157.764 40.7275C158.122 40.8382 158.509 40.9196 158.926 40.9717C159.342 41.0238 159.753 41.0563 160.156 41.0693C160.566 41.0758 160.928 41.0791 161.24 41.0791C162.262 41.0791 163.092 41.027 163.73 40.9229C164.375 40.8122 164.873 40.6657 165.225 40.4834C165.583 40.3011 165.827 40.0895 165.957 39.8486C166.094 39.6077 166.162 39.3538 166.162 39.0869C166.162 38.7223 165.96 38.4489 165.557 38.2666C165.16 38.0843 164.59 37.9541 163.848 37.876C163.105 37.7913 162.214 37.7262 161.172 37.6807C160.892 37.6676 160.615 37.6546 160.342 37.6416C159.45 37.6025 158.594 37.5537 157.773 37.4951C156.953 37.4365 156.198 37.3421 155.508 37.2119C154.818 37.0752 154.215 36.8799 153.701 36.626C153.187 36.3721 152.786 36.0368 152.5 35.6201C152.214 35.1969 152.07 34.6598 152.07 34.0088C152.07 33.833 152.087 33.6051 152.119 33.3252C152.152 33.0387 152.249 32.7327 152.412 32.4072C152.575 32.0817 152.842 31.7594 153.213 31.4404C153.59 31.1149 154.115 30.8187 154.785 30.5518C155.462 30.2848 156.325 30.07 157.373 29.9072C158.428 29.7445 159.717 29.6631 161.24 29.6631C162.477 29.6631 163.646 29.7217 164.746 29.8389C165.846 29.9561 166.816 30.1611 167.656 30.4541C168.503 30.7471 169.17 31.154 169.658 31.6748C170.146 32.1891 170.391 32.8467 170.391 33.6475H165.908C165.908 33.3219 165.798 33.0583 165.576 32.8564C165.361 32.6481 165.075 32.4854 164.717 32.3682C164.365 32.251 163.981 32.1696 163.564 32.124C163.148 32.0719 162.734 32.0426 162.324 32.0361C161.914 32.0231 161.553 32.0166 161.24 32.0166C160.225 32.0166 159.395 32.0719 158.75 32.1826C158.112 32.2868 157.614 32.43 157.256 32.6123C156.904 32.7946 156.66 33.0062 156.523 33.2471C156.393 33.488 156.328 33.7419 156.328 34.0088C156.328 34.3734 156.527 34.6468 156.924 34.8291C157.327 35.0114 157.9 35.1416 158.643 35.2197C159.385 35.2979 160.277 35.3597 161.318 35.4053C161.598 35.4248 161.875 35.4378 162.148 35.4443C163.04 35.4834 163.896 35.5355 164.717 35.6006C165.537 35.6592 166.292 35.7536 166.982 35.8838C167.673 36.014 168.275 36.2061 168.789 36.46C169.303 36.7139 169.704 37.0524 169.99 37.4756C170.277 37.8988 170.42 38.4359 170.42 39.0869ZM187.959 29.9951V32.915H181.035V43.1201H177.021V32.915H170.098V29.9951H187.959ZM205.713 32.6221H193.496V35.2979H205.713V37.8076H193.496V40.4834H205.713V43.1201H189.492V29.9951H205.713V32.6221ZM216.846 43.4326C213.727 43.4326 211.403 42.9085 209.873 41.8604C208.343 40.8122 207.578 39.2171 207.578 37.0752V29.9951H211.572V36.5283C211.572 37.2965 211.712 37.9215 211.992 38.4033C212.272 38.8786 212.627 39.2529 213.057 39.5264C213.486 39.7933 213.942 39.9854 214.424 40.1025C214.912 40.2197 215.371 40.2913 215.801 40.3174C216.237 40.3369 216.585 40.3467 216.846 40.3467C217.106 40.3467 217.451 40.3369 217.881 40.3174C218.317 40.2913 218.776 40.2197 219.258 40.1025C219.746 39.9854 220.205 39.7933 220.635 39.5264C221.064 39.2529 221.419 38.8786 221.699 38.4033C221.979 37.9215 222.119 37.2965 222.119 36.5283V29.9951H226.113V37.0752C226.113 39.2171 225.348 40.8122 223.818 41.8604C222.288 42.9085 219.964 43.4326 216.846 43.4326ZM246.143 34.7314C246.143 35.7471 245.856 36.652 245.283 37.4463C244.717 38.2406 243.978 38.8135 243.066 39.165L246.143 43.1201H241.914L239.277 39.4678H232.471V43.1201H228.457V29.9951H228.643H232.471H241.406C242.279 29.9951 243.073 30.21 243.789 30.6396C244.505 31.0628 245.075 31.6325 245.498 32.3486C245.928 33.0648 246.143 33.859 246.143 34.7314ZM232.471 32.9053V36.5576H240.312C240.814 36.5576 241.24 36.3786 241.592 36.0205C241.95 35.6624 242.129 35.2327 242.129 34.7314C242.129 34.2301 241.95 33.8005 241.592 33.4424C241.24 33.0843 240.814 32.9053 240.312 32.9053H232.471ZM265.732 39.0869C265.732 39.2627 265.716 39.4938 265.684 39.7803C265.651 40.0602 265.553 40.363 265.391 40.6885C265.228 41.014 264.958 41.3395 264.58 41.665C264.209 41.984 263.685 42.277 263.008 42.5439C262.337 42.8109 261.475 43.0257 260.42 43.1885C259.372 43.3512 258.083 43.4326 256.553 43.4326C255.322 43.4326 254.157 43.374 253.057 43.2568C251.956 43.1396 250.983 42.9346 250.137 42.6416C249.29 42.3486 248.623 41.945 248.135 41.4307C247.653 40.9098 247.412 40.249 247.412 39.4482H251.885C251.885 39.7738 251.995 40.0407 252.217 40.249C252.438 40.4508 252.725 40.6104 253.076 40.7275C253.434 40.8382 253.822 40.9196 254.238 40.9717C254.655 41.0238 255.065 41.0563 255.469 41.0693C255.879 41.0758 256.24 41.0791 256.553 41.0791C257.575 41.0791 258.405 41.027 259.043 40.9229C259.688 40.8122 260.186 40.6657 260.537 40.4834C260.895 40.3011 261.139 40.0895 261.27 39.8486C261.406 39.6077 261.475 39.3538 261.475 39.0869C261.475 38.7223 261.273 38.4489 260.869 38.2666C260.472 38.0843 259.902 37.9541 259.16 37.876C258.418 37.7913 257.526 37.7262 256.484 37.6807C256.204 37.6676 255.928 37.6546 255.654 37.6416C254.762 37.6025 253.906 37.5537 253.086 37.4951C252.266 37.4365 251.51 37.3421 250.82 37.2119C250.13 37.0752 249.528 36.8799 249.014 36.626C248.499 36.3721 248.099 36.0368 247.812 35.6201C247.526 35.1969 247.383 34.6598 247.383 34.0088C247.383 33.833 247.399 33.6051 247.432 33.3252C247.464 33.0387 247.562 32.7327 247.725 32.4072C247.887 32.0817 248.154 31.7594 248.525 31.4404C248.903 31.1149 249.427 30.8187 250.098 30.5518C250.775 30.2848 251.637 30.07 252.686 29.9072C253.74 29.7445 255.029 29.6631 256.553 29.6631C257.79 29.6631 258.958 29.7217 260.059 29.8389C261.159 29.9561 262.129 30.1611 262.969 30.4541C263.815 30.7471 264.482 31.154 264.971 31.6748C265.459 32.1891 265.703 32.8467 265.703 33.6475H261.221C261.221 33.3219 261.11 33.0583 260.889 32.8564C260.674 32.6481 260.387 32.4854 260.029 32.3682C259.678 32.251 259.294 32.1696 258.877 32.124C258.46 32.0719 258.047 32.0426 257.637 32.0361C257.227 32.0231 256.865 32.0166 256.553 32.0166C255.537 32.0166 254.707 32.0719 254.062 32.1826C253.424 32.2868 252.926 32.43 252.568 32.6123C252.217 32.7946 251.973 33.0062 251.836 33.2471C251.706 33.488 251.641 33.7419 251.641 34.0088C251.641 34.3734 251.839 34.6468 252.236 34.8291C252.64 35.0114 253.213 35.1416 253.955 35.2197C254.697 35.2979 255.589 35.3597 256.631 35.4053C256.911 35.4248 257.188 35.4378 257.461 35.4443C258.353 35.4834 259.209 35.5355 260.029 35.6006C260.85 35.6592 261.605 35.7536 262.295 35.8838C262.985 36.014 263.587 36.2061 264.102 36.46C264.616 36.7139 265.016 37.0524 265.303 37.4756C265.589 37.8988 265.732 38.4359 265.732 39.0869Z" fill="white"/>
</svg>

