<svg width="330" height="53" viewBox="0 0 330 53" fill="none" xmlns="http://www.w3.org/2000/svg">
<path d="M22.9336 16.5586C22.9336 19.1133 22.0156 21.0547 20.1797 22.3828C18.3516 23.7109 15.5742 24.375 11.8477 24.375C8.11328 24.375 5.33203 23.7109 3.50391 22.3828C1.67578 21.0547 0.761719 19.1133 0.761719 16.5586V15.6914C0.761719 13.1289 1.67578 11.1836 3.50391 9.85547C5.33203 8.52734 8.11328 7.86328 11.8477 7.86328C15.5742 7.86328 18.3516 8.52734 20.1797 9.85547C22.0156 11.1836 22.9336 13.1289 22.9336 15.6914V16.5586ZM5.54297 16.3359C5.54297 17.25 5.70703 17.9961 6.03516 18.5742C6.37109 19.1445 6.79688 19.5938 7.3125 19.9219C7.82812 20.2422 8.375 20.4727 8.95312 20.6133C9.53125 20.7539 10.0781 20.8398 10.5938 20.8711C11.1172 20.8945 11.5352 20.9062 11.8477 20.9062C12.1602 20.9062 12.5742 20.8945 13.0898 20.8711C13.6055 20.8398 14.1523 20.7539 14.7305 20.6133C15.3164 20.4727 15.8672 20.2422 16.3828 19.9219C16.8984 19.5938 17.3203 19.1445 17.6484 18.5742C17.9844 17.9961 18.1523 17.25 18.1523 16.3359V15.9023C18.1523 14.9883 17.9844 14.2461 17.6484 13.6758C17.3203 13.0977 16.8984 12.6484 16.3828 12.3281C15.8672 12.0078 15.3164 11.7773 14.7305 11.6367C14.1523 11.4961 13.6055 11.4141 13.0898 11.3906C12.5742 11.3594 12.1602 11.3438 11.8477 11.3438C11.5352 11.3438 11.1172 11.3594 10.5938 11.3906C10.0781 11.4141 9.53125 11.4961 8.95312 11.6367C8.375 11.7773 7.82812 12.0078 7.3125 12.3281C6.79688 12.6484 6.37109 13.0977 6.03516 13.6758C5.70703 14.2461 5.54297 14.9883 5.54297 15.9023V16.3359ZM47.1211 24H40.8281L29.6133 11.4492V24H24.8086V8.25H32.8242L42.3047 19.2656V8.25H47.1211V24ZM80.5312 13.9336C80.5312 15.1523 80.1875 16.2383 79.5 17.1914C78.8203 18.1445 77.9336 18.832 76.8398 19.2539L80.5312 24H75.457L72.293 19.6172H64.125V24H59.3086V8.25H59.5312H64.125H74.8477C75.8945 8.25 76.8477 8.50781 77.707 9.02344C78.5664 9.53125 79.25 10.2148 79.7578 11.0742C80.2734 11.9336 80.5312 12.8867 80.5312 13.9336ZM64.125 11.7422V16.125H73.5352C74.1367 16.125 74.6484 15.9102 75.0703 15.4805C75.5 15.0508 75.7148 14.5352 75.7148 13.9336C75.7148 13.332 75.5 12.8164 75.0703 12.3867C74.6484 11.957 74.1367 11.7422 73.5352 11.7422H64.125ZM101.906 11.4023H87.2461V14.6133H101.906V17.625H87.2461V20.8359H101.906V24H82.4414V8.25H101.906V11.4023ZM89.4609 4.62891L97.5234 0.164062V3.57422L89.4609 6.69141V4.62891ZM127.031 8.25H134.156V24H129.34V12.3633L120.691 24H118.301L109.652 12.3633V24H104.848V8.25H111.961L119.496 17.9062L127.031 8.25ZM148.102 24.375C144.359 24.375 141.57 23.7461 139.734 22.4883C137.898 21.2305 136.98 19.3164 136.98 16.7461V8.25H141.773V16.0898C141.773 17.0117 141.941 17.7617 142.277 18.3398C142.613 18.9102 143.039 19.3594 143.555 19.6875C144.07 20.0078 144.617 20.2383 145.195 20.3789C145.781 20.5195 146.332 20.6055 146.848 20.6367C147.371 20.6602 147.789 20.6719 148.102 20.6719C148.414 20.6719 148.828 20.6602 149.344 20.6367C149.867 20.6055 150.418 20.5195 150.996 20.3789C151.582 20.2383 152.133 20.0078 152.648 19.6875C153.164 19.3594 153.59 18.9102 153.926 18.3398C154.262 17.7617 154.43 17.0117 154.43 16.0898V8.25H159.223V16.7461C159.223 19.3164 158.305 21.2305 156.469 22.4883C154.633 23.7461 151.844 24.375 148.102 24.375ZM184.348 24H178.055L166.84 11.4492V24H162.035V8.25H170.051L179.531 19.2656V8.25H184.348V24ZM207.328 11.4023H192.668V14.6133H207.328V17.625H192.668V20.8359H207.328V24H187.863V8.25H207.328V11.4023ZM200.25 4.62891V6.69141L192.188 3.57422V0.164062L200.25 4.62891ZM231.492 13.9336C231.492 15.1523 231.148 16.2383 230.461 17.1914C229.781 18.1445 228.895 18.832 227.801 19.2539L231.492 24H226.418L223.254 19.6172H215.086V24H210.27V8.25H210.492H215.086H225.809C226.855 8.25 227.809 8.50781 228.668 9.02344C229.527 9.53125 230.211 10.2148 230.719 11.0742C231.234 11.9336 231.492 12.8867 231.492 13.9336ZM215.086 11.7422V16.125H224.496C225.098 16.125 225.609 15.9102 226.031 15.4805C226.461 15.0508 226.676 14.5352 226.676 13.9336C226.676 13.332 226.461 12.8164 226.031 12.3867C225.609 11.957 225.098 11.7422 224.496 11.7422H215.086ZM252.867 11.4023H238.207V14.6133H252.867V17.625H238.207V20.8359H252.867V24H233.402V8.25H252.867V11.4023ZM265.066 8.25H269.871V20.5078H284.648V24H265.066V8.25ZM305.859 11.4023H291.199V14.6133H305.859V17.625H291.199V20.8359H305.859V24H286.395V8.25H305.859V11.4023ZM329.227 19.1602C329.227 19.3711 329.207 19.6484 329.168 19.9922C329.129 20.3281 329.012 20.6914 328.816 21.082C328.621 21.4727 328.297 21.8633 327.844 22.2539C327.398 22.6367 326.77 22.9883 325.957 23.3086C325.152 23.6289 324.117 23.8867 322.852 24.082C321.594 24.2773 320.047 24.375 318.211 24.375C316.734 24.375 315.336 24.3047 314.016 24.1641C312.695 24.0234 311.527 23.7773 310.512 23.4258C309.496 23.0742 308.695 22.5898 308.109 21.9727C307.531 21.3477 307.242 20.5547 307.242 19.5938H312.609C312.609 19.9844 312.742 20.3047 313.008 20.5547C313.273 20.7969 313.617 20.9883 314.039 21.1289C314.469 21.2617 314.934 21.3594 315.434 21.4219C315.934 21.4844 316.426 21.5234 316.91 21.5391C317.402 21.5469 317.836 21.5508 318.211 21.5508C319.438 21.5508 320.434 21.4883 321.199 21.3633C321.973 21.2305 322.57 21.0547 322.992 20.8359C323.422 20.6172 323.715 20.3633 323.871 20.0742C324.035 19.7852 324.117 19.4805 324.117 19.1602C324.117 18.7227 323.875 18.3945 323.391 18.1758C322.914 17.957 322.23 17.8008 321.34 17.707C320.449 17.6055 319.379 17.5273 318.129 17.4727C317.793 17.457 317.461 17.4414 317.133 17.4258C316.062 17.3789 315.035 17.3203 314.051 17.25C313.066 17.1797 312.16 17.0664 311.332 16.9102C310.504 16.7461 309.781 16.5117 309.164 16.207C308.547 15.9023 308.066 15.5 307.723 15C307.379 14.4922 307.207 13.8477 307.207 13.0664C307.207 12.8555 307.227 12.582 307.266 12.2461C307.305 11.9023 307.422 11.5352 307.617 11.1445C307.812 10.7539 308.133 10.3672 308.578 9.98438C309.031 9.59375 309.66 9.23828 310.465 8.91797C311.277 8.59766 312.312 8.33984 313.57 8.14453C314.836 7.94922 316.383 7.85156 318.211 7.85156C319.695 7.85156 321.098 7.92188 322.418 8.0625C323.738 8.20312 324.902 8.44922 325.91 8.80078C326.926 9.15234 327.727 9.64062 328.312 10.2656C328.898 10.8828 329.191 11.6719 329.191 12.6328H323.812C323.812 12.2422 323.68 11.9258 323.414 11.6836C323.156 11.4336 322.812 11.2383 322.383 11.0977C321.961 10.957 321.5 10.8594 321 10.8047C320.5 10.7422 320.004 10.707 319.512 10.6992C319.02 10.6836 318.586 10.6758 318.211 10.6758C316.992 10.6758 315.996 10.7422 315.223 10.875C314.457 11 313.859 11.1719 313.43 11.3906C313.008 11.6094 312.715 11.8633 312.551 12.1523C312.395 12.4414 312.316 12.7461 312.316 13.0664C312.316 13.5039 312.555 13.832 313.031 14.0508C313.516 14.2695 314.203 14.4258 315.094 14.5195C315.984 14.6133 317.055 14.6875 318.305 14.7422C318.641 14.7656 318.973 14.7812 319.301 14.7891C320.371 14.8359 321.398 14.8984 322.383 14.9766C323.367 15.0469 324.273 15.1602 325.102 15.3164C325.93 15.4727 326.652 15.7031 327.27 16.0078C327.887 16.3125 328.367 16.7188 328.711 17.2266C329.055 17.7344 329.227 18.3789 329.227 19.1602ZM22.1953 48.8945C22.5391 48.8945 23 48.8789 23.5781 48.8477C24.1641 48.8086 24.7734 48.6992 25.4062 48.5195C26.0391 48.332 26.6172 48.0273 27.1406 47.6055C27.6641 47.1836 28.0469 46.5938 28.2891 45.8359H33.1992C32.9102 47.9844 31.8555 49.6133 30.0352 50.7227C28.2148 51.8242 25.6016 52.375 22.1953 52.375C18.4688 52.375 15.6875 51.7109 13.8516 50.3828C12.0234 49.0547 11.1094 47.1094 11.1094 44.5469V43.6797C11.1094 41.1172 12.0234 39.1719 13.8516 37.8438C15.6875 36.5156 18.4688 35.8516 22.1953 35.8516C25.6016 35.8516 28.2148 36.4062 30.0352 37.5156C31.8555 38.6172 32.9102 40.2383 33.1992 42.3789H28.2891C28.0469 41.6289 27.6641 41.043 27.1406 40.6211C26.6172 40.1992 26.0391 39.8984 25.4062 39.7188C24.7734 39.5312 24.1641 39.4219 23.5781 39.3906C23 39.3516 22.5391 39.332 22.1953 39.332C21.8828 39.332 21.4648 39.3477 20.9414 39.3789C20.4258 39.4023 19.8789 39.4844 19.3008 39.625C18.7227 39.7656 18.1758 39.9961 17.6602 40.3164C17.1445 40.6367 16.7188 41.0859 16.3828 41.6641C16.0547 42.2344 15.8906 42.9766 15.8906 43.8906V44.3242C15.8906 45.2383 16.0547 45.9844 16.3828 46.5625C16.7188 47.1328 17.1445 47.582 17.6602 47.9102C18.1758 48.2305 18.7227 48.4609 19.3008 48.6016C19.8789 48.7422 20.4258 48.8281 20.9414 48.8594C21.4648 48.8828 21.8828 48.8945 22.1953 48.8945ZM56.1445 41.9336C56.1445 43.1523 55.8008 44.2383 55.1133 45.1914C54.4336 46.1445 53.5469 46.832 52.4531 47.2539L56.1445 52H51.0703L47.9062 47.6172H39.7383V52H34.9219V36.25H35.1445H39.7383H50.4609C51.5078 36.25 52.4609 36.5078 53.3203 37.0234C54.1797 37.5312 54.8633 38.2148 55.3711 39.0742C55.8867 39.9336 56.1445 40.8867 56.1445 41.9336ZM39.7383 39.7422V44.125H49.1484C49.75 44.125 50.2617 43.9102 50.6836 43.4805C51.1133 43.0508 51.3281 42.5352 51.3281 41.9336C51.3281 41.332 51.1133 40.8164 50.6836 40.3867C50.2617 39.957 49.75 39.7422 49.1484 39.7422H39.7383ZM72.082 36.25L80.5312 52H75.1875L73.5352 48.7188H63.6211L61.9688 52H56.625L65.0742 36.25H72.082ZM71.9297 45.5195L68.5781 38.8164L65.2148 45.5195H71.9297ZM102.223 47.1602C102.223 47.3711 102.203 47.6484 102.164 47.9922C102.125 48.3281 102.008 48.6914 101.812 49.082C101.617 49.4727 101.293 49.8633 100.84 50.2539C100.395 50.6367 99.7656 50.9883 98.9531 51.3086C98.1484 51.6289 97.1133 51.8867 95.8477 52.082C94.5898 52.2773 93.043 52.375 91.207 52.375C89.7305 52.375 88.332 52.3047 87.0117 52.1641C85.6914 52.0234 84.5234 51.7773 83.5078 51.4258C82.4922 51.0742 81.6914 50.5898 81.1055 49.9727C80.5273 49.3477 80.2383 48.5547 80.2383 47.5938H85.6055C85.6055 47.9844 85.7383 48.3047 86.0039 48.5547C86.2695 48.7969 86.6133 48.9883 87.0352 49.1289C87.4648 49.2617 87.9297 49.3594 88.4297 49.4219C88.9297 49.4844 89.4219 49.5234 89.9062 49.5391C90.3984 49.5469 90.832 49.5508 91.207 49.5508C92.4336 49.5508 93.4297 49.4883 94.1953 49.3633C94.9688 49.2305 95.5664 49.0547 95.9883 48.8359C96.418 48.6172 96.7109 48.3633 96.8672 48.0742C97.0312 47.7852 97.1133 47.4805 97.1133 47.1602C97.1133 46.7227 96.8711 46.3945 96.3867 46.1758C95.9102 45.957 95.2266 45.8008 94.3359 45.707C93.4453 45.6055 92.375 45.5273 91.125 45.4727C90.7891 45.457 90.457 45.4414 90.1289 45.4258C89.0586 45.3789 88.0312 45.3203 87.0469 45.25C86.0625 45.1797 85.1562 45.0664 84.3281 44.9102C83.5 44.7461 82.7773 44.5117 82.1602 44.207C81.543 43.9023 81.0625 43.5 80.7188 43C80.375 42.4922 80.2031 41.8477 80.2031 41.0664C80.2031 40.8555 80.2227 40.582 80.2617 40.2461C80.3008 39.9023 80.418 39.5352 80.6133 39.1445C80.8086 38.7539 81.1289 38.3672 81.5742 37.9844C82.0273 37.5938 82.6562 37.2383 83.4609 36.918C84.2734 36.5977 85.3086 36.3398 86.5664 36.1445C87.832 35.9492 89.3789 35.8516 91.207 35.8516C92.6914 35.8516 94.0938 35.9219 95.4141 36.0625C96.7344 36.2031 97.8984 36.4492 98.9062 36.8008C99.9219 37.1523 100.723 37.6406 101.309 38.2656C101.895 38.8828 102.188 39.6719 102.188 40.6328H96.8086C96.8086 40.2422 96.6758 39.9258 96.4102 39.6836C96.1523 39.4336 95.8086 39.2383 95.3789 39.0977C94.957 38.957 94.4961 38.8594 93.9961 38.8047C93.4961 38.7422 93 38.707 92.5078 38.6992C92.0156 38.6836 91.582 38.6758 91.207 38.6758C89.9883 38.6758 88.9922 38.7422 88.2188 38.875C87.4531 39 86.8555 39.1719 86.4258 39.3906C86.0039 39.6094 85.7109 39.8633 85.5469 40.1523C85.3906 40.4414 85.3125 40.7461 85.3125 41.0664C85.3125 41.5039 85.5508 41.832 86.0273 42.0508C86.5117 42.2695 87.1992 42.4258 88.0898 42.5195C88.9805 42.6133 90.0508 42.6875 91.3008 42.7422C91.6367 42.7656 91.9688 42.7812 92.2969 42.7891C93.3672 42.8359 94.3945 42.8984 95.3789 42.9766C96.3633 43.0469 97.2695 43.1602 98.0977 43.3164C98.9258 43.4727 99.6484 43.7031 100.266 44.0078C100.883 44.3125 101.363 44.7188 101.707 45.2266C102.051 45.7344 102.223 46.3789 102.223 47.1602ZM126.211 52H121.395V45.8828H108.703V52H103.898V36.25H108.703V42.3789H121.395V36.25H126.211V52ZM159.832 36.25V39.7539H151.523V52H146.707V39.7539H138.398V36.25H159.832ZM181.137 39.4023H166.477V42.6133H181.137V45.625H166.477V48.8359H181.137V52H161.672V36.25H181.137V39.4023ZM204.504 47.1602C204.504 47.3711 204.484 47.6484 204.445 47.9922C204.406 48.3281 204.289 48.6914 204.094 49.082C203.898 49.4727 203.574 49.8633 203.121 50.2539C202.676 50.6367 202.047 50.9883 201.234 51.3086C200.43 51.6289 199.395 51.8867 198.129 52.082C196.871 52.2773 195.324 52.375 193.488 52.375C192.012 52.375 190.613 52.3047 189.293 52.1641C187.973 52.0234 186.805 51.7773 185.789 51.4258C184.773 51.0742 183.973 50.5898 183.387 49.9727C182.809 49.3477 182.52 48.5547 182.52 47.5938H187.887C187.887 47.9844 188.02 48.3047 188.285 48.5547C188.551 48.7969 188.895 48.9883 189.316 49.1289C189.746 49.2617 190.211 49.3594 190.711 49.4219C191.211 49.4844 191.703 49.5234 192.188 49.5391C192.68 49.5469 193.113 49.5508 193.488 49.5508C194.715 49.5508 195.711 49.4883 196.477 49.3633C197.25 49.2305 197.848 49.0547 198.27 48.8359C198.699 48.6172 198.992 48.3633 199.148 48.0742C199.312 47.7852 199.395 47.4805 199.395 47.1602C199.395 46.7227 199.152 46.3945 198.668 46.1758C198.191 45.957 197.508 45.8008 196.617 45.707C195.727 45.6055 194.656 45.5273 193.406 45.4727C193.07 45.457 192.738 45.4414 192.41 45.4258C191.34 45.3789 190.312 45.3203 189.328 45.25C188.344 45.1797 187.438 45.0664 186.609 44.9102C185.781 44.7461 185.059 44.5117 184.441 44.207C183.824 43.9023 183.344 43.5 183 43C182.656 42.4922 182.484 41.8477 182.484 41.0664C182.484 40.8555 182.504 40.582 182.543 40.2461C182.582 39.9023 182.699 39.5352 182.895 39.1445C183.09 38.7539 183.41 38.3672 183.855 37.9844C184.309 37.5938 184.938 37.2383 185.742 36.918C186.555 36.5977 187.59 36.3398 188.848 36.1445C190.113 35.9492 191.66 35.8516 193.488 35.8516C194.973 35.8516 196.375 35.9219 197.695 36.0625C199.016 36.2031 200.18 36.4492 201.188 36.8008C202.203 37.1523 203.004 37.6406 203.59 38.2656C204.176 38.8828 204.469 39.6719 204.469 40.6328H199.09C199.09 40.2422 198.957 39.9258 198.691 39.6836C198.434 39.4336 198.09 39.2383 197.66 39.0977C197.238 38.957 196.777 38.8594 196.277 38.8047C195.777 38.7422 195.281 38.707 194.789 38.6992C194.297 38.6836 193.863 38.6758 193.488 38.6758C192.27 38.6758 191.273 38.7422 190.5 38.875C189.734 39 189.137 39.1719 188.707 39.3906C188.285 39.6094 187.992 39.8633 187.828 40.1523C187.672 40.4414 187.594 40.7461 187.594 41.0664C187.594 41.5039 187.832 41.832 188.309 42.0508C188.793 42.2695 189.48 42.4258 190.371 42.5195C191.262 42.6133 192.332 42.6875 193.582 42.7422C193.918 42.7656 194.25 42.7812 194.578 42.7891C195.648 42.8359 196.676 42.8984 197.66 42.9766C198.645 43.0469 199.551 43.1602 200.379 43.3164C201.207 43.4727 201.93 43.7031 202.547 44.0078C203.164 44.3125 203.645 44.7188 203.988 45.2266C204.332 45.7344 204.504 46.3789 204.504 47.1602ZM225.551 36.25V39.7539H217.242V52H212.426V39.7539H204.117V36.25H225.551ZM246.855 39.4023H232.195V42.6133H246.855V45.625H232.195V48.8359H246.855V52H227.391V36.25H246.855V39.4023ZM260.215 52.375C256.473 52.375 253.684 51.7461 251.848 50.4883C250.012 49.2305 249.094 47.3164 249.094 44.7461V36.25H253.887V44.0898C253.887 45.0117 254.055 45.7617 254.391 46.3398C254.727 46.9102 255.152 47.3594 255.668 47.6875C256.184 48.0078 256.73 48.2383 257.309 48.3789C257.895 48.5195 258.445 48.6055 258.961 48.6367C259.484 48.6602 259.902 48.6719 260.215 48.6719C260.527 48.6719 260.941 48.6602 261.457 48.6367C261.98 48.6055 262.531 48.5195 263.109 48.3789C263.695 48.2383 264.246 48.0078 264.762 47.6875C265.277 47.3594 265.703 46.9102 266.039 46.3398C266.375 45.7617 266.543 45.0117 266.543 44.0898V36.25H271.336V44.7461C271.336 47.3164 270.418 49.2305 268.582 50.4883C266.746 51.7461 263.957 52.375 260.215 52.375ZM295.371 41.9336C295.371 43.1523 295.027 44.2383 294.34 45.1914C293.66 46.1445 292.773 46.832 291.68 47.2539L295.371 52H290.297L287.133 47.6172H278.965V52H274.148V36.25H274.371H278.965H289.688C290.734 36.25 291.688 36.5078 292.547 37.0234C293.406 37.5312 294.09 38.2148 294.598 39.0742C295.113 39.9336 295.371 40.8867 295.371 41.9336ZM278.965 39.7422V44.125H288.375C288.977 44.125 289.488 43.9102 289.91 43.4805C290.34 43.0508 290.555 42.5352 290.555 41.9336C290.555 41.332 290.34 40.8164 289.91 40.3867C289.488 39.957 288.977 39.7422 288.375 39.7422H278.965ZM318.879 47.1602C318.879 47.3711 318.859 47.6484 318.82 47.9922C318.781 48.3281 318.664 48.6914 318.469 49.082C318.273 49.4727 317.949 49.8633 317.496 50.2539C317.051 50.6367 316.422 50.9883 315.609 51.3086C314.805 51.6289 313.77 51.8867 312.504 52.082C311.246 52.2773 309.699 52.375 307.863 52.375C306.387 52.375 304.988 52.3047 303.668 52.1641C302.348 52.0234 301.18 51.7773 300.164 51.4258C299.148 51.0742 298.348 50.5898 297.762 49.9727C297.184 49.3477 296.895 48.5547 296.895 47.5938H302.262C302.262 47.9844 302.395 48.3047 302.66 48.5547C302.926 48.7969 303.27 48.9883 303.691 49.1289C304.121 49.2617 304.586 49.3594 305.086 49.4219C305.586 49.4844 306.078 49.5234 306.562 49.5391C307.055 49.5469 307.488 49.5508 307.863 49.5508C309.09 49.5508 310.086 49.4883 310.852 49.3633C311.625 49.2305 312.223 49.0547 312.645 48.8359C313.074 48.6172 313.367 48.3633 313.523 48.0742C313.688 47.7852 313.77 47.4805 313.77 47.1602C313.77 46.7227 313.527 46.3945 313.043 46.1758C312.566 45.957 311.883 45.8008 310.992 45.707C310.102 45.6055 309.031 45.5273 307.781 45.4727C307.445 45.457 307.113 45.4414 306.785 45.4258C305.715 45.3789 304.688 45.3203 303.703 45.25C302.719 45.1797 301.812 45.0664 300.984 44.9102C300.156 44.7461 299.434 44.5117 298.816 44.207C298.199 43.9023 297.719 43.5 297.375 43C297.031 42.4922 296.859 41.8477 296.859 41.0664C296.859 40.8555 296.879 40.582 296.918 40.2461C296.957 39.9023 297.074 39.5352 297.27 39.1445C297.465 38.7539 297.785 38.3672 298.23 37.9844C298.684 37.5938 299.312 37.2383 300.117 36.918C300.93 36.5977 301.965 36.3398 303.223 36.1445C304.488 35.9492 306.035 35.8516 307.863 35.8516C309.348 35.8516 310.75 35.9219 312.07 36.0625C313.391 36.2031 314.555 36.4492 315.562 36.8008C316.578 37.1523 317.379 37.6406 317.965 38.2656C318.551 38.8828 318.844 39.6719 318.844 40.6328H313.465C313.465 40.2422 313.332 39.9258 313.066 39.6836C312.809 39.4336 312.465 39.2383 312.035 39.0977C311.613 38.957 311.152 38.8594 310.652 38.8047C310.152 38.7422 309.656 38.707 309.164 38.6992C308.672 38.6836 308.238 38.6758 307.863 38.6758C306.645 38.6758 305.648 38.7422 304.875 38.875C304.109 39 303.512 39.1719 303.082 39.3906C302.66 39.6094 302.367 39.8633 302.203 40.1523C302.047 40.4414 301.969 40.7461 301.969 41.0664C301.969 41.5039 302.207 41.832 302.684 42.0508C303.168 42.2695 303.855 42.4258 304.746 42.5195C305.637 42.6133 306.707 42.6875 307.957 42.7422C308.293 42.7656 308.625 42.7812 308.953 42.7891C310.023 42.8359 311.051 42.8984 312.035 42.9766C313.02 43.0469 313.926 43.1602 314.754 43.3164C315.582 43.4727 316.305 43.7031 316.922 44.0078C317.539 44.3125 318.02 44.7188 318.363 45.2266C318.707 45.7344 318.879 46.3789 318.879 47.1602Z" fill="white"/>
</svg>
