<svg width="302" height="32" viewBox="0 0 302 32" fill="none" xmlns="http://www.w3.org/2000/svg">
<path d="M6.75545 13V3.978H7.97745V13H6.75545ZM7.58745 13V11.882H12.7615V13H7.58745ZM7.58745 8.918V7.852H12.3325V8.918H7.58745ZM7.58745 5.096V3.978H12.6965V5.096H7.58745ZM8.09445 3.068L7.56145 2.548L9.32945 0.532999H10.2395L12.0075 2.548L11.4875 3.068L9.39445 1.326L10.1875 1.339L8.09445 3.068ZM15.1644 13V4.238H16.3344V13H15.1644ZM13.6434 7.891V6.825H17.8554V7.891H13.6434ZM21.6711 13.13C21.0558 13.13 20.5011 12.9913 20.0071 12.714C19.5131 12.428 19.1231 12.0423 18.8371 11.557C18.5511 11.0717 18.4081 10.5213 18.4081 9.906C18.4081 9.29933 18.5468 8.75333 18.8241 8.268C19.1101 7.78267 19.4915 7.40133 19.9681 7.124C20.4535 6.838 20.9951 6.695 21.5931 6.695C22.1651 6.695 22.6678 6.825 23.1011 7.085C23.5431 7.345 23.8855 7.70467 24.1281 8.164C24.3795 8.62333 24.5051 9.14333 24.5051 9.724C24.5051 9.81067 24.5008 9.906 24.4921 10.01C24.4835 10.1053 24.4661 10.218 24.4401 10.348H19.2271V9.373H23.8161L23.3871 9.75C23.3871 9.334 23.3135 8.983 23.1661 8.697C23.0188 8.40233 22.8108 8.177 22.5421 8.021C22.2735 7.85633 21.9485 7.774 21.5671 7.774C21.1685 7.774 20.8175 7.86067 20.5141 8.034C20.2108 8.20733 19.9768 8.45 19.8121 8.762C19.6475 9.074 19.5651 9.44233 19.5651 9.867C19.5651 10.3003 19.6518 10.6817 19.8251 11.011C19.9985 11.3317 20.2455 11.583 20.5661 11.765C20.8868 11.9383 21.2551 12.025 21.6711 12.025C22.0178 12.025 22.3341 11.9643 22.6201 11.843C22.9148 11.7217 23.1661 11.5397 23.3741 11.297L24.1281 12.064C23.8335 12.4107 23.4695 12.675 23.0361 12.857C22.6115 13.039 22.1565 13.13 21.6711 13.13ZM27.7439 13.13C27.3972 13.13 27.0679 13.0867 26.7559 13C26.4525 12.9047 26.1709 12.7747 25.9109 12.61C25.6509 12.4367 25.4255 12.233 25.2349 11.999L25.9889 11.245C26.2142 11.5223 26.4742 11.7303 26.7689 11.869C27.0635 11.999 27.3929 12.064 27.7569 12.064C28.1209 12.064 28.4025 12.0033 28.6019 11.882C28.8012 11.752 28.9009 11.5743 28.9009 11.349C28.9009 11.1237 28.8185 10.9503 28.6539 10.829C28.4979 10.699 28.2942 10.595 28.0429 10.517C27.7915 10.4303 27.5229 10.348 27.2369 10.27C26.9595 10.1833 26.6952 10.075 26.4439 9.945C26.1925 9.815 25.9845 9.63733 25.8199 9.412C25.6639 9.18667 25.5859 8.88767 25.5859 8.515C25.5859 8.14233 25.6769 7.82167 25.8589 7.553C26.0409 7.27567 26.2922 7.06333 26.6129 6.916C26.9422 6.76867 27.3365 6.695 27.7959 6.695C28.2812 6.695 28.7102 6.78167 29.0829 6.955C29.4642 7.11967 29.7762 7.371 30.0189 7.709L29.2649 8.463C29.0915 8.23767 28.8749 8.06433 28.6149 7.943C28.3635 7.82167 28.0775 7.761 27.7569 7.761C27.4189 7.761 27.1589 7.82167 26.9769 7.943C26.8035 8.05567 26.7169 8.216 26.7169 8.424C26.7169 8.632 26.7949 8.79233 26.9509 8.905C27.1069 9.01767 27.3105 9.113 27.5619 9.191C27.8219 9.269 28.0905 9.35133 28.3679 9.438C28.6452 9.516 28.9095 9.62433 29.1609 9.763C29.4122 9.90167 29.6159 10.088 29.7719 10.322C29.9365 10.556 30.0189 10.8637 30.0189 11.245C30.0189 11.8257 29.8109 12.285 29.3949 12.623C28.9875 12.961 28.4372 13.13 27.7439 13.13ZM31.3287 10.244V9.139H35.6057V10.244H31.3287ZM39.0971 13L36.2631 6.825H37.5631L39.8381 12.038H39.0841L41.3721 6.825H42.6201L39.7861 13H39.0971ZM46.2103 13.13C45.6036 13.13 45.0576 12.987 44.5723 12.701C44.0869 12.415 43.7013 12.0293 43.4153 11.544C43.1293 11.05 42.9863 10.4997 42.9863 9.893C42.9863 9.295 43.1293 8.75767 43.4153 8.281C43.7013 7.79567 44.0869 7.41 44.5723 7.124C45.0576 6.838 45.6036 6.695 46.2103 6.695C46.8083 6.695 47.3499 6.838 47.8353 7.124C48.3293 7.40133 48.7193 7.78267 49.0053 8.268C49.2913 8.75333 49.4343 9.295 49.4343 9.893C49.4343 10.4997 49.2913 11.05 49.0053 11.544C48.7193 12.0293 48.3293 12.415 47.8353 12.701C47.3499 12.987 46.8083 13.13 46.2103 13.13ZM46.2103 11.999C46.6003 11.999 46.9469 11.908 47.2503 11.726C47.5536 11.544 47.7919 11.297 47.9653 10.985C48.1386 10.6643 48.2253 10.3003 48.2253 9.893C48.2253 9.49433 48.1343 9.139 47.9523 8.827C47.7789 8.515 47.5406 8.27233 47.2373 8.099C46.9426 7.917 46.6003 7.826 46.2103 7.826C45.8203 7.826 45.4736 7.917 45.1703 8.099C44.8669 8.27233 44.6286 8.515 44.4553 8.827C44.2819 9.139 44.1953 9.49433 44.1953 9.893C44.1953 10.3003 44.2819 10.6643 44.4553 10.985C44.6286 11.297 44.8669 11.544 45.1703 11.726C45.4736 11.908 45.8203 11.999 46.2103 11.999ZM53.2485 13.13C52.7372 13.13 52.2779 13.0173 51.8705 12.792C51.4719 12.558 51.1599 12.2373 50.9345 11.83C50.7092 11.4227 50.5965 10.9503 50.5965 10.413V6.825H51.7665V10.361C51.7665 10.699 51.8229 10.9937 51.9355 11.245C52.0569 11.4877 52.2302 11.674 52.4555 11.804C52.6809 11.934 52.9452 11.999 53.2485 11.999C53.7079 11.999 54.0675 11.856 54.3275 11.57C54.5875 11.2753 54.7175 10.8723 54.7175 10.361V6.825H55.8875V10.413C55.8875 10.9503 55.7749 11.4227 55.5495 11.83C55.3242 12.2373 55.0122 12.558 54.6135 12.792C54.2235 13.0173 53.7685 13.13 53.2485 13.13ZM59.4187 13.13C59.072 13.13 58.7427 13.0867 58.4307 13C58.1273 12.9047 57.8457 12.7747 57.5857 12.61C57.3257 12.4367 57.1003 12.233 56.9097 11.999L57.6637 11.245C57.889 11.5223 58.149 11.7303 58.4437 11.869C58.7383 11.999 59.0677 12.064 59.4317 12.064C59.7957 12.064 60.0773 12.0033 60.2767 11.882C60.476 11.752 60.5757 11.5743 60.5757 11.349C60.5757 11.1237 60.4933 10.9503 60.3287 10.829C60.1727 10.699 59.969 10.595 59.7177 10.517C59.4663 10.4303 59.1977 10.348 58.9117 10.27C58.6343 10.1833 58.37 10.075 58.1187 9.945C57.8673 9.815 57.6593 9.63733 57.4947 9.412C57.3387 9.18667 57.2607 8.88767 57.2607 8.515C57.2607 8.14233 57.3517 7.82167 57.5337 7.553C57.7157 7.27567 57.967 7.06333 58.2877 6.916C58.617 6.76867 59.0113 6.695 59.4707 6.695C59.956 6.695 60.385 6.78167 60.7577 6.955C61.139 7.11967 61.451 7.371 61.6937 7.709L60.9397 8.463C60.7663 8.23767 60.5497 8.06433 60.2897 7.943C60.0383 7.82167 59.7523 7.761 59.4317 7.761C59.0937 7.761 58.8337 7.82167 58.6517 7.943C58.4783 8.05567 58.3917 8.216 58.3917 8.424C58.3917 8.632 58.4697 8.79233 58.6257 8.905C58.7817 9.01767 58.9853 9.113 59.2367 9.191C59.4967 9.269 59.7653 9.35133 60.0427 9.438C60.32 9.516 60.5843 9.62433 60.8357 9.763C61.087 9.90167 61.2907 10.088 61.4467 10.322C61.6113 10.556 61.6937 10.8637 61.6937 11.245C61.6937 11.8257 61.4857 12.285 61.0697 12.623C60.6623 12.961 60.112 13.13 59.4187 13.13ZM68.9576 13.13C68.4896 13.13 68.0649 13.0347 67.6836 12.844C67.3109 12.6447 67.0119 12.3717 66.7866 12.025C66.5613 11.6783 66.4356 11.284 66.4096 10.842V8.983C66.4356 8.53233 66.5613 8.138 66.7866 7.8C67.0206 7.45333 67.3239 7.18467 67.6966 6.994C68.0779 6.79467 68.4983 6.695 68.9576 6.695C69.5209 6.695 70.0279 6.838 70.4786 7.124C70.9379 7.41 71.2976 7.79567 71.5576 8.281C71.8176 8.76633 71.9476 9.31233 71.9476 9.919C71.9476 10.5257 71.8176 11.0717 71.5576 11.557C71.2976 12.0423 70.9379 12.428 70.4786 12.714C70.0279 12.9913 69.5209 13.13 68.9576 13.13ZM65.7076 15.587V6.825H66.8776V8.45L66.6566 9.945L66.8776 11.453V15.587H65.7076ZM68.7626 12.025C69.1526 12.025 69.4949 11.934 69.7896 11.752C70.0843 11.57 70.3183 11.323 70.4916 11.011C70.6649 10.6903 70.7516 10.322 70.7516 9.906C70.7516 9.49867 70.6649 9.13467 70.4916 8.814C70.3183 8.49333 70.0843 8.24633 69.7896 8.073C69.4949 7.891 69.1569 7.8 68.7756 7.8C68.3856 7.8 68.0433 7.891 67.7486 8.073C67.4539 8.24633 67.2243 8.49333 67.0596 8.814C66.8949 9.13467 66.8126 9.503 66.8126 9.919C66.8126 10.3263 66.8906 10.6903 67.0466 11.011C67.2113 11.323 67.4409 11.57 67.7356 11.752C68.0389 11.934 68.3813 12.025 68.7626 12.025ZM73.274 13V6.825H74.444V13H73.274ZM74.444 9.477L74.002 9.282C74.002 8.49333 74.184 7.865 74.548 7.397C74.912 6.929 75.4363 6.695 76.121 6.695C76.433 6.695 76.7147 6.75133 76.966 6.864C77.2173 6.968 77.4513 7.14567 77.668 7.397L76.901 8.19C76.771 8.05133 76.628 7.95167 76.472 7.891C76.316 7.83033 76.134 7.8 75.926 7.8C75.4927 7.8 75.1373 7.93867 74.86 8.216C74.5827 8.49333 74.444 8.91367 74.444 9.477ZM81.1487 13.13C80.5333 13.13 79.9787 12.9913 79.4847 12.714C78.9907 12.428 78.6007 12.0423 78.3147 11.557C78.0287 11.0717 77.8857 10.5213 77.8857 9.906C77.8857 9.29933 78.0243 8.75333 78.3017 8.268C78.5877 7.78267 78.969 7.40133 79.4457 7.124C79.931 6.838 80.4727 6.695 81.0707 6.695C81.6427 6.695 82.1453 6.825 82.5787 7.085C83.0207 7.345 83.363 7.70467 83.6057 8.164C83.857 8.62333 83.9827 9.14333 83.9827 9.724C83.9827 9.81067 83.9783 9.906 83.9697 10.01C83.961 10.1053 83.9437 10.218 83.9177 10.348H78.7047V9.373H83.2937L82.8647 9.75C82.8647 9.334 82.791 8.983 82.6437 8.697C82.4963 8.40233 82.2883 8.177 82.0197 8.021C81.751 7.85633 81.426 7.774 81.0447 7.774C80.646 7.774 80.295 7.86067 79.9917 8.034C79.6883 8.20733 79.4543 8.45 79.2897 8.762C79.125 9.074 79.0427 9.44233 79.0427 9.867C79.0427 10.3003 79.1293 10.6817 79.3027 11.011C79.476 11.3317 79.723 11.583 80.0437 11.765C80.3643 11.9383 80.7327 12.025 81.1487 12.025C81.4953 12.025 81.8117 11.9643 82.0977 11.843C82.3923 11.7217 82.6437 11.5397 82.8517 11.297L83.6057 12.064C83.311 12.4107 82.947 12.675 82.5137 12.857C82.089 13.039 81.634 13.13 81.1487 13.13ZM79.3677 5.915L78.8347 5.395L80.6027 3.38H81.5127L83.2807 5.395L82.7607 5.915L80.6677 4.173L81.4607 4.186L79.3677 5.915ZM86.0297 13V4.238H87.1997V13H86.0297ZM84.5087 7.891V6.825H88.7207V7.891H84.5087ZM95.1969 13.13C94.6336 13.13 94.1222 12.9913 93.6629 12.714C93.2036 12.428 92.8396 12.0423 92.5709 11.557C92.3109 11.0717 92.1809 10.5257 92.1809 9.919C92.1809 9.31233 92.3109 8.76633 92.5709 8.281C92.8396 7.79567 93.1992 7.41 93.6499 7.124C94.1092 6.838 94.6249 6.695 95.1969 6.695C95.6649 6.695 96.0809 6.79467 96.4449 6.994C96.8176 7.18467 97.1166 7.45333 97.3419 7.8C97.5672 8.138 97.6929 8.53233 97.7189 8.983V10.842C97.6929 11.284 97.5672 11.6783 97.3419 12.025C97.1252 12.3717 96.8306 12.6447 96.4579 12.844C96.0939 13.0347 95.6736 13.13 95.1969 13.13ZM95.3919 12.025C95.9726 12.025 96.4406 11.83 96.7959 11.44C97.1512 11.0413 97.3289 10.5343 97.3289 9.919C97.3289 9.49433 97.2466 9.126 97.0819 8.814C96.9259 8.49333 96.7006 8.24633 96.4059 8.073C96.1112 7.891 95.7689 7.8 95.3789 7.8C94.9889 7.8 94.6422 7.891 94.3389 8.073C94.0442 8.255 93.8102 8.50633 93.6369 8.827C93.4722 9.139 93.3899 9.49867 93.3899 9.906C93.3899 10.322 93.4722 10.6903 93.6369 11.011C93.8102 11.323 94.0486 11.57 94.3519 11.752C94.6552 11.934 95.0019 12.025 95.3919 12.025ZM97.2509 13V11.336L97.4719 9.828L97.2509 8.333V6.825H98.4339V13H97.2509ZM96.0419 5.993L93.9619 4.29L94.8849 3.38L96.5749 5.473L96.0419 5.993ZM107.209 13V9.399C107.209 8.931 107.062 8.54533 106.767 8.242C106.473 7.93867 106.091 7.787 105.623 7.787C105.311 7.787 105.034 7.85633 104.791 7.995C104.549 8.13367 104.358 8.32433 104.219 8.567C104.081 8.80967 104.011 9.087 104.011 9.399L103.53 9.126C103.53 8.658 103.634 8.242 103.842 7.878C104.05 7.514 104.341 7.228 104.713 7.02C105.086 6.80333 105.506 6.695 105.974 6.695C106.442 6.695 106.854 6.812 107.209 7.046C107.573 7.28 107.859 7.58767 108.067 7.969C108.275 8.34167 108.379 8.74033 108.379 9.165V13H107.209ZM102.841 13V6.825H104.011V13H102.841ZM112.784 13.13C112.178 13.13 111.632 12.987 111.146 12.701C110.661 12.415 110.275 12.0293 109.989 11.544C109.703 11.05 109.56 10.4997 109.56 9.893C109.56 9.295 109.703 8.75767 109.989 8.281C110.275 7.79567 110.661 7.41 111.146 7.124C111.632 6.838 112.178 6.695 112.784 6.695C113.382 6.695 113.924 6.838 114.409 7.124C114.903 7.40133 115.293 7.78267 115.579 8.268C115.865 8.75333 116.008 9.295 116.008 9.893C116.008 10.4997 115.865 11.05 115.579 11.544C115.293 12.0293 114.903 12.415 114.409 12.701C113.924 12.987 113.382 13.13 112.784 13.13ZM112.784 11.999C113.174 11.999 113.521 11.908 113.824 11.726C114.128 11.544 114.366 11.297 114.539 10.985C114.713 10.6643 114.799 10.3003 114.799 9.893C114.799 9.49433 114.708 9.139 114.526 8.827C114.353 8.515 114.115 8.27233 113.811 8.099C113.517 7.917 113.174 7.826 112.784 7.826C112.394 7.826 112.048 7.917 111.744 8.099C111.441 8.27233 111.203 8.515 111.029 8.827C110.856 9.139 110.769 9.49433 110.769 9.893C110.769 10.3003 110.856 10.6643 111.029 10.985C111.203 11.297 111.441 11.544 111.744 11.726C112.048 11.908 112.394 11.999 112.784 11.999ZM119.823 13.13C119.311 13.13 118.852 13.0173 118.445 12.792C118.046 12.558 117.734 12.2373 117.509 11.83C117.283 11.4227 117.171 10.9503 117.171 10.413V6.825H118.341V10.361C118.341 10.699 118.397 10.9937 118.51 11.245C118.631 11.4877 118.804 11.674 119.03 11.804C119.255 11.934 119.519 11.999 119.823 11.999C120.282 11.999 120.642 11.856 120.902 11.57C121.162 11.2753 121.292 10.8723 121.292 10.361V6.825H122.462V10.413C122.462 10.9503 122.349 11.4227 122.124 11.83C121.898 12.2373 121.586 12.558 121.188 12.792C120.798 13.0173 120.343 13.13 119.823 13.13ZM125.993 13.13C125.646 13.13 125.317 13.0867 125.005 13C124.702 12.9047 124.42 12.7747 124.16 12.61C123.9 12.4367 123.675 12.233 123.484 11.999L124.238 11.245C124.463 11.5223 124.723 11.7303 125.018 11.869C125.313 11.999 125.642 12.064 126.006 12.064C126.37 12.064 126.652 12.0033 126.851 11.882C127.05 11.752 127.15 11.5743 127.15 11.349C127.15 11.1237 127.068 10.9503 126.903 10.829C126.747 10.699 126.543 10.595 126.292 10.517C126.041 10.4303 125.772 10.348 125.486 10.27C125.209 10.1833 124.944 10.075 124.693 9.945C124.442 9.815 124.234 9.63733 124.069 9.412C123.913 9.18667 123.835 8.88767 123.835 8.515C123.835 8.14233 123.926 7.82167 124.108 7.553C124.29 7.27567 124.541 7.06333 124.862 6.916C125.191 6.76867 125.586 6.695 126.045 6.695C126.53 6.695 126.959 6.78167 127.332 6.955C127.713 7.11967 128.025 7.371 128.268 7.709L127.514 8.463C127.341 8.23767 127.124 8.06433 126.864 7.943C126.613 7.82167 126.327 7.761 126.006 7.761C125.668 7.761 125.408 7.82167 125.226 7.943C125.053 8.05567 124.966 8.216 124.966 8.424C124.966 8.632 125.044 8.79233 125.2 8.905C125.356 9.01767 125.56 9.113 125.811 9.191C126.071 9.269 126.34 9.35133 126.617 9.438C126.894 9.516 127.159 9.62433 127.41 9.763C127.661 9.90167 127.865 10.088 128.021 10.322C128.186 10.556 128.268 10.8637 128.268 11.245C128.268 11.8257 128.06 12.285 127.644 12.623C127.237 12.961 126.686 13.13 125.993 13.13ZM133.166 13V5.902C133.166 5.44267 133.265 5.044 133.465 4.706C133.664 4.35933 133.937 4.08633 134.284 3.887C134.639 3.68767 135.051 3.588 135.519 3.588C135.874 3.588 136.182 3.64867 136.442 3.77C136.702 3.89133 136.94 4.069 137.157 4.303L136.39 5.057C136.277 4.93567 136.151 4.84467 136.013 4.784C135.874 4.71467 135.705 4.68 135.506 4.68C135.133 4.68 134.843 4.78833 134.635 5.005C134.435 5.22167 134.336 5.52067 134.336 5.902V13H133.166ZM131.645 7.891V6.825H136.299V7.891H131.645ZM139.745 13.13C139.181 13.13 138.67 12.9913 138.211 12.714C137.751 12.428 137.387 12.0423 137.119 11.557C136.859 11.0717 136.729 10.5257 136.729 9.919C136.729 9.31233 136.859 8.76633 137.119 8.281C137.387 7.79567 137.747 7.41 138.198 7.124C138.657 6.838 139.173 6.695 139.745 6.695C140.213 6.695 140.629 6.79467 140.993 6.994C141.365 7.18467 141.664 7.45333 141.89 7.8C142.115 8.138 142.241 8.53233 142.267 8.983V10.842C142.241 11.284 142.115 11.6783 141.89 12.025C141.673 12.3717 141.378 12.6447 141.006 12.844C140.642 13.0347 140.221 13.13 139.745 13.13ZM139.94 12.025C140.52 12.025 140.988 11.83 141.344 11.44C141.699 11.0413 141.877 10.5343 141.877 9.919C141.877 9.49433 141.794 9.126 141.63 8.814C141.474 8.49333 141.248 8.24633 140.954 8.073C140.659 7.891 140.317 7.8 139.927 7.8C139.537 7.8 139.19 7.891 138.887 8.073C138.592 8.255 138.358 8.50633 138.185 8.827C138.02 9.139 137.938 9.49867 137.938 9.906C137.938 10.322 138.02 10.6903 138.185 11.011C138.358 11.323 138.596 11.57 138.9 11.752C139.203 11.934 139.55 12.025 139.94 12.025ZM141.799 13V11.336L142.02 9.828L141.799 8.333V6.825H142.982V13H141.799ZM144.698 13V6.825H145.868V13H144.698ZM145.283 5.59C145.066 5.59 144.889 5.52067 144.75 5.382C144.611 5.23467 144.542 5.05267 144.542 4.836C144.542 4.628 144.611 4.45467 144.75 4.316C144.889 4.16867 145.066 4.095 145.283 4.095C145.5 4.095 145.677 4.16867 145.816 4.316C145.955 4.45467 146.024 4.628 146.024 4.836C146.024 5.05267 145.955 5.23467 145.816 5.382C145.677 5.52067 145.5 5.59 145.283 5.59ZM147.592 13V6.825H148.762V13H147.592ZM148.762 9.477L148.32 9.282C148.32 8.49333 148.502 7.865 148.866 7.397C149.23 6.929 149.755 6.695 150.439 6.695C150.751 6.695 151.033 6.75133 151.284 6.864C151.536 6.968 151.77 7.14567 151.986 7.397L151.219 8.19C151.089 8.05133 150.946 7.95167 150.79 7.891C150.634 7.83033 150.452 7.8 150.244 7.8C149.811 7.8 149.456 7.93867 149.178 8.216C148.901 8.49333 148.762 8.91367 148.762 9.477ZM155.467 13.13C154.852 13.13 154.297 12.9913 153.803 12.714C153.309 12.428 152.919 12.0423 152.633 11.557C152.347 11.0717 152.204 10.5213 152.204 9.906C152.204 9.29933 152.343 8.75333 152.62 8.268C152.906 7.78267 153.287 7.40133 153.764 7.124C154.249 6.838 154.791 6.695 155.389 6.695C155.961 6.695 156.464 6.825 156.897 7.085C157.339 7.345 157.681 7.70467 157.924 8.164C158.175 8.62333 158.301 9.14333 158.301 9.724C158.301 9.81067 158.297 9.906 158.288 10.01C158.279 10.1053 158.262 10.218 158.236 10.348H153.023V9.373H157.612L157.183 9.75C157.183 9.334 157.109 8.983 156.962 8.697C156.815 8.40233 156.607 8.177 156.338 8.021C156.069 7.85633 155.744 7.774 155.363 7.774C154.964 7.774 154.613 7.86067 154.31 8.034C154.007 8.20733 153.773 8.45 153.608 8.762C153.443 9.074 153.361 9.44233 153.361 9.867C153.361 10.3003 153.448 10.6817 153.621 11.011C153.794 11.3317 154.041 11.583 154.362 11.765C154.683 11.9383 155.051 12.025 155.467 12.025C155.814 12.025 156.13 11.9643 156.416 11.843C156.711 11.7217 156.962 11.5397 157.17 11.297L157.924 12.064C157.629 12.4107 157.265 12.675 156.832 12.857C156.407 13.039 155.952 13.13 155.467 13.13ZM165.531 13.13C165.063 13.13 164.638 13.0347 164.257 12.844C163.884 12.6447 163.585 12.3717 163.36 12.025C163.135 11.6783 163.009 11.284 162.983 10.842V8.983C163.009 8.53233 163.135 8.138 163.36 7.8C163.594 7.45333 163.897 7.18467 164.27 6.994C164.651 6.79467 165.072 6.695 165.531 6.695C166.094 6.695 166.601 6.838 167.052 7.124C167.511 7.41 167.871 7.79567 168.131 8.281C168.391 8.76633 168.521 9.31233 168.521 9.919C168.521 10.5257 168.391 11.0717 168.131 11.557C167.871 12.0423 167.511 12.428 167.052 12.714C166.601 12.9913 166.094 13.13 165.531 13.13ZM162.281 15.587V6.825H163.451V8.45L163.23 9.945L163.451 11.453V15.587H162.281ZM165.336 12.025C165.726 12.025 166.068 11.934 166.363 11.752C166.658 11.57 166.892 11.323 167.065 11.011C167.238 10.6903 167.325 10.322 167.325 9.906C167.325 9.49867 167.238 9.13467 167.065 8.814C166.892 8.49333 166.658 8.24633 166.363 8.073C166.068 7.891 165.73 7.8 165.349 7.8C164.959 7.8 164.617 7.891 164.322 8.073C164.027 8.24633 163.798 8.49333 163.633 8.814C163.468 9.13467 163.386 9.503 163.386 9.919C163.386 10.3263 163.464 10.6903 163.62 11.011C163.785 11.323 164.014 11.57 164.309 11.752C164.612 11.934 164.955 12.025 165.336 12.025ZM172.473 13.13C171.91 13.13 171.399 12.9913 170.939 12.714C170.48 12.428 170.116 12.0423 169.847 11.557C169.587 11.0717 169.457 10.5257 169.457 9.919C169.457 9.31233 169.587 8.76633 169.847 8.281C170.116 7.79567 170.476 7.41 170.926 7.124C171.386 6.838 171.901 6.695 172.473 6.695C172.941 6.695 173.357 6.79467 173.721 6.994C174.094 7.18467 174.393 7.45333 174.618 7.8C174.844 8.138 174.969 8.53233 174.995 8.983V10.842C174.969 11.284 174.844 11.6783 174.618 12.025C174.402 12.3717 174.107 12.6447 173.734 12.844C173.37 13.0347 172.95 13.13 172.473 13.13ZM172.668 12.025C173.249 12.025 173.717 11.83 174.072 11.44C174.428 11.0413 174.605 10.5343 174.605 9.919C174.605 9.49433 174.523 9.126 174.358 8.814C174.202 8.49333 173.977 8.24633 173.682 8.073C173.388 7.891 173.045 7.8 172.655 7.8C172.265 7.8 171.919 7.891 171.615 8.073C171.321 8.255 171.087 8.50633 170.913 8.827C170.749 9.139 170.666 9.49867 170.666 9.906C170.666 10.322 170.749 10.6903 170.913 11.011C171.087 11.323 171.325 11.57 171.628 11.752C171.932 11.934 172.278 12.025 172.668 12.025ZM174.527 13V11.336L174.748 9.828L174.527 8.333V6.825H175.71V13H174.527ZM177.414 13V6.825H178.584V13H177.414ZM178.584 9.477L178.142 9.282C178.142 8.49333 178.324 7.865 178.688 7.397C179.052 6.929 179.576 6.695 180.261 6.695C180.573 6.695 180.854 6.75133 181.106 6.864C181.357 6.968 181.591 7.14567 181.808 7.397L181.041 8.19C180.911 8.05133 180.768 7.95167 180.612 7.891C180.456 7.83033 180.274 7.8 180.066 7.8C179.632 7.8 179.277 7.93867 179 8.216C178.722 8.49333 178.584 8.91367 178.584 9.477ZM183.568 13V4.238H184.738V13H183.568ZM182.047 7.891V6.825H186.259V7.891H182.047ZM192.722 13.13C192.15 13.13 191.639 12.9913 191.188 12.714C190.737 12.428 190.378 12.0423 190.109 11.557C189.849 11.0717 189.719 10.5257 189.719 9.919C189.719 9.31233 189.849 8.76633 190.109 8.281C190.378 7.79567 190.737 7.41 191.188 7.124C191.639 6.838 192.15 6.695 192.722 6.695C193.181 6.695 193.597 6.79467 193.97 6.994C194.343 7.18467 194.642 7.45333 194.867 7.8C195.101 8.138 195.231 8.53233 195.257 8.983V10.842C195.231 11.284 195.105 11.6783 194.88 12.025C194.655 12.3717 194.356 12.6447 193.983 12.844C193.61 13.0347 193.19 13.13 192.722 13.13ZM192.917 12.025C193.307 12.025 193.645 11.934 193.931 11.752C194.226 11.57 194.455 11.323 194.62 11.011C194.785 10.6903 194.867 10.3263 194.867 9.919C194.867 9.49433 194.78 9.126 194.607 8.814C194.442 8.502 194.213 8.255 193.918 8.073C193.632 7.891 193.294 7.8 192.904 7.8C192.514 7.8 192.172 7.891 191.877 8.073C191.582 8.255 191.348 8.50633 191.175 8.827C191.01 9.139 190.928 9.49867 190.928 9.906C190.928 10.322 191.01 10.6903 191.175 11.011C191.348 11.323 191.582 11.57 191.877 11.752C192.18 11.934 192.527 12.025 192.917 12.025ZM195.972 13H194.789V11.336L195.01 9.828L194.789 8.333V3.718H195.972V13ZM200.535 13.13C199.92 13.13 199.365 12.9913 198.871 12.714C198.377 12.428 197.987 12.0423 197.701 11.557C197.415 11.0717 197.272 10.5213 197.272 9.906C197.272 9.29933 197.411 8.75333 197.688 8.268C197.974 7.78267 198.356 7.40133 198.832 7.124C199.318 6.838 199.859 6.695 200.457 6.695C201.029 6.695 201.532 6.825 201.965 7.085C202.407 7.345 202.75 7.70467 202.992 8.164C203.244 8.62333 203.369 9.14333 203.369 9.724C203.369 9.81067 203.365 9.906 203.356 10.01C203.348 10.1053 203.33 10.218 203.304 10.348H198.091V9.373H202.68L202.251 9.75C202.251 9.334 202.178 8.983 202.03 8.697C201.883 8.40233 201.675 8.177 201.406 8.021C201.138 7.85633 200.813 7.774 200.431 7.774C200.033 7.774 199.682 7.86067 199.378 8.034C199.075 8.20733 198.841 8.45 198.676 8.762C198.512 9.074 198.429 9.44233 198.429 9.867C198.429 10.3003 198.516 10.6817 198.689 11.011C198.863 11.3317 199.11 11.583 199.43 11.765C199.751 11.9383 200.119 12.025 200.535 12.025C200.882 12.025 201.198 11.9643 201.484 11.843C201.779 11.7217 202.03 11.5397 202.238 11.297L202.992 12.064C202.698 12.4107 202.334 12.675 201.9 12.857C201.476 13.039 201.021 13.13 200.535 13.13ZM209.468 13L206.634 6.825H207.934L210.209 12.038H209.455L211.743 6.825H212.991L210.157 13H209.468ZM216.581 13.13C215.975 13.13 215.429 12.987 214.943 12.701C214.458 12.415 214.072 12.0293 213.786 11.544C213.5 11.05 213.357 10.4997 213.357 9.893C213.357 9.295 213.5 8.75767 213.786 8.281C214.072 7.79567 214.458 7.41 214.943 7.124C215.429 6.838 215.975 6.695 216.581 6.695C217.179 6.695 217.721 6.838 218.206 7.124C218.7 7.40133 219.09 7.78267 219.376 8.268C219.662 8.75333 219.805 9.295 219.805 9.893C219.805 10.4997 219.662 11.05 219.376 11.544C219.09 12.0293 218.7 12.415 218.206 12.701C217.721 12.987 217.179 13.13 216.581 13.13ZM216.581 11.999C216.971 11.999 217.318 11.908 217.621 11.726C217.925 11.544 218.163 11.297 218.336 10.985C218.51 10.6643 218.596 10.3003 218.596 9.893C218.596 9.49433 218.505 9.139 218.323 8.827C218.15 8.515 217.912 8.27233 217.608 8.099C217.314 7.917 216.971 7.826 216.581 7.826C216.191 7.826 215.845 7.917 215.541 8.099C215.238 8.27233 215 8.515 214.826 8.827C214.653 9.139 214.566 9.49433 214.566 9.893C214.566 10.3003 214.653 10.6643 214.826 10.985C215 11.297 215.238 11.544 215.541 11.726C215.845 11.908 216.191 11.999 216.581 11.999ZM223.087 13.13C222.74 13.13 222.411 13.0867 222.099 13C221.795 12.9047 221.514 12.7747 221.254 12.61C220.994 12.4367 220.768 12.233 220.578 11.999L221.332 11.245C221.557 11.5223 221.817 11.7303 222.112 11.869C222.406 11.999 222.736 12.064 223.1 12.064C223.464 12.064 223.745 12.0033 223.945 11.882C224.144 11.752 224.244 11.5743 224.244 11.349C224.244 11.1237 224.161 10.9503 223.997 10.829C223.841 10.699 223.637 10.595 223.386 10.517C223.134 10.4303 222.866 10.348 222.58 10.27C222.302 10.1833 222.038 10.075 221.787 9.945C221.535 9.815 221.327 9.63733 221.163 9.412C221.007 9.18667 220.929 8.88767 220.929 8.515C220.929 8.14233 221.02 7.82167 221.202 7.553C221.384 7.27567 221.635 7.06333 221.956 6.916C222.285 6.76867 222.679 6.695 223.139 6.695C223.624 6.695 224.053 6.78167 224.426 6.955C224.807 7.11967 225.119 7.371 225.362 7.709L224.608 8.463C224.434 8.23767 224.218 8.06433 223.958 7.943C223.706 7.82167 223.42 7.761 223.1 7.761C222.762 7.761 222.502 7.82167 222.32 7.943C222.146 8.05567 222.06 8.216 222.06 8.424C222.06 8.632 222.138 8.79233 222.294 8.905C222.45 9.01767 222.653 9.113 222.905 9.191C223.165 9.269 223.433 9.35133 223.711 9.438C223.988 9.516 224.252 9.62433 224.504 9.763C224.755 9.90167 224.959 10.088 225.115 10.322C225.279 10.556 225.362 10.8637 225.362 11.245C225.362 11.8257 225.154 12.285 224.738 12.623C224.33 12.961 223.78 13.13 223.087 13.13ZM232.197 13.13C231.59 13.13 231.044 12.987 230.559 12.701C230.073 12.415 229.688 12.0293 229.402 11.544C229.116 11.05 228.973 10.4997 228.973 9.893C228.973 9.295 229.116 8.75767 229.402 8.281C229.688 7.79567 230.073 7.41 230.559 7.124C231.044 6.838 231.59 6.695 232.197 6.695C232.795 6.695 233.336 6.838 233.822 7.124C234.316 7.40133 234.706 7.78267 234.992 8.268C235.278 8.75333 235.421 9.295 235.421 9.893C235.421 10.4997 235.278 11.05 234.992 11.544C234.706 12.0293 234.316 12.415 233.822 12.701C233.336 12.987 232.795 13.13 232.197 13.13ZM232.197 11.999C232.587 11.999 232.933 11.908 233.237 11.726C233.54 11.544 233.778 11.297 233.952 10.985C234.125 10.6643 234.212 10.3003 234.212 9.893C234.212 9.49433 234.121 9.139 233.939 8.827C233.765 8.515 233.527 8.27233 233.224 8.099C232.929 7.917 232.587 7.826 232.197 7.826C231.807 7.826 231.46 7.917 231.157 8.099C230.853 8.27233 230.615 8.515 230.442 8.827C230.268 9.139 230.182 9.49433 230.182 9.893C230.182 10.3003 230.268 10.6643 230.442 10.985C230.615 11.297 230.853 11.544 231.157 11.726C231.46 11.908 231.807 11.999 232.197 11.999ZM239.989 13.13C239.521 13.13 239.096 13.0347 238.715 12.844C238.342 12.6447 238.043 12.3717 237.818 12.025C237.593 11.6783 237.467 11.284 237.441 10.842V8.983C237.467 8.53233 237.593 8.138 237.818 7.8C238.052 7.45333 238.355 7.18467 238.728 6.994C239.109 6.79467 239.53 6.695 239.989 6.695C240.552 6.695 241.059 6.838 241.51 7.124C241.969 7.41 242.329 7.79567 242.589 8.281C242.849 8.76633 242.979 9.31233 242.979 9.919C242.979 10.5257 242.849 11.0717 242.589 11.557C242.329 12.0423 241.969 12.428 241.51 12.714C241.059 12.9913 240.552 13.13 239.989 13.13ZM236.739 15.587V6.825H237.909V8.45L237.688 9.945L237.909 11.453V15.587H236.739ZM239.794 12.025C240.184 12.025 240.526 11.934 240.821 11.752C241.116 11.57 241.35 11.323 241.523 11.011C241.696 10.6903 241.783 10.322 241.783 9.906C241.783 9.49867 241.696 9.13467 241.523 8.814C241.35 8.49333 241.116 8.24633 240.821 8.073C240.526 7.891 240.188 7.8 239.807 7.8C239.417 7.8 239.075 7.891 238.78 8.073C238.485 8.24633 238.256 8.49333 238.091 8.814C237.926 9.13467 237.844 9.503 237.844 9.919C237.844 10.3263 237.922 10.6903 238.078 11.011C238.243 11.323 238.472 11.57 238.767 11.752C239.07 11.934 239.413 12.025 239.794 12.025ZM244.318 13V6.825H245.488V13H244.318ZM244.903 5.59C244.687 5.59 244.509 5.52067 244.37 5.382C244.232 5.23467 244.162 5.05267 244.162 4.836C244.162 4.628 244.232 4.45467 244.37 4.316C244.509 4.16867 244.687 4.095 244.903 4.095C245.12 4.095 245.298 4.16867 245.436 4.316C245.575 4.45467 245.644 4.628 245.644 4.836C245.644 5.05267 245.575 5.23467 245.436 5.382C245.298 5.52067 245.12 5.59 244.903 5.59ZM251.58 13V9.399C251.58 8.931 251.433 8.54533 251.138 8.242C250.844 7.93867 250.462 7.787 249.994 7.787C249.682 7.787 249.405 7.85633 249.162 7.995C248.92 8.13367 248.729 8.32433 248.59 8.567C248.452 8.80967 248.382 9.087 248.382 9.399L247.901 9.126C247.901 8.658 248.005 8.242 248.213 7.878C248.421 7.514 248.712 7.228 249.084 7.02C249.457 6.80333 249.877 6.695 250.345 6.695C250.813 6.695 251.225 6.812 251.58 7.046C251.944 7.28 252.23 7.58767 252.438 7.969C252.646 8.34167 252.75 8.74033 252.75 9.165V13H251.58ZM247.212 13V6.825H248.382V13H247.212ZM254.348 13V6.825H255.518V13H254.348ZM254.933 5.59C254.716 5.59 254.538 5.52067 254.4 5.382C254.261 5.23467 254.192 5.05267 254.192 4.836C254.192 4.628 254.261 4.45467 254.4 4.316C254.538 4.16867 254.716 4.095 254.933 4.095C255.149 4.095 255.327 4.16867 255.466 4.316C255.604 4.45467 255.674 4.628 255.674 4.836C255.674 5.05267 255.604 5.23467 255.466 5.382C255.327 5.52067 255.149 5.59 254.933 5.59ZM260.063 13.13C259.456 13.13 258.91 12.987 258.425 12.701C257.939 12.415 257.554 12.0293 257.268 11.544C256.982 11.05 256.839 10.4997 256.839 9.893C256.839 9.295 256.982 8.75767 257.268 8.281C257.554 7.79567 257.939 7.41 258.425 7.124C258.91 6.838 259.456 6.695 260.063 6.695C260.661 6.695 261.202 6.838 261.688 7.124C262.182 7.40133 262.572 7.78267 262.858 8.268C263.144 8.75333 263.287 9.295 263.287 9.893C263.287 10.4997 263.144 11.05 262.858 11.544C262.572 12.0293 262.182 12.415 261.688 12.701C261.202 12.987 260.661 13.13 260.063 13.13ZM260.063 11.999C260.453 11.999 260.799 11.908 261.103 11.726C261.406 11.544 261.644 11.297 261.818 10.985C261.991 10.6643 262.078 10.3003 262.078 9.893C262.078 9.49433 261.987 9.139 261.805 8.827C261.631 8.515 261.393 8.27233 261.09 8.099C260.795 7.917 260.453 7.826 260.063 7.826C259.673 7.826 259.326 7.917 259.023 8.099C258.719 8.27233 258.481 8.515 258.308 8.827C258.134 9.139 258.048 9.49433 258.048 9.893C258.048 10.3003 258.134 10.6643 258.308 10.985C258.481 11.297 258.719 11.544 259.023 11.726C259.326 11.908 259.673 11.999 260.063 11.999ZM268.973 13V9.399C268.973 8.931 268.826 8.54533 268.531 8.242C268.236 7.93867 267.855 7.787 267.387 7.787C267.075 7.787 266.798 7.85633 266.555 7.995C266.312 8.13367 266.122 8.32433 265.983 8.567C265.844 8.80967 265.775 9.087 265.775 9.399L265.294 9.126C265.294 8.658 265.398 8.242 265.606 7.878C265.814 7.514 266.104 7.228 266.477 7.02C266.85 6.80333 267.27 6.695 267.738 6.695C268.206 6.695 268.618 6.812 268.973 7.046C269.337 7.28 269.623 7.58767 269.831 7.969C270.039 8.34167 270.143 8.74033 270.143 9.165V13H268.973ZM264.605 13V6.825H265.775V13H264.605ZM273.69 13.13C273.343 13.13 273.014 13.0867 272.702 13C272.399 12.9047 272.117 12.7747 271.857 12.61C271.597 12.4367 271.372 12.233 271.181 11.999L271.935 11.245C272.16 11.5223 272.42 11.7303 272.715 11.869C273.01 11.999 273.339 12.064 273.703 12.064C274.067 12.064 274.349 12.0033 274.548 11.882C274.747 11.752 274.847 11.5743 274.847 11.349C274.847 11.1237 274.765 10.9503 274.6 10.829C274.444 10.699 274.24 10.595 273.989 10.517C273.738 10.4303 273.469 10.348 273.183 10.27C272.906 10.1833 272.641 10.075 272.39 9.945C272.139 9.815 271.931 9.63733 271.766 9.412C271.61 9.18667 271.532 8.88767 271.532 8.515C271.532 8.14233 271.623 7.82167 271.805 7.553C271.987 7.27567 272.238 7.06333 272.559 6.916C272.888 6.76867 273.283 6.695 273.742 6.695C274.227 6.695 274.656 6.78167 275.029 6.955C275.41 7.11967 275.722 7.371 275.965 7.709L275.211 8.463C275.038 8.23767 274.821 8.06433 274.561 7.943C274.31 7.82167 274.024 7.761 273.703 7.761C273.365 7.761 273.105 7.82167 272.923 7.943C272.75 8.05567 272.663 8.216 272.663 8.424C272.663 8.632 272.741 8.79233 272.897 8.905C273.053 9.01767 273.257 9.113 273.508 9.191C273.768 9.269 274.037 9.35133 274.314 9.438C274.591 9.516 274.856 9.62433 275.107 9.763C275.358 9.90167 275.562 10.088 275.718 10.322C275.883 10.556 275.965 10.8637 275.965 11.245C275.965 11.8257 275.757 12.285 275.341 12.623C274.934 12.961 274.383 13.13 273.69 13.13ZM282.618 13.13C282.046 13.13 281.53 12.9913 281.071 12.714C280.612 12.428 280.248 12.0423 279.979 11.557C279.719 11.0717 279.589 10.5257 279.589 9.919C279.589 9.31233 279.719 8.76633 279.979 8.281C280.248 7.79567 280.612 7.41 281.071 7.124C281.53 6.838 282.042 6.695 282.605 6.695C283.082 6.695 283.502 6.79467 283.866 6.994C284.239 7.18467 284.533 7.45333 284.75 7.8C284.975 8.138 285.101 8.53233 285.127 8.983V10.842C285.101 11.284 284.975 11.6783 284.75 12.025C284.533 12.3717 284.239 12.6447 283.866 12.844C283.502 13.0347 283.086 13.13 282.618 13.13ZM282.8 12.025C283.381 12.025 283.849 11.83 284.204 11.44C284.559 11.0413 284.737 10.5343 284.737 9.919C284.737 9.49433 284.655 9.126 284.49 8.814C284.334 8.49333 284.109 8.24633 283.814 8.073C283.528 7.891 283.19 7.8 282.8 7.8C282.41 7.8 282.063 7.891 281.76 8.073C281.465 8.255 281.231 8.50633 281.058 8.827C280.885 9.139 280.798 9.49867 280.798 9.906C280.798 10.322 280.885 10.6903 281.058 11.011C281.231 11.323 281.465 11.57 281.76 11.752C282.063 11.934 282.41 12.025 282.8 12.025ZM284.672 15.587V11.453L284.88 9.945L284.672 8.45V6.825H285.842V15.587H284.672ZM290.054 13.13C289.543 13.13 289.084 13.0173 288.676 12.792C288.278 12.558 287.966 12.2373 287.74 11.83C287.515 11.4227 287.402 10.9503 287.402 10.413V6.825H288.572V10.361C288.572 10.699 288.629 10.9937 288.741 11.245C288.863 11.4877 289.036 11.674 289.261 11.804C289.487 11.934 289.751 11.999 290.054 11.999C290.514 11.999 290.873 11.856 291.133 11.57C291.393 11.2753 291.523 10.8723 291.523 10.361V6.825H292.693V10.413C292.693 10.9503 292.581 11.4227 292.355 11.83C292.13 12.2373 291.818 12.558 291.419 12.792C291.029 13.0173 290.574 13.13 290.054 13.13ZM294.274 13V6.825H295.444V13H294.274ZM294.859 5.59C294.643 5.59 294.465 5.52067 294.326 5.382C294.188 5.23467 294.118 5.05267 294.118 4.836C294.118 4.628 294.188 4.45467 294.326 4.316C294.465 4.16867 294.643 4.095 294.859 4.095C295.076 4.095 295.254 4.16867 295.392 4.316C295.531 4.45467 295.6 4.628 295.6 4.836C295.6 5.05267 295.531 5.23467 295.392 5.382C295.254 5.52067 295.076 5.59 294.859 5.59ZM4.94866 29V25.399C4.94866 24.931 4.80132 24.5453 4.50666 24.242C4.21199 23.9387 3.83066 23.787 3.36266 23.787C3.05066 23.787 2.77332 23.8563 2.53066 23.995C2.28799 24.1337 2.09732 24.3243 1.95866 24.567C1.81999 24.8097 1.75066 25.087 1.75066 25.399L1.26966 25.126C1.26966 24.658 1.37366 24.242 1.58166 23.878C1.78966 23.514 2.07999 23.228 2.45266 23.02C2.82532 22.8033 3.24566 22.695 3.71366 22.695C4.18166 22.695 4.59332 22.812 4.94866 23.046C5.31266 23.28 5.59866 23.5877 5.80666 23.969C6.01466 24.3417 6.11866 24.7403 6.11866 25.165V29H4.94866ZM0.580656 29V22.825H1.75066V29H0.580656ZM10.5237 29.13C9.91706 29.13 9.37106 28.987 8.88573 28.701C8.40039 28.415 8.01473 28.0293 7.72873 27.544C7.44273 27.05 7.29973 26.4997 7.29973 25.893C7.29973 25.295 7.44273 24.7577 7.72873 24.281C8.01473 23.7957 8.40039 23.41 8.88573 23.124C9.37106 22.838 9.91706 22.695 10.5237 22.695C11.1217 22.695 11.6634 22.838 12.1487 23.124C12.6427 23.4013 13.0327 23.7827 13.3187 24.268C13.6047 24.7533 13.7477 25.295 13.7477 25.893C13.7477 26.4997 13.6047 27.05 13.3187 27.544C13.0327 28.0293 12.6427 28.415 12.1487 28.701C11.6634 28.987 11.1217 29.13 10.5237 29.13ZM10.5237 27.999C10.9137 27.999 11.2604 27.908 11.5637 27.726C11.8671 27.544 12.1054 27.297 12.2787 26.985C12.4521 26.6643 12.5387 26.3003 12.5387 25.893C12.5387 25.4943 12.4477 25.139 12.2657 24.827C12.0924 24.515 11.8541 24.2723 11.5507 24.099C11.2561 23.917 10.9137 23.826 10.5237 23.826C10.1337 23.826 9.78706 23.917 9.48373 24.099C9.18039 24.2723 8.94206 24.515 8.76873 24.827C8.59539 25.139 8.50873 25.4943 8.50873 25.893C8.50873 26.3003 8.59539 26.6643 8.76873 26.985C8.94206 27.297 9.18039 27.544 9.48373 27.726C9.78706 27.908 10.1337 27.999 10.5237 27.999ZM17.562 29.13C17.0507 29.13 16.5913 29.0173 16.184 28.792C15.7853 28.558 15.4733 28.2373 15.248 27.83C15.0227 27.4227 14.91 26.9503 14.91 26.413V22.825H16.08V26.361C16.08 26.699 16.1363 26.9937 16.249 27.245C16.3703 27.4877 16.5437 27.674 16.769 27.804C16.9943 27.934 17.2587 27.999 17.562 27.999C18.0213 27.999 18.381 27.856 18.641 27.57C18.901 27.2753 19.031 26.8723 19.031 26.361V22.825H20.201V26.413C20.201 26.9503 20.0883 27.4227 19.863 27.83C19.6377 28.2373 19.3257 28.558 18.927 28.792C18.537 29.0173 18.082 29.13 17.562 29.13ZM23.7321 29.13C23.3855 29.13 23.0561 29.0867 22.7441 29C22.4408 28.9047 22.1591 28.7747 21.8991 28.61C21.6391 28.4367 21.4138 28.233 21.2231 27.999L21.9771 27.245C22.2025 27.5223 22.4625 27.7303 22.7571 27.869C23.0518 27.999 23.3811 28.064 23.7451 28.064C24.1091 28.064 24.3908 28.0033 24.5901 27.882C24.7895 27.752 24.8891 27.5743 24.8891 27.349C24.8891 27.1237 24.8068 26.9503 24.6421 26.829C24.4861 26.699 24.2825 26.595 24.0311 26.517C23.7798 26.4303 23.5111 26.348 23.2251 26.27C22.9478 26.1833 22.6835 26.075 22.4321 25.945C22.1808 25.815 21.9728 25.6373 21.8081 25.412C21.6521 25.1867 21.5741 24.8877 21.5741 24.515C21.5741 24.1423 21.6651 23.8217 21.8471 23.553C22.0291 23.2757 22.2805 23.0633 22.6011 22.916C22.9305 22.7687 23.3248 22.695 23.7841 22.695C24.2695 22.695 24.6985 22.7817 25.0711 22.955C25.4525 23.1197 25.7645 23.371 26.0071 23.709L25.2531 24.463C25.0798 24.2377 24.8631 24.0643 24.6031 23.943C24.3518 23.8217 24.0658 23.761 23.7451 23.761C23.4071 23.761 23.1471 23.8217 22.9651 23.943C22.7918 24.0557 22.7051 24.216 22.7051 24.424C22.7051 24.632 22.7831 24.7923 22.9391 24.905C23.0951 25.0177 23.2988 25.113 23.5501 25.191C23.8101 25.269 24.0788 25.3513 24.3561 25.438C24.6335 25.516 24.8978 25.6243 25.1491 25.763C25.4005 25.9017 25.6041 26.088 25.7601 26.322C25.9248 26.556 26.0071 26.8637 26.0071 27.245C26.0071 27.8257 25.7991 28.285 25.3831 28.623C24.9758 28.961 24.4255 29.13 23.7321 29.13ZM33.2711 29.13C32.8031 29.13 32.3784 29.0347 31.9971 28.844C31.6244 28.6447 31.3254 28.3717 31.1001 28.025C30.8748 27.6783 30.7491 27.284 30.7231 26.842V24.983C30.7491 24.5323 30.8748 24.138 31.1001 23.8C31.3341 23.4533 31.6374 23.1847 32.0101 22.994C32.3914 22.7947 32.8118 22.695 33.2711 22.695C33.8344 22.695 34.3414 22.838 34.7921 23.124C35.2514 23.41 35.6111 23.7957 35.8711 24.281C36.1311 24.7663 36.2611 25.3123 36.2611 25.919C36.2611 26.5257 36.1311 27.0717 35.8711 27.557C35.6111 28.0423 35.2514 28.428 34.7921 28.714C34.3414 28.9913 33.8344 29.13 33.2711 29.13ZM30.0211 31.587V22.825H31.1911V24.45L30.9701 25.945L31.1911 27.453V31.587H30.0211ZM33.0761 28.025C33.4661 28.025 33.8084 27.934 34.1031 27.752C34.3978 27.57 34.6318 27.323 34.8051 27.011C34.9784 26.6903 35.0651 26.322 35.0651 25.906C35.0651 25.4987 34.9784 25.1347 34.8051 24.814C34.6318 24.4933 34.3978 24.2463 34.1031 24.073C33.8084 23.891 33.4704 23.8 33.0891 23.8C32.6991 23.8 32.3568 23.891 32.0621 24.073C31.7674 24.2463 31.5378 24.4933 31.3731 24.814C31.2084 25.1347 31.1261 25.503 31.1261 25.919C31.1261 26.3263 31.2041 26.6903 31.3601 27.011C31.5248 27.323 31.7544 27.57 32.0491 27.752C32.3524 27.934 32.6948 28.025 33.0761 28.025ZM40.4475 29.13C39.8322 29.13 39.2775 28.9913 38.7835 28.714C38.2895 28.428 37.8995 28.0423 37.6135 27.557C37.3275 27.0717 37.1845 26.5213 37.1845 25.906C37.1845 25.2993 37.3232 24.7533 37.6005 24.268C37.8865 23.7827 38.2678 23.4013 38.7445 23.124C39.2298 22.838 39.7715 22.695 40.3695 22.695C40.9415 22.695 41.4442 22.825 41.8775 23.085C42.3195 23.345 42.6618 23.7047 42.9045 24.164C43.1558 24.6233 43.2815 25.1433 43.2815 25.724C43.2815 25.8107 43.2772 25.906 43.2685 26.01C43.2598 26.1053 43.2425 26.218 43.2165 26.348H38.0035V25.373H42.5925L42.1635 25.75C42.1635 25.334 42.0898 24.983 41.9425 24.697C41.7952 24.4023 41.5872 24.177 41.3185 24.021C41.0498 23.8563 40.7248 23.774 40.3435 23.774C39.9448 23.774 39.5938 23.8607 39.2905 24.034C38.9872 24.2073 38.7532 24.45 38.5885 24.762C38.4238 25.074 38.3415 25.4423 38.3415 25.867C38.3415 26.3003 38.4282 26.6817 38.6015 27.011C38.7748 27.3317 39.0218 27.583 39.3425 27.765C39.6632 27.9383 40.0315 28.025 40.4475 28.025C40.7942 28.025 41.1105 27.9643 41.3965 27.843C41.6912 27.7217 41.9425 27.5397 42.1505 27.297L42.9045 28.064C42.6098 28.4107 42.2458 28.675 41.8125 28.857C41.3878 29.039 40.9328 29.13 40.4475 29.13ZM44.5572 29V22.825H45.7272V29H44.5572ZM45.7272 25.477L45.2852 25.282C45.2852 24.4933 45.4672 23.865 45.8312 23.397C46.1952 22.929 46.7196 22.695 47.4042 22.695C47.7162 22.695 47.9979 22.7513 48.2492 22.864C48.5006 22.968 48.7346 23.1457 48.9512 23.397L48.1842 24.19C48.0542 24.0513 47.9112 23.9517 47.7552 23.891C47.5992 23.8303 47.4172 23.8 47.2092 23.8C46.7759 23.8 46.4206 23.9387 46.1432 24.216C45.8659 24.4933 45.7272 24.9137 45.7272 25.477ZM49.8004 29V22.825H50.9704V29H49.8004ZM53.9734 29V25.269C53.9734 24.8097 53.8304 24.45 53.5444 24.19C53.267 23.9213 52.916 23.787 52.4914 23.787C52.2054 23.787 51.9497 23.8477 51.7244 23.969C51.499 24.0903 51.317 24.2593 51.1784 24.476C51.0397 24.6927 50.9704 24.9527 50.9704 25.256L50.4894 25.022C50.4894 24.554 50.589 24.1467 50.7884 23.8C50.9964 23.4533 51.278 23.1847 51.6334 22.994C51.9887 22.7947 52.3874 22.695 52.8294 22.695C53.2627 22.695 53.6527 22.7903 53.9994 22.981C54.3547 23.1717 54.632 23.4403 54.8314 23.787C55.0394 24.1337 55.1434 24.5453 55.1434 25.022V29H53.9734ZM58.1464 29V25.269C58.1464 24.8097 58.0034 24.45 57.7174 24.19C57.44 23.9213 57.0934 23.787 56.6774 23.787C56.3914 23.787 56.1314 23.8477 55.8974 23.969C55.672 24.0903 55.49 24.2593 55.3514 24.476C55.2127 24.6927 55.1434 24.9527 55.1434 25.256L54.4804 25.022C54.5064 24.5453 54.632 24.138 54.8574 23.8C55.0914 23.4533 55.3904 23.1847 55.7544 22.994C56.1184 22.7947 56.5171 22.695 56.9504 22.695C57.4011 22.695 57.8041 22.7903 58.1594 22.981C58.5147 23.1717 58.7964 23.4403 59.0044 23.787C59.221 24.1337 59.3294 24.5497 59.3294 25.035V29H58.1464ZM63.7815 29.13C63.1661 29.13 62.6115 28.9913 62.1175 28.714C61.6235 28.428 61.2335 28.0423 60.9475 27.557C60.6615 27.0717 60.5185 26.5213 60.5185 25.906C60.5185 25.2993 60.6571 24.7533 60.9345 24.268C61.2205 23.7827 61.6018 23.4013 62.0785 23.124C62.5638 22.838 63.1055 22.695 63.7035 22.695C64.2755 22.695 64.7781 22.825 65.2115 23.085C65.6535 23.345 65.9958 23.7047 66.2385 24.164C66.4898 24.6233 66.6155 25.1433 66.6155 25.724C66.6155 25.8107 66.6111 25.906 66.6025 26.01C66.5938 26.1053 66.5765 26.218 66.5505 26.348H61.3375V25.373H65.9265L65.4975 25.75C65.4975 25.334 65.4238 24.983 65.2765 24.697C65.1291 24.4023 64.9211 24.177 64.6525 24.021C64.3838 23.8563 64.0588 23.774 63.6775 23.774C63.2788 23.774 62.9278 23.8607 62.6245 24.034C62.3211 24.2073 62.0871 24.45 61.9225 24.762C61.7578 25.074 61.6755 25.4423 61.6755 25.867C61.6755 26.3003 61.7621 26.6817 61.9355 27.011C62.1088 27.3317 62.3558 27.583 62.6765 27.765C62.9971 27.9383 63.3655 28.025 63.7815 28.025C64.1281 28.025 64.4445 27.9643 64.7305 27.843C65.0251 27.7217 65.2765 27.5397 65.4845 27.297L66.2385 28.064C65.9438 28.4107 65.5798 28.675 65.1465 28.857C64.7218 29.039 64.2668 29.13 63.7815 29.13ZM68.8402 29V20.238H70.0102V29H68.8402ZM67.3192 23.891V22.825H75.2102V23.891H67.3192ZM72.5192 29V20.238H73.6892V29H72.5192ZM76.359 29V22.825H77.529V29H76.359ZM77.529 25.477L77.087 25.282C77.087 24.4933 77.269 23.865 77.633 23.397C77.997 22.929 78.5213 22.695 79.206 22.695C79.518 22.695 79.7996 22.7513 80.051 22.864C80.3023 22.968 80.5363 23.1457 80.753 23.397L79.986 24.19C79.856 24.0513 79.713 23.9517 79.557 23.891C79.401 23.8303 79.219 23.8 79.011 23.8C78.5776 23.8 78.2223 23.9387 77.945 24.216C77.6676 24.4933 77.529 24.9137 77.529 25.477ZM84.1946 29.13C83.588 29.13 83.042 28.987 82.5566 28.701C82.0713 28.415 81.6856 28.0293 81.3996 27.544C81.1136 27.05 80.9706 26.4997 80.9706 25.893C80.9706 25.295 81.1136 24.7577 81.3996 24.281C81.6856 23.7957 82.0713 23.41 82.5566 23.124C83.042 22.838 83.588 22.695 84.1946 22.695C84.7926 22.695 85.3343 22.838 85.8196 23.124C86.3136 23.4013 86.7036 23.7827 86.9896 24.268C87.2756 24.7533 87.4186 25.295 87.4186 25.893C87.4186 26.4997 87.2756 27.05 86.9896 27.544C86.7036 28.0293 86.3136 28.415 85.8196 28.701C85.3343 28.987 84.7926 29.13 84.1946 29.13ZM84.1946 27.999C84.5846 27.999 84.9313 27.908 85.2346 27.726C85.538 27.544 85.7763 27.297 85.9496 26.985C86.123 26.6643 86.2096 26.3003 86.2096 25.893C86.2096 25.4943 86.1186 25.139 85.9366 24.827C85.7633 24.515 85.525 24.2723 85.2216 24.099C84.927 23.917 84.5846 23.826 84.1946 23.826C83.8046 23.826 83.458 23.917 83.1546 24.099C82.8513 24.2723 82.613 24.515 82.4396 24.827C82.2663 25.139 82.1796 25.4943 82.1796 25.893C82.1796 26.3003 82.2663 26.6643 82.4396 26.985C82.613 27.297 82.8513 27.544 83.1546 27.726C83.458 27.908 83.8046 27.999 84.1946 27.999ZM93.1049 29V25.399C93.1049 24.931 92.9576 24.5453 92.6629 24.242C92.3682 23.9387 91.9869 23.787 91.5189 23.787C91.2069 23.787 90.9296 23.8563 90.6869 23.995C90.4442 24.1337 90.2536 24.3243 90.1149 24.567C89.9762 24.8097 89.9069 25.087 89.9069 25.399L89.4259 25.126C89.4259 24.658 89.5299 24.242 89.7379 23.878C89.9459 23.514 90.2362 23.228 90.6089 23.02C90.9816 22.8033 91.4019 22.695 91.8699 22.695C92.3379 22.695 92.7496 22.812 93.1049 23.046C93.4689 23.28 93.7549 23.5877 93.9629 23.969C94.1709 24.3417 94.2749 24.7403 94.2749 25.165V29H93.1049ZM88.7369 29V22.825H89.9069V29H88.7369ZM96.7318 29V20.238H97.9018V29H96.7318ZM95.2108 23.891V22.825H99.4228V23.891H95.2108ZM105.886 29.13C105.314 29.13 104.803 28.9913 104.352 28.714C103.901 28.428 103.542 28.0423 103.273 27.557C103.013 27.0717 102.883 26.5257 102.883 25.919C102.883 25.3123 103.013 24.7663 103.273 24.281C103.542 23.7957 103.901 23.41 104.352 23.124C104.803 22.838 105.314 22.695 105.886 22.695C106.345 22.695 106.761 22.7947 107.134 22.994C107.507 23.1847 107.806 23.4533 108.031 23.8C108.265 24.138 108.395 24.5323 108.421 24.983V26.842C108.395 27.284 108.269 27.6783 108.044 28.025C107.819 28.3717 107.52 28.6447 107.147 28.844C106.774 29.0347 106.354 29.13 105.886 29.13ZM106.081 28.025C106.471 28.025 106.809 27.934 107.095 27.752C107.39 27.57 107.619 27.323 107.784 27.011C107.949 26.6903 108.031 26.3263 108.031 25.919C108.031 25.4943 107.944 25.126 107.771 24.814C107.606 24.502 107.377 24.255 107.082 24.073C106.796 23.891 106.458 23.8 106.068 23.8C105.678 23.8 105.336 23.891 105.041 24.073C104.746 24.255 104.512 24.5063 104.339 24.827C104.174 25.139 104.092 25.4987 104.092 25.906C104.092 26.322 104.174 26.6903 104.339 27.011C104.512 27.323 104.746 27.57 105.041 27.752C105.344 27.934 105.691 28.025 106.081 28.025ZM109.136 29H107.953V27.336L108.174 25.828L107.953 24.333V19.718H109.136V29ZM111.151 22.89L110.878 19.718H112.165L111.892 22.89H111.151ZM115.662 29.13C115.098 29.13 114.587 28.9913 114.128 28.714C113.668 28.428 113.304 28.0423 113.036 27.557C112.776 27.0717 112.646 26.5257 112.646 25.919C112.646 25.3123 112.776 24.7663 113.036 24.281C113.304 23.7957 113.664 23.41 114.115 23.124C114.574 22.838 115.09 22.695 115.662 22.695C116.13 22.695 116.546 22.7947 116.91 22.994C117.282 23.1847 117.581 23.4533 117.807 23.8C118.032 24.138 118.158 24.5323 118.184 24.983V26.842C118.158 27.284 118.032 27.6783 117.807 28.025C117.59 28.3717 117.295 28.6447 116.923 28.844C116.559 29.0347 116.138 29.13 115.662 29.13ZM115.857 28.025C116.437 28.025 116.905 27.83 117.261 27.44C117.616 27.0413 117.794 26.5343 117.794 25.919C117.794 25.4943 117.711 25.126 117.547 24.814C117.391 24.4933 117.165 24.2463 116.871 24.073C116.576 23.891 116.234 23.8 115.844 23.8C115.454 23.8 115.107 23.891 114.804 24.073C114.509 24.255 114.275 24.5063 114.102 24.827C113.937 25.139 113.855 25.4987 113.855 25.906C113.855 26.322 113.937 26.6903 114.102 27.011C114.275 27.323 114.513 27.57 114.817 27.752C115.12 27.934 115.467 28.025 115.857 28.025ZM117.716 29V27.336L117.937 25.828L117.716 24.333V22.825H118.899V29H117.716ZM120.602 29V22.825H121.772V29H120.602ZM124.775 29V25.269C124.775 24.8097 124.632 24.45 124.346 24.19C124.069 23.9213 123.718 23.787 123.293 23.787C123.007 23.787 122.751 23.8477 122.526 23.969C122.301 24.0903 122.119 24.2593 121.98 24.476C121.841 24.6927 121.772 24.9527 121.772 25.256L121.291 25.022C121.291 24.554 121.391 24.1467 121.59 23.8C121.798 23.4533 122.08 23.1847 122.435 22.994C122.79 22.7947 123.189 22.695 123.631 22.695C124.064 22.695 124.454 22.7903 124.801 22.981C125.156 23.1717 125.434 23.4403 125.633 23.787C125.841 24.1337 125.945 24.5453 125.945 25.022V29H124.775ZM128.948 29V25.269C128.948 24.8097 128.805 24.45 128.519 24.19C128.242 23.9213 127.895 23.787 127.479 23.787C127.193 23.787 126.933 23.8477 126.699 23.969C126.474 24.0903 126.292 24.2593 126.153 24.476C126.014 24.6927 125.945 24.9527 125.945 25.256L125.282 25.022C125.308 24.5453 125.434 24.138 125.659 23.8C125.893 23.4533 126.192 23.1847 126.556 22.994C126.92 22.7947 127.319 22.695 127.752 22.695C128.203 22.695 128.606 22.7903 128.961 22.981C129.316 23.1717 129.598 23.4403 129.806 23.787C130.023 24.1337 130.131 24.5497 130.131 25.035V29H128.948ZM134.583 29.13C133.968 29.13 133.413 28.9913 132.919 28.714C132.425 28.428 132.035 28.0423 131.749 27.557C131.463 27.0717 131.32 26.5213 131.32 25.906C131.32 25.2993 131.459 24.7533 131.736 24.268C132.022 23.7827 132.404 23.4013 132.88 23.124C133.366 22.838 133.907 22.695 134.505 22.695C135.077 22.695 135.58 22.825 136.013 23.085C136.455 23.345 136.798 23.7047 137.04 24.164C137.292 24.6233 137.417 25.1433 137.417 25.724C137.417 25.8107 137.413 25.906 137.404 26.01C137.396 26.1053 137.378 26.218 137.352 26.348H132.139V25.373H136.728L136.299 25.75C136.299 25.334 136.226 24.983 136.078 24.697C135.931 24.4023 135.723 24.177 135.454 24.021C135.186 23.8563 134.861 23.774 134.479 23.774C134.081 23.774 133.73 23.8607 133.426 24.034C133.123 24.2073 132.889 24.45 132.724 24.762C132.56 25.074 132.477 25.4423 132.477 25.867C132.477 26.3003 132.564 26.6817 132.737 27.011C132.911 27.3317 133.158 27.583 133.478 27.765C133.799 27.9383 134.167 28.025 134.583 28.025C134.93 28.025 135.246 27.9643 135.532 27.843C135.827 27.7217 136.078 27.5397 136.286 27.297L137.04 28.064C136.746 28.4107 136.382 28.675 135.948 28.857C135.524 29.039 135.069 29.13 134.583 29.13ZM133.712 21.902L133.179 21.369L134.869 19.276L135.792 20.199L133.712 21.902ZM138.693 29V19.718H139.863V29H138.693ZM141.588 29V22.825H142.758V29H141.588ZM142.173 21.59C141.956 21.59 141.778 21.5207 141.64 21.382C141.501 21.2347 141.432 21.0527 141.432 20.836C141.432 20.628 141.501 20.4547 141.64 20.316C141.778 20.1687 141.956 20.095 142.173 20.095C142.389 20.095 142.567 20.1687 142.706 20.316C142.844 20.4547 142.914 20.628 142.914 20.836C142.914 21.0527 142.844 21.2347 142.706 21.382C142.567 21.5207 142.389 21.59 142.173 21.59ZM147.303 29.13C146.696 29.13 146.15 28.987 145.665 28.701C145.18 28.415 144.794 28.0293 144.508 27.544C144.222 27.05 144.079 26.4997 144.079 25.893C144.079 25.295 144.222 24.7577 144.508 24.281C144.794 23.7957 145.18 23.41 145.665 23.124C146.15 22.838 146.696 22.695 147.303 22.695C147.901 22.695 148.443 22.838 148.928 23.124C149.422 23.4013 149.812 23.7827 150.098 24.268C150.384 24.7533 150.527 25.295 150.527 25.893C150.527 26.4997 150.384 27.05 150.098 27.544C149.812 28.0293 149.422 28.415 148.928 28.701C148.443 28.987 147.901 29.13 147.303 29.13ZM147.303 27.999C147.693 27.999 148.04 27.908 148.343 27.726C148.646 27.544 148.885 27.297 149.058 26.985C149.231 26.6643 149.318 26.3003 149.318 25.893C149.318 25.4943 149.227 25.139 149.045 24.827C148.872 24.515 148.633 24.2723 148.33 24.099C148.035 23.917 147.693 23.826 147.303 23.826C146.913 23.826 146.566 23.917 146.263 24.099C145.96 24.2723 145.721 24.515 145.548 24.827C145.375 25.139 145.288 25.4943 145.288 25.893C145.288 26.3003 145.375 26.6643 145.548 26.985C145.721 27.297 145.96 27.544 146.263 27.726C146.566 27.908 146.913 27.999 147.303 27.999ZM151.845 29V22.825H153.015V29H151.845ZM153.015 25.477L152.573 25.282C152.573 24.4933 152.755 23.865 153.119 23.397C153.483 22.929 154.008 22.695 154.692 22.695C155.004 22.695 155.286 22.7513 155.537 22.864C155.789 22.968 156.023 23.1457 156.239 23.397L155.472 24.19C155.342 24.0513 155.199 23.9517 155.043 23.891C154.887 23.8303 154.705 23.8 154.497 23.8C154.064 23.8 153.709 23.9387 153.431 24.216C153.154 24.4933 153.015 24.9137 153.015 25.477ZM159.72 29.13C159.105 29.13 158.55 28.9913 158.056 28.714C157.562 28.428 157.172 28.0423 156.886 27.557C156.6 27.0717 156.457 26.5213 156.457 25.906C156.457 25.2993 156.596 24.7533 156.873 24.268C157.159 23.7827 157.54 23.4013 158.017 23.124C158.502 22.838 159.044 22.695 159.642 22.695C160.214 22.695 160.717 22.825 161.15 23.085C161.592 23.345 161.934 23.7047 162.177 24.164C162.428 24.6233 162.554 25.1433 162.554 25.724C162.554 25.8107 162.55 25.906 162.541 26.01C162.532 26.1053 162.515 26.218 162.489 26.348H157.276V25.373H161.865L161.436 25.75C161.436 25.334 161.362 24.983 161.215 24.697C161.068 24.4023 160.86 24.177 160.591 24.021C160.322 23.8563 159.997 23.774 159.616 23.774C159.217 23.774 158.866 23.8607 158.563 24.034C158.26 24.2073 158.026 24.45 157.861 24.762C157.696 25.074 157.614 25.4423 157.614 25.867C157.614 26.3003 157.701 26.6817 157.874 27.011C158.047 27.3317 158.294 27.583 158.615 27.765C158.936 27.9383 159.304 28.025 159.72 28.025C160.067 28.025 160.383 27.9643 160.669 27.843C160.964 27.7217 161.215 27.5397 161.423 27.297L162.177 28.064C161.882 28.4107 161.518 28.675 161.085 28.857C160.66 29.039 160.205 29.13 159.72 29.13ZM163.83 29V22.825H165V29H163.83ZM165 25.477L164.558 25.282C164.558 24.4933 164.74 23.865 165.104 23.397C165.468 22.929 165.992 22.695 166.677 22.695C166.989 22.695 167.27 22.7513 167.522 22.864C167.773 22.968 168.007 23.1457 168.224 23.397L167.457 24.19C167.327 24.0513 167.184 23.9517 167.028 23.891C166.872 23.8303 166.69 23.8 166.482 23.8C166.048 23.8 165.693 23.9387 165.416 24.216C165.138 24.4933 165 24.9137 165 25.477ZM174.593 29.13C174.021 29.13 173.51 28.9913 173.059 28.714C172.608 28.428 172.249 28.0423 171.98 27.557C171.72 27.0717 171.59 26.5257 171.59 25.919C171.59 25.3123 171.72 24.7663 171.98 24.281C172.249 23.7957 172.608 23.41 173.059 23.124C173.51 22.838 174.021 22.695 174.593 22.695C175.052 22.695 175.468 22.7947 175.841 22.994C176.214 23.1847 176.513 23.4533 176.738 23.8C176.972 24.138 177.102 24.5323 177.128 24.983V26.842C177.102 27.284 176.976 27.6783 176.751 28.025C176.526 28.3717 176.227 28.6447 175.854 28.844C175.481 29.0347 175.061 29.13 174.593 29.13ZM174.788 28.025C175.178 28.025 175.516 27.934 175.802 27.752C176.097 27.57 176.326 27.323 176.491 27.011C176.656 26.6903 176.738 26.3263 176.738 25.919C176.738 25.4943 176.651 25.126 176.478 24.814C176.313 24.502 176.084 24.255 175.789 24.073C175.503 23.891 175.165 23.8 174.775 23.8C174.385 23.8 174.043 23.891 173.748 24.073C173.453 24.255 173.219 24.5063 173.046 24.827C172.881 25.139 172.799 25.4987 172.799 25.906C172.799 26.322 172.881 26.6903 173.046 27.011C173.219 27.323 173.453 27.57 173.748 27.752C174.051 27.934 174.398 28.025 174.788 28.025ZM177.843 29H176.66V27.336L176.881 25.828L176.66 24.333V19.718H177.843V29ZM182.406 29.13C181.791 29.13 181.236 28.9913 180.742 28.714C180.248 28.428 179.858 28.0423 179.572 27.557C179.286 27.0717 179.143 26.5213 179.143 25.906C179.143 25.2993 179.282 24.7533 179.559 24.268C179.845 23.7827 180.227 23.4013 180.703 23.124C181.189 22.838 181.73 22.695 182.328 22.695C182.9 22.695 183.403 22.825 183.836 23.085C184.278 23.345 184.621 23.7047 184.863 24.164C185.115 24.6233 185.24 25.1433 185.24 25.724C185.24 25.8107 185.236 25.906 185.227 26.01C185.219 26.1053 185.201 26.218 185.175 26.348H179.962V25.373H184.551L184.122 25.75C184.122 25.334 184.049 24.983 183.901 24.697C183.754 24.4023 183.546 24.177 183.277 24.021C183.009 23.8563 182.684 23.774 182.302 23.774C181.904 23.774 181.553 23.8607 181.249 24.034C180.946 24.2073 180.712 24.45 180.547 24.762C180.383 25.074 180.3 25.4423 180.3 25.867C180.3 26.3003 180.387 26.6817 180.56 27.011C180.734 27.3317 180.981 27.583 181.301 27.765C181.622 27.9383 181.99 28.025 182.406 28.025C182.753 28.025 183.069 27.9643 183.355 27.843C183.65 27.7217 183.901 27.5397 184.109 27.297L184.863 28.064C184.569 28.4107 184.205 28.675 183.771 28.857C183.347 29.039 182.892 29.13 182.406 29.13ZM188.479 29.13C188.133 29.13 187.803 29.0867 187.491 29C187.188 28.9047 186.906 28.7747 186.646 28.61C186.386 28.4367 186.161 28.233 185.97 27.999L186.724 27.245C186.95 27.5223 187.21 27.7303 187.504 27.869C187.799 27.999 188.128 28.064 188.492 28.064C188.856 28.064 189.138 28.0033 189.337 27.882C189.537 27.752 189.636 27.5743 189.636 27.349C189.636 27.1237 189.554 26.9503 189.389 26.829C189.233 26.699 189.03 26.595 188.778 26.517C188.527 26.4303 188.258 26.348 187.972 26.27C187.695 26.1833 187.431 26.075 187.179 25.945C186.928 25.815 186.72 25.6373 186.555 25.412C186.399 25.1867 186.321 24.8877 186.321 24.515C186.321 24.1423 186.412 23.8217 186.594 23.553C186.776 23.2757 187.028 23.0633 187.348 22.916C187.678 22.7687 188.072 22.695 188.531 22.695C189.017 22.695 189.446 22.7817 189.818 22.955C190.2 23.1197 190.512 23.371 190.754 23.709L190 24.463C189.827 24.2377 189.61 24.0643 189.35 23.943C189.099 23.8217 188.813 23.761 188.492 23.761C188.154 23.761 187.894 23.8217 187.712 23.943C187.539 24.0557 187.452 24.216 187.452 24.424C187.452 24.632 187.53 24.7923 187.686 24.905C187.842 25.0177 188.046 25.113 188.297 25.191C188.557 25.269 188.826 25.3513 189.103 25.438C189.381 25.516 189.645 25.6243 189.896 25.763C190.148 25.9017 190.351 26.088 190.507 26.322C190.672 26.556 190.754 26.8637 190.754 27.245C190.754 27.8257 190.546 28.285 190.13 28.623C189.723 28.961 189.173 29.13 188.479 29.13ZM194.781 29V22.825H195.951V29H194.781ZM195.366 21.59C195.149 21.59 194.972 21.5207 194.833 21.382C194.694 21.2347 194.625 21.0527 194.625 20.836C194.625 20.628 194.694 20.4547 194.833 20.316C194.972 20.1687 195.149 20.095 195.366 20.095C195.583 20.095 195.76 20.1687 195.899 20.316C196.038 20.4547 196.107 20.628 196.107 20.836C196.107 21.0527 196.038 21.2347 195.899 21.382C195.76 21.5207 195.583 21.59 195.366 21.59ZM202.043 29V25.399C202.043 24.931 201.896 24.5453 201.601 24.242C201.307 23.9387 200.925 23.787 200.457 23.787C200.145 23.787 199.868 23.8563 199.625 23.995C199.383 24.1337 199.192 24.3243 199.053 24.567C198.915 24.8097 198.845 25.087 198.845 25.399L198.364 25.126C198.364 24.658 198.468 24.242 198.676 23.878C198.884 23.514 199.175 23.228 199.547 23.02C199.92 22.8033 200.34 22.695 200.808 22.695C201.276 22.695 201.688 22.812 202.043 23.046C202.407 23.28 202.693 23.5877 202.901 23.969C203.109 24.3417 203.213 24.7403 203.213 25.165V29H202.043ZM197.675 29V22.825H198.845V29H197.675ZM206.916 29L204.082 22.825H205.382L207.657 28.038H206.903L209.191 22.825H210.439L207.605 29H206.916ZM214.069 29.13C213.453 29.13 212.899 28.9913 212.405 28.714C211.911 28.428 211.521 28.0423 211.235 27.557C210.949 27.0717 210.806 26.5213 210.806 25.906C210.806 25.2993 210.944 24.7533 211.222 24.268C211.508 23.7827 211.889 23.4013 212.366 23.124C212.851 22.838 213.393 22.695 213.991 22.695C214.563 22.695 215.065 22.825 215.499 23.085C215.941 23.345 216.283 23.7047 216.526 24.164C216.777 24.6233 216.903 25.1433 216.903 25.724C216.903 25.8107 216.898 25.906 216.89 26.01C216.881 26.1053 216.864 26.218 216.838 26.348H211.625V25.373H216.214L215.785 25.75C215.785 25.334 215.711 24.983 215.564 24.697C215.416 24.4023 215.208 24.177 214.94 24.021C214.671 23.8563 214.346 23.774 213.965 23.774C213.566 23.774 213.215 23.8607 212.912 24.034C212.608 24.2073 212.374 24.45 212.21 24.762C212.045 25.074 211.963 25.4423 211.963 25.867C211.963 26.3003 212.049 26.6817 212.223 27.011C212.396 27.3317 212.643 27.583 212.964 27.765C213.284 27.9383 213.653 28.025 214.069 28.025C214.415 28.025 214.732 27.9643 215.018 27.843C215.312 27.7217 215.564 27.5397 215.772 27.297L216.526 28.064C216.231 28.4107 215.867 28.675 215.434 28.857C215.009 29.039 214.554 29.13 214.069 29.13ZM222.546 29V25.399C222.546 24.931 222.399 24.5453 222.104 24.242C221.81 23.9387 221.428 23.787 220.96 23.787C220.648 23.787 220.371 23.8563 220.128 23.995C219.886 24.1337 219.695 24.3243 219.556 24.567C219.418 24.8097 219.348 25.087 219.348 25.399L218.867 25.126C218.867 24.658 218.971 24.242 219.179 23.878C219.387 23.514 219.678 23.228 220.05 23.02C220.423 22.8033 220.843 22.695 221.311 22.695C221.779 22.695 222.191 22.812 222.546 23.046C222.91 23.28 223.196 23.5877 223.404 23.969C223.612 24.3417 223.716 24.7403 223.716 25.165V29H222.546ZM218.178 29V22.825H219.348V29H218.178ZM226.173 29V20.238H227.343V29H226.173ZM224.652 23.891V22.825H228.864V23.891H224.652ZM230.023 29V22.825H231.193V29H230.023ZM230.608 21.59C230.392 21.59 230.214 21.5207 230.075 21.382C229.937 21.2347 229.867 21.0527 229.867 20.836C229.867 20.628 229.937 20.4547 230.075 20.316C230.214 20.1687 230.392 20.095 230.608 20.095C230.825 20.095 231.003 20.1687 231.141 20.316C231.28 20.4547 231.349 20.628 231.349 20.836C231.349 21.0527 231.28 21.2347 231.141 21.382C231.003 21.5207 230.825 21.59 230.608 21.59ZM235.739 29.13C235.132 29.13 234.586 28.987 234.101 28.701C233.615 28.415 233.23 28.0293 232.944 27.544C232.658 27.05 232.515 26.4997 232.515 25.893C232.515 25.295 232.658 24.7577 232.944 24.281C233.23 23.7957 233.615 23.41 234.101 23.124C234.586 22.838 235.132 22.695 235.739 22.695C236.337 22.695 236.878 22.838 237.364 23.124C237.858 23.4013 238.248 23.7827 238.534 24.268C238.82 24.7533 238.963 25.295 238.963 25.893C238.963 26.4997 238.82 27.05 238.534 27.544C238.248 28.0293 237.858 28.415 237.364 28.701C236.878 28.987 236.337 29.13 235.739 29.13ZM235.739 27.999C236.129 27.999 236.475 27.908 236.779 27.726C237.082 27.544 237.32 27.297 237.494 26.985C237.667 26.6643 237.754 26.3003 237.754 25.893C237.754 25.4943 237.663 25.139 237.481 24.827C237.307 24.515 237.069 24.2723 236.766 24.099C236.471 23.917 236.129 23.826 235.739 23.826C235.349 23.826 235.002 23.917 234.699 24.099C234.395 24.2723 234.157 24.515 233.984 24.827C233.81 25.139 233.724 25.4943 233.724 25.893C233.724 26.3003 233.81 26.6643 233.984 26.985C234.157 27.297 234.395 27.544 234.699 27.726C235.002 27.908 235.349 27.999 235.739 27.999ZM244.649 29V25.399C244.649 24.931 244.502 24.5453 244.207 24.242C243.912 23.9387 243.531 23.787 243.063 23.787C242.751 23.787 242.474 23.8563 242.231 23.995C241.988 24.1337 241.798 24.3243 241.659 24.567C241.52 24.8097 241.451 25.087 241.451 25.399L240.97 25.126C240.97 24.658 241.074 24.242 241.282 23.878C241.49 23.514 241.78 23.228 242.153 23.02C242.526 22.8033 242.946 22.695 243.414 22.695C243.882 22.695 244.294 22.812 244.649 23.046C245.013 23.28 245.299 23.5877 245.507 23.969C245.715 24.3417 245.819 24.7403 245.819 25.165V29H244.649ZM240.281 29V22.825H241.451V29H240.281ZM249.366 29.13C249.019 29.13 248.69 29.0867 248.378 29C248.075 28.9047 247.793 28.7747 247.533 28.61C247.273 28.4367 247.048 28.233 246.857 27.999L247.611 27.245C247.836 27.5223 248.096 27.7303 248.391 27.869C248.686 27.999 249.015 28.064 249.379 28.064C249.743 28.064 250.025 28.0033 250.224 27.882C250.423 27.752 250.523 27.5743 250.523 27.349C250.523 27.1237 250.441 26.9503 250.276 26.829C250.12 26.699 249.916 26.595 249.665 26.517C249.414 26.4303 249.145 26.348 248.859 26.27C248.582 26.1833 248.317 26.075 248.066 25.945C247.815 25.815 247.607 25.6373 247.442 25.412C247.286 25.1867 247.208 24.8877 247.208 24.515C247.208 24.1423 247.299 23.8217 247.481 23.553C247.663 23.2757 247.914 23.0633 248.235 22.916C248.564 22.7687 248.959 22.695 249.418 22.695C249.903 22.695 250.332 22.7817 250.705 22.955C251.086 23.1197 251.398 23.371 251.641 23.709L250.887 24.463C250.714 24.2377 250.497 24.0643 250.237 23.943C249.986 23.8217 249.7 23.761 249.379 23.761C249.041 23.761 248.781 23.8217 248.599 23.943C248.426 24.0557 248.339 24.216 248.339 24.424C248.339 24.632 248.417 24.7923 248.573 24.905C248.729 25.0177 248.933 25.113 249.184 25.191C249.444 25.269 249.713 25.3513 249.99 25.438C250.267 25.516 250.532 25.6243 250.783 25.763C251.034 25.9017 251.238 26.088 251.394 26.322C251.559 26.556 251.641 26.8637 251.641 27.245C251.641 27.8257 251.433 28.285 251.017 28.623C250.61 28.961 250.059 29.13 249.366 29.13ZM256.539 29V21.902C256.539 21.4427 256.639 21.044 256.838 20.706C257.037 20.3593 257.31 20.0863 257.657 19.887C258.012 19.6877 258.424 19.588 258.892 19.588C259.247 19.588 259.555 19.6487 259.815 19.77C260.075 19.8913 260.313 20.069 260.53 20.303L259.763 21.057C259.65 20.9357 259.525 20.8447 259.386 20.784C259.247 20.7147 259.078 20.68 258.879 20.68C258.506 20.68 258.216 20.7883 258.008 21.005C257.809 21.2217 257.709 21.5207 257.709 21.902V29H256.539ZM255.018 23.891V22.825H259.672V23.891H255.018ZM263.343 29.13C262.832 29.13 262.373 29.0173 261.965 28.792C261.567 28.558 261.255 28.2373 261.029 27.83C260.804 27.4227 260.691 26.9503 260.691 26.413V22.825H261.861V26.361C261.861 26.699 261.918 26.9937 262.03 27.245C262.152 27.4877 262.325 27.674 262.55 27.804C262.776 27.934 263.04 27.999 263.343 27.999C263.803 27.999 264.162 27.856 264.422 27.57C264.682 27.2753 264.812 26.8723 264.812 26.361V22.825H265.982V26.413C265.982 26.9503 265.87 27.4227 265.644 27.83C265.419 28.2373 265.107 28.558 264.708 28.792C264.318 29.0173 263.863 29.13 263.343 29.13ZM268.499 29V20.238H269.669V29H268.499ZM266.978 23.891V22.825H271.19V23.891H266.978ZM274.833 29.13C274.321 29.13 273.862 29.0173 273.455 28.792C273.056 28.558 272.744 28.2373 272.519 27.83C272.293 27.4227 272.181 26.9503 272.181 26.413V22.825H273.351V26.361C273.351 26.699 273.407 26.9937 273.52 27.245C273.641 27.4877 273.814 27.674 274.04 27.804C274.265 27.934 274.529 27.999 274.833 27.999C275.292 27.999 275.652 27.856 275.912 27.57C276.172 27.2753 276.302 26.8723 276.302 26.361V22.825H277.472V26.413C277.472 26.9503 277.359 27.4227 277.134 27.83C276.908 28.2373 276.596 28.558 276.198 28.792C275.808 29.0173 275.353 29.13 274.833 29.13ZM279.04 29V22.825H280.21V29H279.04ZM280.21 25.477L279.768 25.282C279.768 24.4933 279.95 23.865 280.314 23.397C280.678 22.929 281.202 22.695 281.887 22.695C282.199 22.695 282.48 22.7513 282.732 22.864C282.983 22.968 283.217 23.1457 283.434 23.397L282.667 24.19C282.537 24.0513 282.394 23.9517 282.238 23.891C282.082 23.8303 281.9 23.8 281.692 23.8C281.258 23.8 280.903 23.9387 280.626 24.216C280.348 24.4933 280.21 24.9137 280.21 25.477ZM286.914 29.13C286.299 29.13 285.744 28.9913 285.25 28.714C284.756 28.428 284.366 28.0423 284.08 27.557C283.794 27.0717 283.651 26.5213 283.651 25.906C283.651 25.2993 283.79 24.7533 284.067 24.268C284.353 23.7827 284.735 23.4013 285.211 23.124C285.697 22.838 286.238 22.695 286.836 22.695C287.408 22.695 287.911 22.825 288.344 23.085C288.786 23.345 289.129 23.7047 289.371 24.164C289.623 24.6233 289.748 25.1433 289.748 25.724C289.748 25.8107 289.744 25.906 289.735 26.01C289.727 26.1053 289.709 26.218 289.683 26.348H284.47V25.373H289.059L288.63 25.75C288.63 25.334 288.557 24.983 288.409 24.697C288.262 24.4023 288.054 24.177 287.785 24.021C287.517 23.8563 287.192 23.774 286.81 23.774C286.412 23.774 286.061 23.8607 285.757 24.034C285.454 24.2073 285.22 24.45 285.055 24.762C284.891 25.074 284.808 25.4423 284.808 25.867C284.808 26.3003 284.895 26.6817 285.068 27.011C285.242 27.3317 285.489 27.583 285.809 27.765C286.13 27.9383 286.498 28.025 286.914 28.025C287.261 28.025 287.577 27.9643 287.863 27.843C288.158 27.7217 288.409 27.5397 288.617 27.297L289.371 28.064C289.077 28.4107 288.713 28.675 288.279 28.857C287.855 29.039 287.4 29.13 286.914 29.13ZM292.987 29.13C292.64 29.13 292.311 29.0867 291.999 29C291.696 28.9047 291.414 28.7747 291.154 28.61C290.894 28.4367 290.669 28.233 290.478 27.999L291.232 27.245C291.457 27.5223 291.717 27.7303 292.012 27.869C292.307 27.999 292.636 28.064 293 28.064C293.364 28.064 293.646 28.0033 293.845 27.882C294.044 27.752 294.144 27.5743 294.144 27.349C294.144 27.1237 294.062 26.9503 293.897 26.829C293.741 26.699 293.537 26.595 293.286 26.517C293.035 26.4303 292.766 26.348 292.48 26.27C292.203 26.1833 291.938 26.075 291.687 25.945C291.436 25.815 291.228 25.6373 291.063 25.412C290.907 25.1867 290.829 24.8877 290.829 24.515C290.829 24.1423 290.92 23.8217 291.102 23.553C291.284 23.2757 291.535 23.0633 291.856 22.916C292.185 22.7687 292.58 22.695 293.039 22.695C293.524 22.695 293.953 22.7817 294.326 22.955C294.707 23.1197 295.019 23.371 295.262 23.709L294.508 24.463C294.335 24.2377 294.118 24.0643 293.858 23.943C293.607 23.8217 293.321 23.761 293 23.761C292.662 23.761 292.402 23.8217 292.22 23.943C292.047 24.0557 291.96 24.216 291.96 24.424C291.96 24.632 292.038 24.7923 292.194 24.905C292.35 25.0177 292.554 25.113 292.805 25.191C293.065 25.269 293.334 25.3513 293.611 25.438C293.888 25.516 294.153 25.6243 294.404 25.763C294.655 25.9017 294.859 26.088 295.015 26.322C295.18 26.556 295.262 26.8637 295.262 27.245C295.262 27.8257 295.054 28.285 294.638 28.623C294.231 28.961 293.68 29.13 292.987 29.13ZM298.561 26.14L298.548 23.67L298.899 23.657C299.202 23.657 299.467 23.592 299.692 23.462C299.926 23.332 300.108 23.1543 300.238 22.929C300.368 22.7037 300.433 22.4523 300.433 22.175C300.433 21.889 300.368 21.6377 300.238 21.421C300.117 21.2043 299.939 21.0353 299.705 20.914C299.48 20.7927 299.211 20.732 298.899 20.732C298.483 20.732 298.123 20.836 297.82 21.044C297.517 21.252 297.274 21.5467 297.092 21.928L296.234 21.213C296.485 20.7017 296.845 20.303 297.313 20.017C297.79 19.731 298.336 19.588 298.951 19.588C299.48 19.588 299.948 19.6963 300.355 19.913C300.762 20.121 301.079 20.4157 301.304 20.797C301.529 21.1697 301.642 21.603 301.642 22.097C301.642 22.5477 301.538 22.9593 301.33 23.332C301.131 23.696 300.845 23.9993 300.472 24.242C300.108 24.476 299.675 24.6277 299.172 24.697L299.679 24.177L299.575 26.14H298.561ZM299.055 29.13C298.812 29.13 298.609 29.0477 298.444 28.883C298.288 28.7183 298.21 28.5147 298.21 28.272C298.21 28.0293 298.288 27.83 298.444 27.674C298.609 27.5093 298.812 27.427 299.055 27.427C299.298 27.427 299.497 27.5093 299.653 27.674C299.818 27.83 299.9 28.0293 299.9 28.272C299.9 28.5147 299.818 28.7183 299.653 28.883C299.497 29.0477 299.298 29.13 299.055 29.13Z" fill="white"/>
</svg>
